<svg width="28" height="46" viewBox="0 0 38 46" fill="none" xmlns="http://www.w3.org/2000/svg">
<path d="M0 3.71394V22.4757C0 40.277 0.0633334 41.2375 1.33 43.2866C2.02667 44.5032 3.23 45.5918 3.99 45.7839C4.75 45.976 12.6667 46.04 21.5333 45.976L37.6833 45.7839V42.5822L4.11667 41.9419V38.7402L20.14 38.42C35.0867 38.0999 36.29 38.0358 37.1133 36.8832C37.81 35.8587 38 32.3369 38 19.082C38 3.39377 37.9367 2.4973 36.7333 1.28067C35.53 0.0640333 34.6433 0 19.57 0H3.67333L0 3.71394ZM28.1833 15.0479L20.0767 15.24C13.3 15.368 11.97 15.24 11.6533 14.4075C11.4633 13.8952 11.4633 12.9988 11.6533 12.4865C11.97 11.6541 13.3 11.526 20.0767 11.6541L28.1833 11.8462V15.0479Z" fill="#A3EFFA"/>
</svg>
