<svg width="42" height="45" viewBox="0 0 56 45" fill="none" xmlns="http://www.w3.org/2000/svg">
<path d="M1.45405 1.43974C0.090878 2.77465 0.0191322 3.75827 0.0191322 21.1121C0.0191322 44.0164 -1.05706 42.1897 12.9334 42.1897C22.0451 42.1897 23.1213 42.3302 24.4127 43.5948C25.8476 45 25.8476 45 25.8476 23.9225C25.8476 3.75828 25.7759 2.77465 24.4127 1.43974C23.1213 0.175091 22.0451 0.0345737 12.9334 0.0345737C3.82166 0.0345737 2.74547 0.175091 1.45405 1.43974Z" fill="#A3EFFA"/>
<path d="M31.5873 1.43974C30.2241 2.77465 30.1524 3.75827 30.1524 23.9225V45L31.5873 43.5948C32.8787 42.3302 33.9549 42.1897 43.0666 42.1897C57.0571 42.1897 55.9809 44.0164 55.9809 21.1121C55.9809 -1.79215 57.0571 0.0345697 43.0666 0.0345697C33.9549 0.0345697 32.8787 0.175087 31.5873 1.43974Z" fill="#A3EFFA"/>
</svg>
