<svg width="149" height="149" viewBox="0 0 149 149" fill="none" xmlns="http://www.w3.org/2000/svg">
<path d="M82.9493 0.422158C84.7856 1.09942 89.2141 4.26902 91.1314 6.30082C92.9406 8.22425 95.803 12.2607 95.803 12.9109C95.803 13.1006 95.641 13.2631 95.452 13.2902C95.2899 13.2902 94.5608 13.3986 93.8858 13.5069L92.6166 13.7236L91.3744 11.2584C90.6993 9.90387 89.6192 8.11589 88.9711 7.27608C87.81 5.67773 85.3526 2.96867 85.1096 2.96867C85.0016 2.96867 81.6802 0.50343 81.2481 0.0970712C81.0051 -0.119654 81.9502 0.04289 82.9493 0.422158Z" fill="#A1A1A1"/>
<path d="M58.2951 2.48104C60.7794 4.40448 62.3186 7.81789 62.3186 11.4209V13.534L61.5625 13.5611C60.9684 13.5611 61.0494 13.6424 62.0486 13.9675C63.4798 14.4009 63.6688 14.428 63.6688 14.1029C63.6688 13.9675 63.3988 13.8049 63.1017 13.7507C62.5887 13.6695 62.6697 13.5611 63.6958 12.8297C64.3439 12.342 65.6671 11.6377 66.6392 11.2042C68.2594 10.4999 68.6374 10.4457 71.9049 10.4457C74.4972 10.4457 75.8474 10.5811 77.0355 10.9333C79.6549 11.7189 81.2751 12.4775 81.1131 12.8838C81.0321 13.1006 81.1131 13.1818 81.3291 13.1006C82.2742 12.7213 84.5965 16.1889 84.8936 18.4645C85.2716 21.4445 82.0042 24.0452 78.6288 23.395C77.8997 23.2595 77.5756 22.9886 77.1436 22.1759C76.5225 20.9026 75.3343 20.2525 73.6601 20.2254C71.1758 20.1983 70.1496 21.4715 70.5007 24.1535C70.6897 25.5081 71.2838 26.375 72.958 27.6482C75.3613 29.4904 79.2228 30.1676 82.8413 29.4091C87.1079 28.5151 90.4563 26.1311 92.0495 22.8532L92.8866 21.1736L94.3988 20.9839C95.2359 20.8756 96.2081 20.7401 96.5591 20.6859C97.0992 20.5776 97.1802 20.6588 97.0992 21.309C97.0182 22.0134 97.0722 22.0675 97.9633 21.9863C98.4764 21.9321 99.3405 21.7966 99.8805 21.6341C101.987 21.0923 108.9 20.5505 113.625 20.5505C118.54 20.5776 125.561 21.2277 128.612 21.9321C131.367 22.6094 135.417 23.8284 136.983 24.4786C138.361 25.0746 138.496 25.1559 137.794 25.183C137.334 25.183 135.822 25.0204 134.418 24.8037C129.098 23.991 122.996 23.7201 117.676 24.0452C108.63 24.6141 101.609 26.4562 90.2943 31.2783C83.1924 34.2854 79.2498 34.773 74.6052 33.1747C70.6357 31.8202 68.0974 30.0051 66.7742 27.594C66.0991 26.3479 65.9911 25.8331 65.9911 24.0993C65.9911 19.7107 68.7995 16.7036 72.958 16.6765C74.3352 16.6494 74.8483 16.7849 76.0904 17.4892C77.7916 18.4645 79.0878 19.9545 79.1688 20.9568C79.1958 21.905 79.8439 21.7695 80.465 20.6859C81.8422 18.302 78.4667 15.1324 74.0112 14.6718C70.7167 14.3196 67.8273 15.1594 65.505 17.1641C64.911 17.706 64.2899 18.0581 64.1279 17.9498C63.9658 17.8685 63.9388 17.9227 64.0468 18.1123C64.1549 18.2749 64.0738 18.7083 63.8578 19.0334C62.3186 21.4174 62.1836 25.5351 63.5608 28.2171C65.262 31.6034 68.4484 34.475 72.904 36.7236C76.7925 38.6741 78.7638 39.1346 83.5704 39.1346C85.8117 39.1346 87.5939 39.2159 87.5399 39.3243C87.2159 39.839 84.2995 40.4079 81.3561 40.5433C78.3317 40.6788 74.9833 40.2995 73.3091 39.6764C72.904 39.5139 72.877 39.5681 73.12 40.2182C73.6331 41.5999 73.2551 44.1735 72.58 43.74C72.4719 43.6588 71.9859 42.9544 71.5538 42.1688C70.0146 39.4055 66.3961 36.8861 63.6418 36.6152C62.7777 36.5339 62.0216 36.6694 61.1575 37.0486C59.8883 37.6175 59.2942 37.5634 60.1043 36.9403C60.4014 36.6965 60.4284 36.5881 60.2123 36.561C60.0233 36.561 59.7533 36.263 59.6183 35.8838C59.4832 35.5045 59.1862 35.2065 58.9432 35.2065C58.6191 35.2065 58.6461 35.369 59.0782 36.1547C59.3752 36.6694 59.5373 37.1028 59.4292 37.1028C59.3212 37.1028 59.3752 37.2383 59.5643 37.4279C59.7803 37.6446 59.7533 37.9155 59.4022 38.5115C58.9702 39.2701 58.4301 39.4055 58.3761 38.7824C58.3491 38.5928 58.3221 38.349 58.2951 38.2406C58.2681 37.9426 56.6479 37.3737 56.6479 37.6446C56.6479 37.753 56.4048 37.8072 56.1078 37.7259C55.6757 37.6175 55.5947 37.4279 55.7297 37.0216C55.8918 36.4797 55.8918 36.4797 55.4597 36.9132C54.9466 37.4008 54.4876 37.5092 54.4876 37.1299C54.4876 36.561 55.7838 34.5292 56.6209 33.7978L57.539 32.9851L57.944 33.852C58.2951 34.5834 58.4031 34.6376 58.6191 34.2583C58.7812 33.9603 58.7271 33.6623 58.4301 33.3372C58.025 32.8767 58.0521 32.8225 59.1592 32.3891C60.7794 31.766 61.0494 31.8202 60.8604 32.66C60.7254 33.1205 60.7794 33.2831 60.9684 33.1747C61.4275 32.8767 61.2655 31.9556 60.5904 31.0616C58.8892 28.786 57.863 25.3997 58.1061 22.9344C58.1871 22.0946 58.1871 21.3903 58.0791 21.3903C57.998 21.3903 57.2149 22.0405 56.3778 22.8532C55.0817 24.0993 50.437 26.8626 50.437 26.402C50.437 26.3208 50.086 26.4291 49.6269 26.6729C48.3578 27.3231 44.5773 28.1358 41.9309 28.3255C35.7741 28.7589 27.7271 26.2395 23.2985 22.4468C21.4622 20.8756 19.788 18.5187 19.356 16.9203C19.1939 16.3243 18.9509 15.5387 18.8159 15.1865C18.6809 14.8614 18.4919 13.8049 18.4109 12.8838L18.2488 11.2313L19.1129 12.7213C19.572 13.534 20.4361 14.6989 21.0032 15.2949C21.5973 15.918 22.0833 16.5411 22.0833 16.7307C22.0833 16.9203 22.1643 17.0558 22.2994 17.0558C22.4074 17.0558 23.1635 17.5705 23.9736 18.1665C25.7828 19.521 29.0772 21.2006 30.7515 21.607C31.4536 21.7966 32.2097 22.0134 32.4797 22.0946C32.8037 22.2301 32.6687 21.8508 31.9936 20.8214C30.8865 19.1688 30.3194 17.1641 30.5624 15.9451C30.7515 14.9156 31.5346 13.2631 31.8046 13.2631C31.9126 13.2631 32.0746 13.8049 32.1556 14.4822C32.6417 17.9227 35.5851 20.8485 38.6095 20.8485C39.6896 20.8485 39.9597 20.713 40.6618 19.9274C42.201 18.1394 41.9579 15.4845 40.1487 14.5093C39.3116 14.0487 39.1226 14.0216 38.4205 14.3738C37.0433 15.024 37.2863 16.7849 38.7175 16.7849C39.5276 16.7849 39.5546 17.1641 38.7715 17.706C37.4483 18.6541 35.5311 17.7601 35.045 15.9722C34.478 13.8862 35.9632 11.8002 38.4475 11.1229C41.3369 10.3373 45.0633 12.64 46.1165 15.8638C46.6026 17.2725 46.3325 20.1983 45.6034 21.5799C45.2794 22.2301 45.1444 22.7448 45.3064 22.7448C45.4414 22.7448 46.5215 22.3926 47.7097 21.9592C50.194 21.0381 52.7324 19.6023 54.5416 18.0852C55.8378 17.0287 58.025 13.9945 58.4301 12.7213C58.5381 12.342 58.7001 11.8544 58.7812 11.6377C58.8622 11.4209 58.9162 10.0122 58.9432 8.52225C58.9432 6.11118 58.8622 5.62355 58.1871 4.18775C57.782 3.29376 57.242 2.37268 56.9989 2.10177C56.2968 1.31615 57.0529 1.55996 58.2951 2.48104ZM71.4998 10.9333C71.4998 11.0146 71.6078 11.15 71.7699 11.2313C71.9049 11.3126 72.0399 11.2584 72.0399 11.1229C72.0399 10.9604 71.9049 10.8249 71.7699 10.8249C71.6078 10.8249 71.4998 10.8791 71.4998 10.9333ZM76.5225 11.5022C76.6305 11.7189 76.8195 11.8273 76.9545 11.746C77.1166 11.6377 77.0896 11.4751 76.8735 11.3397C76.3605 11.0146 76.3605 11.0417 76.5225 11.5022ZM71.7699 12.044C71.7699 12.2607 71.8779 12.4504 72.0399 12.4504C72.1749 12.4504 72.3099 12.2607 72.3099 12.044C72.3099 11.8273 72.1749 11.6377 72.0399 11.6377C71.8779 11.6377 71.7699 11.8273 71.7699 12.044ZM42.201 13.0735C42.417 13.6153 42.66 14.0758 42.714 14.0758C42.8491 14.0758 42.363 12.1524 42.12 11.7731C41.7689 11.1771 41.8229 12.1524 42.201 13.0735ZM75.5504 12.6671C75.1723 12.9109 74.5782 13.2631 74.2002 13.4527C73.8221 13.6424 73.7141 13.8049 73.9301 13.8049C74.1462 13.8049 74.6322 13.5611 75.0103 13.2631C75.3883 12.9651 75.8744 12.7213 76.0904 12.7213C76.3064 12.7213 76.7925 12.5317 77.1706 12.3149L77.8456 11.9086L77.0355 12.0711C76.5765 12.1795 75.9284 12.4233 75.5504 12.6671ZM71.5538 13.6153C71.3108 13.6695 71.6348 13.6966 72.3099 13.7236C73.3361 13.7236 73.4441 13.6966 72.904 13.4527C72.58 13.2902 72.2829 13.0464 72.2829 12.8838C72.2559 12.7213 72.2019 12.8026 72.1209 13.0464C72.0669 13.2902 71.7969 13.534 71.5538 13.6153ZM70.4197 13.534C70.4197 13.6695 70.5277 13.8049 70.6897 13.8049C70.8247 13.8049 70.9597 13.6695 70.9597 13.534C70.9597 13.3715 70.8247 13.2631 70.6897 13.2631C70.5277 13.2631 70.4197 13.3715 70.4197 13.534ZM68.5294 13.3715C68.5294 13.4256 68.8265 13.534 69.2045 13.5882C69.5826 13.6695 69.8796 13.6153 69.8796 13.5069C69.8796 13.3715 69.5826 13.2631 69.2045 13.2631C68.8265 13.2631 68.5294 13.3173 68.5294 13.3715ZM65.424 13.8049C64.4249 13.8049 63.9388 13.9133 64.0738 14.0487C64.3709 14.3467 67.9083 13.9945 68.2054 13.6424C68.3134 13.534 68.0974 13.534 67.7193 13.6153C67.3413 13.7236 66.3151 13.8049 65.424 13.8049ZM58.8622 13.7236C59.1322 13.7778 59.5643 13.7778 59.8073 13.7236C60.0773 13.6424 59.8613 13.5882 59.3482 13.5882C58.8352 13.5882 58.6191 13.6424 58.8622 13.7236ZM78.8178 13.9133C78.8718 13.9675 79.4119 14.0758 80.0059 14.1571C80.735 14.2655 80.9511 14.2384 80.681 14.0758C80.303 13.832 78.5478 13.6695 78.8178 13.9133ZM63.5608 15.4845C63.7498 15.7825 64.4789 15.4033 64.4789 14.9969C64.4789 14.6718 64.3709 14.6718 63.9658 14.9427C63.6688 15.1324 63.4798 15.3491 63.5608 15.4845ZM63.3988 17.1912C63.3988 17.408 63.5068 17.5976 63.6688 17.5976C63.8038 17.5976 63.8578 17.408 63.7768 17.1912C63.6688 16.9745 63.5608 16.7849 63.5068 16.7849C63.4528 16.7849 63.3988 16.9745 63.3988 17.1912ZM45.1984 19.9274C44.7663 20.0899 44.8743 20.5776 45.3334 20.5776C45.4954 20.5776 45.5494 20.4692 45.4684 20.3337C45.3604 20.1983 45.4684 20.0087 45.6304 19.9545C45.8194 19.8732 45.9005 19.7919 45.7924 19.7919C45.7114 19.7648 45.4414 19.8461 45.1984 19.9274ZM44.5503 21.3632C44.7393 21.607 44.9283 21.8508 44.9553 21.905C45.0093 21.9592 45.0363 21.7695 45.0363 21.4716C45.0363 21.1736 44.8473 20.9297 44.6313 20.9297C44.3072 20.9297 44.3073 21.011 44.5503 21.3632ZM23.5415 22.1217C23.7305 22.3114 24.2436 21.9321 24.2436 21.607C24.2436 21.4445 24.0816 21.4445 23.8386 21.6612C23.5955 21.8508 23.4875 22.0675 23.5415 22.1217ZM49.3569 22.2301C49.3569 22.5281 49.4649 22.7177 49.6269 22.6094C49.762 22.5281 49.816 22.2843 49.708 22.0675C49.5189 21.4986 49.3569 21.5528 49.3569 22.2301ZM33.1548 22.3114C33.1548 22.3655 33.3438 22.501 33.5868 22.5823C33.8029 22.6635 33.9109 22.6364 33.8299 22.4739C33.6678 22.203 33.1548 22.0946 33.1548 22.3114ZM113.274 22.6635C113.463 22.7177 113.787 22.7177 113.949 22.6635C114.138 22.5823 114.003 22.5281 113.625 22.5281C113.247 22.5281 113.112 22.5823 113.274 22.6635ZM29.2393 22.7448C29.1582 22.8803 29.2123 23.0157 29.3473 23.0157C29.5093 23.0157 29.6443 22.8803 29.6443 22.7448C29.6443 22.5823 29.5903 22.4739 29.5363 22.4739C29.4553 22.4739 29.3203 22.5823 29.2393 22.7448ZM35.5851 23.0157C34.937 23.4221 35.3961 23.5304 36.1252 23.1512C36.5302 22.9344 36.6382 22.7719 36.3952 22.7719C36.1792 22.7448 35.8011 22.8532 35.5851 23.0157ZM49.1949 23.4221C49.2759 23.6659 49.1949 23.8284 48.9519 23.8284C48.6548 23.8284 48.6818 23.9639 49.0869 24.3702C49.4109 24.6953 49.5729 25.0475 49.4919 25.183C49.3839 25.3455 49.4919 25.4539 49.708 25.4539C50.005 25.4539 50.005 25.2371 49.789 24.2348C49.6269 23.5575 49.3839 23.0157 49.2759 23.0157C49.1409 23.0157 49.0869 23.2053 49.1949 23.4221ZM29.4553 24.0993C29.4823 24.5328 29.5903 24.9121 29.6983 24.9121C29.9684 24.9121 29.9684 24.3161 29.7523 23.7201C29.5093 23.0699 29.4013 23.2054 29.4553 24.0993ZM105.065 23.991C105.146 24.0722 105.389 24.0993 105.578 24.0181C105.794 23.9368 105.713 23.8555 105.416 23.8555C105.119 23.8284 104.957 23.9097 105.065 23.991ZM104.282 24.7495C104.012 24.9662 103.85 25.2101 103.958 25.3184C104.147 25.5081 105.254 24.885 105.254 24.587C105.254 24.2619 104.876 24.3432 104.282 24.7495ZM60.5094 29.6258C60.4284 30.4114 60.4554 30.4114 60.8064 29.9238C60.9954 29.6258 61.2655 28.9486 61.3735 28.4338L61.5625 27.4857L61.0765 28.1358C60.8334 28.488 60.5634 29.1653 60.5094 29.6258ZM60.2393 35.5316C60.3204 35.7212 60.3744 35.5858 60.3744 35.2065C60.3744 34.8272 60.3204 34.6918 60.2393 34.8543C60.1853 35.0439 60.1853 35.369 60.2393 35.5316Z" fill="#A1A1A1"/>
<path d="M149 10.0122H96.1541L94.3718 7.84498L92.5626 5.67774H149V10.0122ZM126.965 6.54463C126.452 7.16772 126.452 7.16772 126.992 6.73427C127.289 6.46336 127.775 6.21955 128.072 6.13828C128.585 6.02991 128.585 6.00282 128.045 5.97573C127.748 5.97573 127.262 6.21955 126.965 6.54463ZM104.444 6.86972C104.444 6.95099 104.552 7.08645 104.714 7.16772C104.849 7.24899 104.984 7.19481 104.984 7.05936C104.984 6.89681 104.849 6.76136 104.714 6.76136C104.552 6.76136 104.444 6.81554 104.444 6.86972ZM128.747 7.68244C128.747 7.76371 128.855 7.89916 129.017 7.98044C129.152 8.06171 129.287 8.00753 129.287 7.87207C129.287 7.70953 129.152 7.57408 129.017 7.57408C128.855 7.57408 128.747 7.62826 128.747 7.68244ZM127.883 9.00988C128.072 9.2266 128.126 9.47042 128.018 9.55169C127.937 9.66005 128.126 9.74133 128.45 9.74133C128.774 9.74133 128.99 9.63296 128.909 9.49751C128.801 9.36206 128.882 9.19951 129.071 9.14533C129.26 9.06406 129.206 8.84733 128.855 8.44098C128.423 7.92625 128.315 7.89917 127.964 8.25134C127.667 8.54934 127.64 8.71188 127.883 9.00988ZM106.145 8.00753C106.226 8.0888 106.469 8.11589 106.658 8.03462C106.874 7.95335 106.793 7.87207 106.496 7.87207C106.199 7.84498 106.037 7.92626 106.145 8.00753ZM126.047 8.79315C126.317 9.14533 126.29 9.19951 125.804 9.19951C125.507 9.19951 125.237 9.30788 125.237 9.47042C125.237 9.63296 125.48 9.63296 125.885 9.47042C126.236 9.33497 126.614 9.30788 126.695 9.38915C126.776 9.49751 126.857 9.36206 126.857 9.11824C126.857 8.87443 126.641 8.57643 126.398 8.41389C125.777 8.0888 125.615 8.25134 126.047 8.79315ZM102.554 9.17242C102.554 9.30788 102.743 9.49751 102.986 9.57878C103.364 9.71424 103.391 9.68714 103.094 9.33497C102.716 8.87443 102.554 8.82024 102.554 9.17242ZM106.199 9.47042C106.928 9.79551 107.145 9.79551 107.145 9.47042C107.145 9.30788 106.82 9.19951 106.388 9.2266C105.74 9.2266 105.713 9.25369 106.199 9.47042Z" fill="#A1A1A1"/>
<path d="M86.4598 6.40918C86.9729 7.11354 86.9729 7.11354 86.4598 6.9239C85.2986 6.43627 84.9206 6.40918 85.0556 6.78845C85.1366 7.00518 85.6227 7.19481 86.2438 7.24899C87.2969 7.33026 87.5129 7.54699 88.8631 9.66005C89.0251 9.93096 87.2699 10.0122 80.141 10.0122H71.2298V9.25369C71.2028 8.84733 71.0137 8.22425 70.7977 7.84498L70.3927 7.16772L70.5277 7.84498C70.6087 8.22425 70.7437 8.84733 70.8247 9.25369L71.0138 10.0122H63.7498L63.4258 8.57643C63.2637 7.81789 62.9397 6.84263 62.7237 6.40918L62.3456 5.67774H74.1462L85.9467 5.70483L86.4598 6.40918ZM70.2307 6.54463C70.3117 6.76136 70.3927 6.68009 70.3927 6.38209C70.4197 6.08409 70.3387 5.92155 70.2577 6.02991C70.1766 6.11119 70.1496 6.355 70.2307 6.54463ZM84.5965 8.3868C84.5155 8.52225 84.5695 8.6577 84.7045 8.6577C84.8666 8.6577 85.0016 8.52225 85.0016 8.3868C85.0016 8.22425 84.9476 8.11589 84.8936 8.11589C84.8126 8.11589 84.6775 8.22425 84.5965 8.3868Z" fill="#A1A1A1"/>
<path d="M56.9179 7.22189C57.566 10.3102 56.6209 13.2631 54.1636 15.8638C52.5163 17.6247 51.1392 18.4103 49.4109 18.5729L48.1958 18.6812L49.1679 17.733C51.1121 15.8367 52.4083 13.5069 52.7324 11.2313L52.9214 10.0122H10.2018V10.9333C10.2018 11.448 10.0668 12.2066 9.90474 12.64C9.74271 13.1276 9.71571 13.4256 9.90474 13.4798C10.2558 13.5882 10.3098 23.1241 9.93175 23.8284C9.74272 24.2077 9.71571 24.3702 9.93175 24.3702C10.3368 24.3702 10.2558 29.8154 9.85072 30.3031C9.6077 30.6282 9.6077 30.6553 9.85072 30.4927C10.0938 30.3573 10.2018 30.5198 10.2018 31.0616C10.1748 31.766 10.1478 31.766 9.82373 31.3325C9.49969 30.8991 9.44568 30.8991 9.28366 31.3054C9.06763 31.8743 9.31065 32.2265 9.79672 32.064C10.1208 31.9285 10.1748 32.5516 10.1748 35.8567C10.1748 39.3243 10.1478 39.8119 9.74272 39.8119C9.33766 39.8119 9.33766 39.839 9.74272 40.2995C10.2558 40.8413 10.3638 42.7918 9.90474 42.7918C9.76971 42.7918 9.49968 42.4126 9.36465 41.9791C9.20264 41.5186 8.95961 41.1664 8.8246 41.1664C8.50055 41.1664 8.52756 41.6269 8.85159 41.8437C8.98662 41.9249 9.12164 42.25 9.12164 42.5209C9.12164 42.7918 9.36465 43.1169 9.6617 43.1982C10.0668 43.3337 10.2018 43.6046 10.2018 44.4173C10.2018 45.2571 10.1208 45.4467 9.79672 45.3384C9.58069 45.23 9.39166 45.3113 9.39166 45.4738C9.39166 45.6364 8.90561 45.7718 8.28452 45.7718C7.28539 45.7718 7.20438 45.826 7.52843 46.2053C7.79846 46.5574 7.79846 46.6658 7.47441 46.8825C7.25839 47.018 7.20438 47.1263 7.36641 47.1263C7.50142 47.1263 7.42041 47.316 7.15038 47.5327C6.77232 47.8036 6.71832 48.0203 6.90735 48.3725C7.15038 48.806 7.17737 48.7789 7.33939 48.2641C7.58243 47.5598 8.77058 46.6929 9.5807 46.6387C10.2018 46.6116 10.2018 46.6658 10.2018 49.727V52.8154H11.0119C12.119 52.8154 14.5223 51.8672 15.8185 50.919C16.6556 50.323 16.9527 50.2147 17.2227 50.4585C17.4927 50.7023 17.5467 50.6752 17.4117 50.2959C17.2767 49.9709 17.4657 49.5645 17.8978 49.0769C18.7079 48.21 18.9239 48.3725 18.6809 49.7C18.5729 50.3772 18.3839 50.6481 18.1408 50.5398C17.9248 50.4585 17.7628 50.5127 17.7628 50.621C17.7628 50.7565 17.8978 50.919 18.0868 50.9732C18.6269 51.1628 16.8717 53.6552 15.4135 54.7659C13.1452 56.4997 11.4169 57.1499 9.12164 57.1499C8.0145 57.1499 6.79933 56.9873 6.44829 56.7977C5.8002 56.4726 5.77319 56.3913 5.71918 52.6799C5.66518 47.8036 5.74619 47.1534 6.50229 47.2889C6.98836 47.3972 6.98836 47.3431 6.39427 47.0722L5.69218 46.72L5.77319 30.7365C5.80019 21.9321 5.82721 14.5093 5.82721 14.2113C5.82721 13.9133 5.82719 11.8815 5.77319 9.66004L5.71918 5.67773H56.6209L56.9179 7.22189ZM46.6566 6.24663C46.6566 6.38208 46.7646 6.43626 46.9266 6.35499C47.0616 6.27372 47.4937 6.40917 47.8987 6.65299C48.4388 7.03226 48.5738 7.30316 48.4928 7.89916C48.4118 8.30551 48.4928 8.65769 48.6278 8.65769C48.7628 8.65769 48.7358 8.84733 48.5468 9.06405C48.3578 9.28078 48.2768 9.47041 48.3578 9.47041C48.4388 9.47041 48.6818 9.55168 48.8979 9.63295C49.2219 9.74132 49.2489 9.57877 49.0869 8.68478C48.9789 8.03461 49.0059 7.4928 49.1679 7.33025C49.3569 7.14062 49.2759 6.97808 48.9249 6.84262C48.6548 6.73426 48.2498 6.49045 48.0607 6.30081C47.6287 5.86736 46.6566 5.84027 46.6566 6.24663ZM21.0032 6.21954C21.0032 6.35499 21.0572 6.49044 21.1112 6.49044C21.1922 6.49044 21.3272 6.35499 21.4082 6.21954C21.4893 6.05699 21.4352 5.94863 21.3002 5.94863C21.1382 5.94863 21.0032 6.05699 21.0032 6.21954ZM13.4422 6.84262C13.4422 6.8968 13.7392 7.22189 14.1173 7.57407C14.6844 8.08879 14.7924 8.14297 14.7924 7.7637C14.7924 7.51989 14.6034 7.30316 14.3873 7.30316C14.1713 7.30316 13.9823 7.16771 13.9823 7.03226C13.9823 6.86971 13.8472 6.76135 13.7122 6.76135C13.5502 6.76135 13.4422 6.78844 13.4422 6.84262ZM6.96135 8.84733C6.96135 8.98278 7.15038 9.28078 7.36641 9.55168C7.71745 10.0393 7.74446 10.0393 8.0145 9.52459C8.25752 9.06405 8.23051 8.95569 7.82545 8.84733C7.06937 8.65769 6.96135 8.65769 6.96135 8.84733ZM6.15125 9.00987C6.15125 9.06405 6.42128 9.33496 6.74533 9.63295L7.36641 10.1477L6.85333 9.52459C6.36728 8.95569 6.15125 8.79315 6.15125 9.00987ZM6.71831 11.2042C7.04236 11.4751 8.04149 11.6377 8.04149 11.3938C8.04149 11.2584 7.77145 11.0958 7.42041 11.0417C6.82632 10.9333 6.50229 11.0146 6.71831 11.2042ZM7.23138 13.9404C7.42041 14.1571 7.69044 14.3467 7.82545 14.3467C7.98749 14.3467 7.96048 14.1571 7.77145 13.9404C7.58243 13.7236 7.31239 13.534 7.17737 13.534C7.01535 13.534 7.04236 13.7236 7.23138 13.9404ZM6.69131 15.5658C7.42041 15.9451 7.66344 15.918 7.36641 15.4574C7.28539 15.2949 6.93434 15.1594 6.61031 15.1594C6.04323 15.1865 6.04323 15.1865 6.69131 15.5658ZM8.52756 16.7036C8.9326 17.1371 9.31065 17.3538 9.36465 17.1912C9.41867 17.0558 9.33766 16.8932 9.14864 16.8391C8.98662 16.7849 8.85159 16.5681 8.85159 16.3514C8.85159 16.1347 8.60857 15.9722 8.33853 15.9722C7.85246 15.9722 7.87947 16.0534 8.52756 16.7036ZM8.50055 18.329C8.68958 18.3832 9.06763 18.3832 9.31065 18.329C9.58069 18.2478 9.41867 18.1936 8.98662 18.1936C8.52756 18.1936 8.33853 18.2478 8.50055 18.329ZM7.23138 21.7695C7.23138 21.8508 7.3394 21.9863 7.50142 22.0675C7.63644 22.1488 7.77145 22.0946 7.77145 21.9592C7.77145 21.7966 7.63644 21.6612 7.50142 21.6612C7.3394 21.6612 7.23138 21.7154 7.23138 21.7695ZM8.9326 22.6364C9.01363 22.7177 9.25665 22.7448 9.44568 22.6635C9.6617 22.5823 9.58069 22.501 9.28366 22.501C8.98662 22.4739 8.8246 22.5552 8.9326 22.6364ZM6.77232 32.1181C6.85333 32.1994 7.09636 32.2265 7.28539 32.1452C7.50142 32.064 7.42041 31.9827 7.12337 31.9827C6.82632 31.9556 6.66431 32.0369 6.77232 32.1181ZM8.1225 32.3891C8.20351 32.4703 8.44655 32.4974 8.63557 32.4161C8.85159 32.3349 8.77058 32.2536 8.47356 32.2536C8.17651 32.2265 8.0145 32.3078 8.1225 32.3891ZM9.39166 34.0145C9.39166 34.2312 9.49968 34.3396 9.6617 34.2583C9.79672 34.177 9.93175 33.9874 9.93175 33.8249C9.93175 33.6894 9.79672 33.581 9.6617 33.581C9.49968 33.581 9.39166 33.7707 9.39166 34.0145ZM6.28627 38.1594C6.28627 38.647 7.4474 39.4597 8.44653 39.6493L9.25665 39.7848L8.41954 39.4055C7.87947 39.1617 7.50142 38.7553 7.39342 38.3219C7.20439 37.5634 6.28627 37.455 6.28627 38.1594ZM6.42128 49.2936C6.20525 49.429 6.09723 49.5916 6.17824 49.6729C6.25925 49.7541 6.5563 49.6458 6.85333 49.429C7.42041 48.9956 7.06937 48.8872 6.42128 49.2936ZM8.23051 51.7317C8.31152 52.0297 8.47356 52.2736 8.60857 52.2736C8.90561 52.2736 8.90561 52.1923 8.68958 51.6234C8.44655 51.0003 8.0685 51.0816 8.23051 51.7317ZM6.42128 54.1699C6.42128 54.3054 6.5293 54.4408 6.69131 54.4408C6.82634 54.4408 6.96135 54.3054 6.96135 54.1699C6.96135 54.0074 6.82634 53.899 6.69131 53.899C6.5293 53.899 6.42128 54.0074 6.42128 54.1699Z" fill="#A1A1A1"/>
<path d="M121.456 13.3986C125.426 13.8591 129.746 14.6718 132.393 15.4304C133.419 15.7283 134.526 16.0263 134.796 16.1076C139.387 17.1912 148.73 21.5799 148.73 22.6365C148.73 22.9345 148.298 22.8532 146.894 22.3114C137.686 18.7625 128.099 17.0287 117.838 17.0287C110.655 17.0287 107.226 17.408 91.8335 19.9545C89.4032 20.3338 87.3779 20.6317 87.3239 20.5505C87.2699 20.4963 87.1889 19.4669 87.1349 18.2749L87.0269 16.1076L88.377 15.8909C89.1061 15.7825 91.7795 15.2949 94.2908 14.8615C101.285 13.5882 104.579 13.2631 111.6 13.1277C116.191 13.0464 119.08 13.1277 121.456 13.3986Z" fill="#A1A1A1"/>
<path d="M15.0084 18.6812C17.7898 19.4127 20.058 20.713 21.8673 22.5823C23.2175 24.0181 25.5128 27.5398 25.7018 28.488C25.7558 28.6776 25.8908 29.1382 26.0528 29.5175C28.0511 34.3667 28.6452 38.8637 28.0241 44.336C27.511 48.7789 25.2697 54.0886 22.7854 56.6351L21.3272 58.1793L23.9466 58.2877C26.6739 58.4231 28.8612 59.1275 30.9675 60.5633L31.9396 61.2135L32.1286 59.9944C32.3177 58.5857 32.6687 57.9897 34.0729 56.5268C37.0703 53.4926 40.9318 53.5197 44.3342 56.6351C47.6017 59.6422 48.6548 63.6245 47.0886 67.065C46.2785 68.853 45.1174 69.5032 43.2001 69.2323C40.9858 68.9343 39.6626 67.3359 39.2036 64.4643L39.0145 63.2453L39.9597 64.2747C41.7419 66.1439 43.6591 65.3041 43.3351 62.7847C43.1461 61.4573 41.6069 59.7235 40.2837 59.3442C38.4745 58.8295 36.6652 60.8071 36.6652 63.3265C36.6652 64.5998 37.5023 67.065 38.2855 68.0674C38.9605 68.9072 38.9875 69.2865 38.3395 68.7176C37.8804 68.3112 37.7724 68.3112 36.8273 68.8259C36.2602 69.1239 35.6121 69.3135 35.4231 69.2323C34.883 69.0155 34.964 69.5574 35.5041 69.8283C36.0982 70.1263 36.6652 69.9637 36.6652 69.4761C36.6652 69.0697 37.7994 68.7176 38.0154 69.0426C38.0964 69.1781 38.6365 69.5032 39.2306 69.7741L40.3107 70.2617L39.0956 70.3972L37.8804 70.5597L39.0416 70.9119C39.6626 71.1015 40.3107 71.1828 40.4457 71.1015C40.7968 70.8848 43.6862 72.3748 43.6862 72.7811C43.6862 73.2688 42.525 73.5126 40.9588 73.323C40.2297 73.2417 39.6356 73.1875 39.6356 73.2146C39.6356 73.2688 39.8787 74.3795 40.1757 75.734C40.7698 78.416 40.8508 81.3147 40.4457 83.9154C40.1487 85.7034 39.4466 87.7622 39.1226 87.7622C39.0145 87.7622 39.0415 86.8683 39.2036 85.8117C39.7166 82.019 38.7715 77.1698 36.7462 72.9979C35.7741 71.0202 34.2079 68.5279 33.6138 68.0132C33.0468 67.5527 33.0198 67.065 33.5598 67.2817C33.7759 67.363 33.9649 67.3088 33.9649 67.1463C33.9649 66.9838 33.7489 66.9025 33.4788 66.9567C33.2358 66.9838 32.2907 66.4419 31.3996 65.7376C28.2401 63.1911 25.7828 62.3783 22.6504 62.8389C21.5703 62.9743 20.2471 63.3536 19.707 63.6245C17.4927 64.7894 15.3864 67.8236 14.7654 70.7494C14.6033 71.535 14.3333 72.3206 14.1983 72.5102C14.0633 72.6999 14.0633 72.8624 14.1983 72.9708C14.3333 73.052 14.6033 73.8919 14.7924 74.8129C14.9544 75.7611 15.3864 77.0885 15.7105 77.7929L16.3046 79.0662H11.5519L11.1469 77.6574C10.9308 76.8718 10.6338 75.3277 10.4988 74.2169C10.2828 72.2393 10.2828 72.2935 10.2288 75.7882L10.2018 79.4183L8.09547 79.2287C6.96133 79.1203 5.9352 78.9849 5.80019 78.9036C5.58415 78.7682 5.53015 70.3159 5.74617 70.0992C5.82719 70.045 6.58328 70.0721 7.44739 70.1805C9.36464 70.4514 11.2819 70.6681 11.876 70.6681C12.119 70.6952 12.6861 70.9932 13.1181 71.3724L13.9012 72.0497V71.3724C13.9012 70.641 12.9291 70.1534 11.3629 70.1534C10.4448 70.1534 10.4448 70.1534 10.6068 69.1239C10.7148 68.5821 10.8768 67.8777 11.0119 67.5798C11.903 65.4667 12.7131 63.9225 13.3342 63.1911L14.0363 62.3242L12.335 62.4596C11.1469 62.5951 10.0667 62.4867 8.9326 62.1887C6.31325 61.5385 3.18085 59.6964 3.5589 59.0733C3.63991 58.9378 3.42387 58.7753 3.09984 58.6669C2.74878 58.5857 2.31673 58.2064 2.15471 57.8271C1.69565 56.8248 1.74965 56.7706 2.53275 57.3937C4.36899 58.8295 8.50053 59.6422 11.0389 59.0462C14.9004 58.1522 18.6809 54.9013 20.7061 50.7836C21.7863 48.5621 22.8934 45.7447 22.8934 45.2029C22.8934 45.0946 22.2993 45.2842 21.5973 45.6635C18.7079 47.1534 15.5485 46.6387 13.1181 44.2818C11.4169 42.6022 10.8228 40.7871 11.2819 38.6199C11.876 35.667 14.4143 34.1499 16.7096 35.369C17.8438 35.9379 18.4378 37.4008 17.9788 38.3761C17.5467 39.2701 16.9527 39.5139 16.9527 38.7824C16.9527 38.1864 16.1425 37.3737 15.5215 37.3737C15.0084 37.3737 14.2523 38.3761 14.2523 39.0804C14.2523 40.6246 15.8725 41.8708 17.7357 41.7353C21.2462 41.5186 22.0293 37.5634 19.1129 34.6647C17.6547 33.1747 15.8185 32.2265 14.4143 32.2265C13.1721 32.2265 13.2262 31.7389 14.5493 31.0887C16.2506 30.1947 18.8699 30.574 20.9222 32.0098C22.2994 32.9309 22.3264 32.7954 21.4352 30.1676C19.761 25.2371 16.8176 21.4445 12.7671 19.0605C12.092 18.6812 11.5519 18.3019 11.5519 18.2478C11.5519 18.004 13.1721 18.1936 15.0084 18.6812ZM17.7628 20.8485C17.7628 20.9839 17.8168 21.1194 17.8708 21.1194C17.9518 21.1194 18.0868 20.9839 18.1678 20.8485C18.2488 20.6859 18.1948 20.5776 18.0598 20.5776C17.8978 20.5776 17.7628 20.6859 17.7628 20.8485ZM16.7636 21.5528C16.8446 21.6341 17.0877 21.6612 17.2767 21.5799C17.4927 21.4986 17.4117 21.4174 17.1147 21.4174C16.8176 21.3903 16.6556 21.4715 16.7636 21.5528ZM20.3281 22.6635C20.5981 23.097 20.9492 23.5304 21.1382 23.693C21.3002 23.8284 21.5163 24.0993 21.5703 24.2619C21.7323 24.7224 25.3238 28.488 25.3238 28.2171C25.3238 28.0817 24.5947 27.1335 23.7035 26.104C22.6234 24.8308 22.1373 24.0722 22.2453 23.7743C22.3534 23.395 22.2453 23.2866 21.8133 23.2866C21.4892 23.2866 20.9762 22.9886 20.6791 22.6094C19.9771 21.7154 19.734 21.7425 20.3281 22.6635ZM25.5398 30.7094C25.3778 30.6011 25.2967 30.6824 25.3507 30.8449C25.5398 31.3596 25.9988 31.2242 26.0528 30.6824C26.1068 30.4114 26.0528 30.3573 25.9718 30.5469C25.8908 30.7094 25.7018 30.7907 25.5398 30.7094ZM25.5938 36.2901C25.5938 36.4256 25.7018 36.561 25.8638 36.561C25.9988 36.561 26.1339 36.4256 26.1339 36.2901C26.1339 36.1276 25.9988 36.0192 25.8638 36.0192C25.7018 36.0192 25.5938 36.1276 25.5938 36.2901ZM22.3534 39.4055C22.3534 39.6764 23.5685 40.0286 23.8385 39.8661C23.9736 39.7577 23.7305 39.5952 23.2985 39.5139C22.8394 39.4055 22.4614 39.3243 22.4074 39.2972C22.3804 39.2972 22.3534 39.3243 22.3534 39.4055ZM22.8934 40.4621C22.8934 40.5433 23.0014 40.6788 23.1635 40.7601C23.2985 40.8413 23.4335 40.7871 23.4335 40.6517C23.4335 40.4891 23.2985 40.3537 23.1635 40.3537C23.0014 40.3537 22.8934 40.4079 22.8934 40.4621ZM23.5685 41.4373C23.6495 41.5728 23.9196 41.7082 24.1356 41.7082C24.3516 41.7082 24.4596 41.5728 24.3786 41.4373C24.2976 41.2748 24.0276 41.1664 23.8116 41.1664C23.5955 41.1664 23.4875 41.2748 23.5685 41.4373ZM24.1356 42.3042C24.2166 42.4126 24.0006 42.5209 23.6495 42.5209C23.1365 42.548 23.1095 42.5751 23.4605 42.7919C23.7305 42.9544 24.2166 42.9544 24.7297 42.8189C25.1887 42.6835 25.6208 42.6293 25.7018 42.7106C25.8908 42.9002 27.7541 42.548 27.7541 42.3042C27.7541 42.1959 26.917 42.1146 25.8908 42.1146C24.8647 42.1146 24.0816 42.1959 24.1356 42.3042ZM21.0302 43.9567C20.3281 44.4444 19.518 44.7695 19.0049 44.7424C18.2218 44.7424 18.2218 44.7695 18.7619 45.0133C19.2209 45.23 19.626 45.1758 20.5171 44.7153C21.6243 44.1735 22.8934 43.2253 22.8934 42.9002C22.8934 42.7377 22.5694 42.9002 21.0302 43.9567ZM25.4588 48.7518C25.5398 48.8872 25.7828 48.9414 25.9988 48.8331C26.5659 48.6434 26.5119 48.4809 25.8368 48.4809C25.5398 48.4809 25.3507 48.5892 25.4588 48.7518ZM21.5433 55.091C22.5694 55.4432 22.7584 55.4432 22.4884 55.0097C22.4074 54.8472 21.9213 54.7117 21.4622 54.7388H20.5981L21.5433 55.091ZM37.0703 55.5244C36.9893 55.6599 37.0433 55.7953 37.1783 55.7953C37.3403 55.7953 37.4753 55.6599 37.4753 55.5244C37.4753 55.3619 37.4213 55.2535 37.3673 55.2535C37.2863 55.2535 37.1513 55.3619 37.0703 55.5244ZM37.8264 56.1204C37.9074 56.3372 37.9884 56.2559 37.9884 55.9579C38.0154 55.6599 37.9344 55.4973 37.8534 55.6057C37.7724 55.687 37.7454 55.9308 37.8264 56.1204ZM37.4753 56.879C37.4753 57.0144 37.5294 57.1499 37.5834 57.1499C37.6644 57.1499 37.7994 57.0144 37.8804 56.879C37.9614 56.7164 37.9074 56.6081 37.7724 56.6081C37.6104 56.6081 37.4753 56.7164 37.4753 56.879ZM34.721 57.475C34.91 57.6646 35.045 57.6917 35.045 57.5291C35.045 57.1499 34.721 56.8248 34.532 57.0144C34.478 57.0957 34.559 57.3124 34.721 57.475ZM14.9274 58.7753C14.8464 58.9108 14.9004 59.0462 15.0354 59.0462C15.1974 59.0462 15.3324 58.9108 15.3324 58.7753C15.3324 58.6128 15.2784 58.5044 15.2244 58.5044C15.1434 58.5044 15.0084 58.6128 14.9274 58.7753ZM29.3743 60.5091C29.3743 60.5904 29.4823 60.7258 29.6443 60.8071C29.7793 60.8884 29.9143 60.8342 29.9143 60.6987C29.9143 60.5362 29.7793 60.4007 29.6443 60.4007C29.4823 60.4007 29.3743 60.4549 29.3743 60.5091ZM17.4927 61.2135C18.0328 61.5656 18.3838 61.5656 18.1678 61.2135C18.0868 61.0509 17.7898 60.9426 17.5467 60.9426C17.1417 60.9426 17.1417 60.9967 17.4927 61.2135ZM24.1626 61.7553C24.2436 62.0533 24.3516 62.2971 24.4056 62.2971C24.4596 62.2971 24.5136 62.0533 24.5136 61.7553C24.5136 61.4573 24.4056 61.2135 24.2706 61.2135C24.1356 61.2135 24.0816 61.4573 24.1626 61.7553ZM22.8934 61.3218C22.8934 61.4031 23.0014 61.5385 23.1635 61.6198C23.2985 61.7011 23.4335 61.6469 23.4335 61.5115C23.4335 61.3489 23.2985 61.2135 23.1635 61.2135C23.0014 61.2135 22.8934 61.2676 22.8934 61.3218ZM18.1678 62.5409C18.0598 62.7847 18.1678 62.8389 18.4919 62.7034C19.0859 62.4325 19.626 62.4325 20.3281 62.6763C20.6791 62.8118 20.6521 62.7576 20.2201 62.4867C19.41 61.9991 18.3568 62.0262 18.1678 62.5409ZM17.7628 63.8142C17.7628 64.0309 17.8708 64.1934 18.0328 64.1934C18.1678 64.1934 18.3028 64.1392 18.3028 64.0851C18.3028 64.0309 18.3838 63.76 18.4648 63.5432C18.5999 63.2182 18.5189 63.1369 18.1948 63.2723C17.9518 63.3536 17.7628 63.5974 17.7628 63.8142ZM35.5851 66.0898C35.8011 66.2252 36.0982 66.3607 36.2602 66.3607C36.3952 66.3607 36.3412 66.2252 36.1252 66.0898C35.9091 65.9543 35.5851 65.8189 35.4501 65.8189C35.2881 65.8189 35.3691 65.9543 35.5851 66.0898ZM34.829 67.9861C35.4771 68.9072 36.1252 69.2323 36.1252 68.6634C36.1252 68.4196 35.9631 68.3383 35.7201 68.4196C35.3421 68.5821 35.2611 68.4737 35.207 67.6339C35.18 67.2276 34.748 66.9025 34.451 67.065C34.3429 67.1463 34.505 67.5527 34.829 67.9861ZM37.2053 67.8236C37.2053 67.9048 37.3133 68.0403 37.4753 68.1216C37.6104 68.2028 37.7454 68.1487 37.7454 68.0132C37.7454 67.8507 37.6104 67.7152 37.4753 67.7152C37.3133 67.7152 37.2053 67.7694 37.2053 67.8236Z" fill="#A1A1A1"/>
<path d="M55.8648 27.9462C56.0268 28.5964 56.4048 29.5716 56.6749 30.1405C57.2689 31.2513 57.1609 31.6847 56.3508 31.6847C55.7027 31.6847 55.3787 31.9285 53.4074 33.879C52.3273 34.9356 51.7872 35.6941 51.5982 36.4526C51.3552 37.455 51.3012 37.5092 50.41 37.4279C49.735 37.4008 49.5999 37.4279 49.897 37.6446C50.113 37.7801 50.4911 37.9155 50.7341 37.9155C51.0581 37.9155 51.2202 38.2135 51.3012 38.9992C51.3552 39.5952 51.3012 40.0828 51.2202 40.0828C50.167 40.0828 49.0869 38.2677 49.0869 36.561V35.4503L48.1417 36.1817C46.6836 37.2925 45.3874 39.2972 44.7393 41.4915C44.1992 43.2253 44.1722 43.6587 44.4153 45.1487C44.7933 47.2618 45.5494 48.8872 46.9266 50.4585C47.5207 51.1358 48.0067 51.7317 48.0067 51.7859C48.0067 51.8401 47.3046 51.8943 46.4405 51.9214C45.6034 51.9485 44.5503 52.0839 44.0912 52.2736C43.3621 52.5445 43.2271 52.5174 42.66 51.813C41.6879 50.621 40.4727 48.0745 39.9867 46.2324C39.1766 43.0086 40.0407 39.2972 42.255 36.3443C42.741 35.7212 43.1461 35.1523 43.1461 35.0981C43.1461 35.0439 42.147 34.9356 40.9048 34.8543C37.1513 34.6105 31.9126 32.3891 32.5337 31.3054C32.6147 31.1429 32.6147 31.0887 32.4797 31.1971C32.2367 31.4409 31.2645 30.9533 31.2645 30.6011C31.2645 30.4385 31.4806 30.4385 31.8586 30.6011C32.9118 31.0345 37.0433 31.6847 38.7445 31.6847C42.174 31.6847 47.0616 30.4114 52.2733 28.1358C53.9475 27.4044 55.3787 26.8084 55.4327 26.8084C55.4867 26.8084 55.6757 27.3231 55.8648 27.9462ZM53.3804 29.3278L54.0015 29.9238L53.5425 29.1653C53.2724 28.7589 53.0024 28.488 52.9214 28.5693C52.8404 28.6506 53.0564 29.0027 53.3804 29.3278ZM50.8151 31.6305C51.2742 32.064 51.3012 32.064 50.9501 31.4951C50.7611 31.17 50.5451 30.9533 50.4641 31.0345C50.383 31.0887 50.5451 31.3596 50.8151 31.6305ZM33.9649 32.4974C33.9649 32.6329 34.0999 32.7683 34.2619 32.7683C34.3969 32.7683 34.4509 32.6329 34.3699 32.4974C34.2889 32.3349 34.1539 32.2265 34.0729 32.2265C34.0189 32.2265 33.9649 32.3349 33.9649 32.4974ZM35.5851 33.1747C35.7741 33.3914 36.0442 33.581 36.1792 33.581C36.3412 33.581 36.3142 33.3914 36.1252 33.1747C35.9361 32.958 35.6661 32.7683 35.5311 32.7683C35.3691 32.7683 35.3961 32.958 35.5851 33.1747ZM45.7384 36.5339C45.7924 36.6152 46.0625 36.4526 46.3325 36.1817C46.7646 35.7212 46.7646 35.6941 46.1975 36.0463C45.8735 36.2359 45.6574 36.4526 45.7384 36.5339ZM42.39 37.6175C42.201 37.6175 42.12 37.753 42.201 37.9155C42.282 38.051 42.147 38.1864 41.9039 38.1864C41.1478 38.1864 41.8229 38.7012 42.822 38.8908C43.4971 39.0263 43.6862 38.9721 43.6862 38.647C43.6862 38.4303 43.8752 38.1864 44.0912 38.0781C45.1443 37.6717 44.2802 37.4279 42.39 37.6175Z" fill="#A1A1A1"/>
<path d="M31.1565 32.1994C32.1017 33.1205 32.5337 33.7436 33.2358 35.2878C34.0189 36.9132 34.1539 37.9155 33.6138 37.9155C33.4248 37.9155 33.1278 38.1594 32.9388 38.4573C32.7497 38.7553 32.4257 38.9992 32.2097 38.9992C31.9666 38.9992 31.8046 39.243 31.8046 39.6493C31.8046 40.435 32.2637 40.8142 32.6957 40.3808C32.8577 40.2182 33.1818 40.0828 33.3978 40.0828C34.0189 40.1099 32.9388 40.8955 32.2907 40.8955C32.0206 40.8955 31.8046 41.0039 31.8046 41.1664C31.8046 41.3019 31.9126 41.4373 32.0746 41.4373C32.2097 41.4373 32.3447 41.6811 32.3447 41.9791C32.3447 42.3313 32.5337 42.5209 32.8577 42.5209C33.1548 42.5209 33.4518 42.6293 33.5598 42.7918C33.7489 43.0898 34.505 42.846 34.505 42.4668C34.505 42.3042 34.3429 42.25 34.1539 42.3313C33.9919 42.3855 33.5868 42.3584 33.2898 42.2229C32.8848 42.0604 32.8577 42.0062 33.1818 42.0062C33.4248 41.9791 33.7759 41.7895 33.9649 41.5728C34.505 40.9226 34.721 41.0851 34.721 42.1417C34.721 42.6564 34.775 43.144 34.829 43.1982C34.883 43.2524 35.6661 42.8189 36.5302 42.25L38.1504 41.1664L38.3125 46.124L36.8813 47.4514C35.2341 48.9956 34.505 49.5645 34.1269 49.5645C33.9919 49.5645 34.0729 49.402 34.3429 49.2123C34.802 48.8601 34.775 48.833 33.9919 48.508C33.5328 48.2912 33.1548 48.0203 33.1548 47.8849C33.1548 47.7494 33.3168 47.7223 33.4788 47.8307C33.7489 47.9932 33.7489 47.9391 33.4788 47.6411C33.3168 47.4514 33.1548 47.0722 33.1548 46.8283C33.1548 46.0969 32.6957 45.9614 31.7776 46.422L30.9405 46.8283L31.1295 46.0969C31.3726 45.1487 31.4806 45.0675 31.8586 45.4467C32.2367 45.826 32.8848 45.3655 32.8577 44.7153C32.8577 44.4444 32.8037 44.4173 32.6957 44.6069C32.6417 44.7965 32.4527 44.9591 32.2907 44.9591C32.1287 44.9591 32.2097 44.7153 32.4797 44.4173C32.7497 44.1193 33.0738 43.9567 33.2088 44.038C33.3708 44.1464 33.3438 43.9296 33.1548 43.6046C32.8577 43.0357 32.8037 43.0357 32.5607 43.442C32.4257 43.6858 32.2097 43.8213 32.0476 43.74C31.9126 43.6317 31.8046 43.7129 31.8046 43.8484C31.8046 44.0109 31.6156 44.1464 31.3726 44.1464C31.0215 44.1464 30.9945 43.9567 31.1835 42.9815C31.2915 42.3584 31.3726 40.137 31.3726 38.051C31.3456 35.8296 31.4266 34.6376 31.5346 35.1523C31.8316 36.4256 32.1286 36.5881 31.9936 35.3961C31.9396 34.8543 31.9936 34.3938 32.1287 34.3938C32.2637 34.3938 32.2907 34.2583 32.2097 34.1229C32.1286 33.9603 31.8046 33.8519 31.5076 33.8519C31.2375 33.8519 30.9945 33.7436 30.9945 33.581C30.9945 33.4456 31.2105 33.4185 31.4536 33.4998C31.8856 33.6623 31.9126 33.6352 31.5346 33.1476C31.3185 32.8767 30.9405 32.4974 30.7245 32.3078C30.5084 32.1452 30.4004 31.9285 30.4814 31.8472C30.5624 31.766 30.8595 31.9285 31.1565 32.1994Z" fill="#A1A1A1"/>
<path d="M57.0529 38.5657C58.1871 39.1888 58.8621 39.7848 59.2672 40.5162C60.2393 42.223 61.6975 43.3337 63.0477 43.3337C63.8578 43.3337 64.3709 43.1711 64.7759 42.7648C65.262 42.2771 65.37 42.25 65.64 42.6022C65.8291 42.846 66.2071 43.0628 66.5042 43.1169C66.8282 43.1711 67.0172 43.4149 67.0172 43.6858C66.9902 43.9838 67.1522 44.1464 67.5033 44.1464C67.9353 44.1464 67.9893 44.0651 67.7463 43.7671C67.5033 43.4691 67.5573 43.3608 67.9083 43.2795C68.1784 43.1982 68.6374 43.2524 68.9345 43.3608C69.2315 43.4691 69.3125 43.5775 69.0965 43.5775C68.8535 43.6046 68.8265 43.7129 69.0155 43.9297C69.5555 44.6069 68.6104 46.1782 67.2062 46.9638C65.667 47.8036 65.262 47.8307 64.2629 47.2076C62.6696 46.1782 62.4536 45.3384 63.7228 45.0133C64.3709 44.8507 64.7759 44.8778 65.208 45.1758C65.613 45.4196 65.8291 45.4467 65.8291 45.2571C65.8291 45.0946 65.667 44.9591 65.451 44.9591C65.235 44.9591 65.019 44.7966 64.9379 44.5798C64.8569 44.3631 64.5059 44.038 64.1548 43.8484C63.6418 43.6046 63.5878 43.6046 63.8578 43.9026C64.2629 44.3089 64.3169 44.7966 63.9658 44.5527C63.8308 44.4715 63.6418 44.5257 63.5338 44.6882C63.4528 44.8237 63.0747 44.9591 62.6967 44.9591C62.3456 44.9591 62.0486 45.0133 62.0486 45.0946C62.0486 45.3655 62.6966 46.5845 62.8317 46.5845C62.9127 46.6116 63.3447 46.9096 63.8038 47.2889L64.6139 47.9933L63.0747 47.8578C59.8613 47.5869 56.3238 45.0133 54.8926 41.8979C54.2175 40.4892 53.9475 37.9968 54.4876 38.3219C54.6226 38.4032 54.7576 38.2948 54.7576 38.0781C54.7576 37.455 55.2437 37.5363 57.0529 38.5657ZM61.7245 44.2818C61.6435 44.634 61.6705 44.8778 61.7785 44.8237C62.0756 44.634 62.3186 43.6046 62.0486 43.6046C61.9406 43.6046 61.7785 43.9026 61.7245 44.2818ZM66.1261 45.8531C66.1801 45.8802 66.4501 46.0969 66.7202 46.2865C67.1252 46.6116 67.1792 46.6116 67.0172 46.2053C66.9362 45.9615 66.6662 45.7718 66.4231 45.7718C66.2071 45.7718 66.0721 45.7989 66.1261 45.8531ZM61.1034 46.2053C60.5094 46.8013 60.7524 46.9367 61.5895 46.5033C61.9946 46.2865 62.2376 46.0427 62.1296 45.9615C61.8595 45.6635 61.5895 45.7447 61.1034 46.2053Z" fill="#A1A1A1"/>
<path d="M34.3429 38.8908C34.586 39.839 34.3969 39.9744 34.0189 39.1346C33.8569 38.7824 33.8299 38.4032 33.9379 38.3219C34.0729 38.2677 34.2619 38.5115 34.3429 38.8908Z" fill="#A1A1A1"/>
<path d="M65.64 39.541C66.5042 39.8119 67.4763 40.2724 67.7733 40.5433C68.3944 41.1122 69.1505 42.4397 69.0155 42.7918C68.9615 42.9002 68.1514 42.7106 67.1792 42.3584C65.8831 41.8708 65.316 41.4915 64.965 40.8955C64.7219 40.435 64.1818 39.9473 63.8038 39.7577C63.4258 39.5952 63.1287 39.3513 63.1287 39.2159C63.1287 38.8908 63.9118 38.9721 65.64 39.541Z" fill="#A1A1A1"/>
<path d="M49.0599 41.356C50.5991 42.0875 51.6522 42.9002 53.4074 44.6611C55.5137 46.7471 55.8648 47.2347 56.7559 49.429C58.1871 52.8966 58.5381 54.4679 58.5381 57.502C58.5381 60.6175 58.079 62.7305 56.7829 65.4125C55.7567 67.5256 53.3264 70.6952 52.7323 70.6952C52.2193 70.6952 52.2193 70.4243 52.7323 69.6928C53.4344 68.6905 54.7846 65.8459 55.2437 64.356C55.5947 63.3265 55.6757 62.0804 55.6487 59.4526C55.6217 56.1204 55.5677 55.8224 54.7036 53.7635C53.5425 50.9732 52.1653 48.9143 50.4641 47.4785C49.0869 46.2865 46.8456 44.9591 46.2245 44.9591C45.7114 44.9591 45.7384 43.1982 46.2785 41.627C46.5215 40.9226 46.7916 40.3537 46.8726 40.3537C46.9806 40.3537 47.9527 40.8142 49.0599 41.356Z" fill="#A1A1A1"/>
<path d="M30.9675 45.3926C30.9675 45.6906 30.8865 45.7718 30.8055 45.5551C30.7245 45.3655 30.7515 45.1217 30.8325 45.0404C30.9135 44.932 30.9945 45.0946 30.9675 45.3926Z" fill="#A1A1A1"/>
<path d="M32.5067 47.2618C32.7767 47.4785 32.8847 47.6682 32.7227 47.6682C32.5607 47.6682 32.2637 47.4785 32.0746 47.2618C31.6426 46.7471 31.8316 46.7471 32.5067 47.2618Z" fill="#A1A1A1"/>
<path d="M30.1574 47.8849C30.1844 48.0745 30.0764 48.4809 29.9144 48.7518C29.7253 49.1311 29.7793 49.2665 30.1844 49.3749C30.4814 49.4561 30.7245 49.3749 30.7245 49.2394C30.7245 49.0498 31.1835 48.9956 31.9396 49.0769C33.0738 49.2123 33.5868 48.9685 32.8037 48.6705C32.6417 48.5892 32.7497 48.508 33.0738 48.508C33.7759 48.4809 34.1809 48.9956 33.6948 49.2936C33.1278 49.6458 34.3969 49.9167 35.018 49.5916C35.7741 49.1581 37.3673 49.2394 38.2855 49.7C38.9875 50.0521 39.9057 51.0545 39.9057 51.4608C39.9057 51.5421 39.1226 51.5963 38.2044 51.6234C35.2881 51.6776 32.6687 53.4926 31.6156 56.283C31.3725 56.9331 31.0485 57.3937 30.8865 57.3124C28.8882 56.4184 27.268 55.7953 26.863 55.7953C26.2689 55.7953 26.2689 55.8766 27.187 54.0074C27.6191 53.1134 28.3212 51.6234 28.7532 50.6481C29.1853 49.6729 29.6713 48.5892 29.8333 48.21C30.0224 47.8307 30.1574 47.6953 30.1574 47.8849ZM34.775 50.0792C34.775 50.2147 34.964 50.4043 35.207 50.4856C35.5851 50.621 35.6121 50.5939 35.3151 50.2418C34.937 49.7812 34.775 49.727 34.775 50.0792ZM29.9144 50.2689C29.9144 50.323 30.2384 50.3772 30.6165 50.3772C30.9945 50.3772 31.2375 50.2689 31.1565 50.1334C30.9945 49.9167 29.9144 50.025 29.9144 50.2689Z" fill="#A1A1A1"/>
<path d="M31.4266 48.2642C31.5346 48.4538 31.5346 48.5351 31.3996 48.4267C31.2915 48.3183 30.9945 48.3725 30.7515 48.5621C30.3734 48.8601 30.3734 48.8331 30.6975 48.3996C31.1295 47.8578 31.1835 47.8307 31.4266 48.2642Z" fill="#A1A1A1"/>
<path d="M47.7367 52.3819C48.4118 52.5445 50.005 53.2488 51.2742 53.9532C53.3534 55.1181 53.6235 55.3619 53.8935 56.3101C54.0825 56.879 54.2175 57.6646 54.2175 58.0709C54.2175 58.7211 54.1365 58.7753 53.4614 58.6128C50.221 57.9084 47.2236 56.4726 45.2254 54.7117C44.3883 53.9261 43.6862 53.2217 43.6862 53.1134C43.6862 52.9237 44.8473 52.4632 45.9815 52.1923C46.2785 52.111 47.0616 52.1923 47.7367 52.3819Z" fill="#A1A1A1"/>
<path d="M70.4197 52.9237C70.4197 53.3572 68.8805 54.793 67.1792 55.985C65.559 57.0686 63.0207 58.1793 61.4275 58.4773L60.1583 58.694V56.0662H61.3735C62.0486 56.0662 62.5886 56.1746 62.5886 56.3372C62.5886 56.4726 62.3456 56.6081 62.0756 56.6081C61.7515 56.6081 61.4545 56.9061 61.2655 57.4208C60.9144 58.4502 61.2925 58.5044 61.7785 57.475C61.9676 57.0415 62.1566 56.879 62.2376 57.0957C62.3186 57.2853 62.2106 57.6104 62.0486 57.8542C61.7515 58.1793 61.7785 58.2064 62.1566 58.0709C62.3996 57.9897 62.5886 57.7459 62.5886 57.5291C62.5886 57.3395 62.8317 56.9873 63.1557 56.7706C63.4798 56.5539 63.6688 56.283 63.5878 56.1475C63.5068 56.0121 64.4249 55.4973 65.64 54.9826C66.8552 54.495 68.3674 53.7365 68.9885 53.303C70.2577 52.4361 70.4197 52.409 70.4197 52.9237Z" fill="#A1A1A1"/>
<path d="M6.42128 62.8389C6.63731 62.9743 7.55544 63.2182 8.47356 63.4078L10.1748 63.7329V68.2299L8.90561 68.0945C7.01537 67.8507 5.90822 67.4714 5.8002 66.9567C5.58418 66.1981 5.63818 62.866 5.85422 62.7305C5.96223 62.6493 6.20526 62.7034 6.42128 62.8389ZM6.96136 64.7352C7.17738 64.8707 7.47443 65.0061 7.63644 65.0061C7.77147 65.0061 7.71745 64.8707 7.50142 64.7352C7.2854 64.5998 6.96136 64.4643 6.82634 64.4643C6.66432 64.4643 6.74533 64.5998 6.96136 64.7352ZM8.85161 65.1145C8.85161 65.1687 9.06763 65.3854 9.31067 65.575C9.74272 65.9272 9.76973 65.9001 9.41867 65.4667C9.06763 65.0332 8.85161 64.8978 8.85161 65.1145Z" fill="#A1A1A1"/>
<path d="M25.1887 66.0085C26.5659 66.171 28.8072 67.4714 29.9414 68.7717C31.1295 70.1534 32.3177 72.4561 33.5058 75.7069C34.3699 78.0909 33.8839 84.5114 32.6147 87.3559C31.4806 89.8753 28.2941 97.7587 28.2941 98.0025C28.2941 98.165 28.1321 98.4089 27.9431 98.5172C27.7811 98.6256 27.592 98.9778 27.565 99.2757C27.565 99.5737 27.457 100.061 27.376 100.359C25.5938 106.401 24.5947 111.439 24.2706 116.18C24.1086 118.456 23.9736 120.65 23.9736 121.084C23.9736 121.598 23.8116 121.896 23.4875 121.978C23.0555 122.086 23.0555 122.113 23.4875 122.14C23.8926 122.167 23.9736 122.438 23.9736 123.847C23.9736 126.068 24.7027 134.575 25.0537 136.661C25.5668 139.722 25.1887 139.343 23.8656 135.523C22.5424 131.649 21.6243 127.585 21.0572 122.926C20.8682 121.382 20.8952 121.084 21.2462 121.002C21.5973 120.894 21.5973 120.867 21.1922 120.84C20.8141 120.813 20.7332 120.542 20.7061 119.377C20.7061 118.618 20.6251 117.02 20.5711 115.855C20.4361 113.742 20.8682 104.613 21.1652 103.61C21.3812 102.879 23.6765 101.768 24.1626 102.174C24.3516 102.337 24.5136 102.635 24.5136 102.825C24.5136 103.041 24.6757 103.123 24.9457 103.014C25.3507 102.852 25.3508 102.825 24.9187 102.5C24.4326 102.147 24.4596 102.093 25.0537 101.578C25.4048 101.28 25.5668 101.037 25.4048 101.037C25.2698 101.037 25.0537 101.118 24.9457 101.226C24.8377 101.362 24.2706 101.443 23.7035 101.47C23.0825 101.47 22.4074 101.687 22.0833 101.985C21.7863 102.256 21.4893 102.418 21.4082 102.364C21.3542 102.283 21.4622 101.253 21.6783 100.088C22.1913 97.2169 22.1913 97.244 21.3812 97.244C20.6521 97.244 20.6521 97.244 20.8412 95.6998C21.1382 93.1804 21.1922 93.0991 22.8664 92.3135C23.8115 91.8529 25.0537 90.9318 26.0528 89.9024L27.7001 88.2499L27.8891 89.1168C27.9971 89.5773 28.2401 90.2817 28.4562 90.688C28.9962 91.7446 28.9422 92.0426 28.0241 92.8282C27.565 93.1804 27.214 93.6409 27.214 93.8035C27.214 93.966 27.592 93.7222 28.0241 93.2075C28.5102 92.6656 29.0232 92.3676 29.2393 92.476C29.5903 92.6115 29.5903 92.476 29.2123 91.6091C27.8081 88.3582 27.6461 87.7081 28.0511 87.383C28.2671 87.2204 28.4292 86.9495 28.4292 86.8141C28.4562 86.6515 28.6992 85.7575 29.0232 84.7823C29.7793 82.3983 30.0224 79.8247 29.6713 77.9013C28.8072 73.2417 25.8098 70.0721 22.6774 70.5597C21.1922 70.7764 20.1931 71.7517 20.1931 72.9979C20.1931 73.8377 20.1391 73.8919 19.0319 74.0002C17.6548 74.1628 17.1417 74.0002 17.3307 73.5126C17.4117 73.2959 17.3037 73.1333 17.0877 73.1333C16.5476 73.1333 16.8176 71.2641 17.5197 69.8283C18.7889 67.3088 22.0563 65.6834 25.1887 66.0085ZM22.3534 67.2005C22.3534 67.3359 22.5154 67.4443 22.7314 67.4443C22.9474 67.4443 23.2985 67.5256 23.5415 67.6068C23.8116 67.7152 23.9736 67.6339 23.9736 67.4172C23.9736 67.1734 23.6495 67.0379 23.1635 67.0108C22.7044 66.9838 22.3534 67.0921 22.3534 67.2005ZM28.0241 67.9861C28.0241 68.1216 28.2401 68.257 28.4832 68.257C28.8882 68.257 28.9152 68.2028 28.5642 67.9861C28.0511 67.661 28.0241 67.661 28.0241 67.9861ZM19.653 67.8236C19.653 67.8777 19.842 68.0132 20.0851 68.0945C20.3011 68.1757 20.4091 68.1487 20.3281 67.9861C20.1661 67.7152 19.653 67.6068 19.653 67.8236ZM21.0032 68.9072C21.0032 69.3136 21.6513 69.6928 21.8943 69.4219C22.0833 69.2594 21.5163 68.555 21.1922 68.5279C21.0842 68.5279 21.0032 68.6905 21.0032 68.9072ZM23.2715 69.2052C24.2436 69.7199 24.4056 69.7199 23.9736 69.2052C23.7845 68.9885 23.3795 68.7988 23.0555 68.7988C22.5694 68.7988 22.5964 68.853 23.2715 69.2052ZM25.7288 69.747C25.1347 69.9637 24.8917 70.1263 25.1887 70.1263C25.4858 70.1263 26.0258 69.9637 26.4039 69.747C27.268 69.2594 27.079 69.2594 25.7288 69.747ZM29.1043 70.4243C29.1043 70.5597 29.2123 70.6952 29.3743 70.6952C29.5093 70.6952 29.6443 70.5597 29.6443 70.4243C29.6443 70.2617 29.5093 70.1534 29.3743 70.1534C29.2123 70.1534 29.1043 70.2617 29.1043 70.4243ZM30.6164 72.2935C30.5354 72.429 30.7515 72.5915 31.1295 72.6457C31.6696 72.7541 31.7506 72.727 31.5076 72.429C31.1565 71.9955 30.8325 71.9413 30.6164 72.2935ZM30.8325 81.694C31.6426 82.2629 31.9666 82.1545 31.2375 81.5585C30.8865 81.2605 30.5354 81.098 30.4544 81.1792C30.3734 81.2334 30.5624 81.4772 30.8325 81.694ZM32.4797 83.1568C32.5607 83.2923 32.7767 83.4277 32.9118 83.4277C33.0738 83.4277 33.1008 83.2923 33.0198 83.1568C32.9388 82.9943 32.7227 82.8859 32.5877 82.8859C32.4257 82.8859 32.3987 82.9943 32.4797 83.1568ZM31.0755 87.6539C31.1565 87.7352 31.3996 87.7622 31.5886 87.681C31.8046 87.5997 31.7236 87.5184 31.4266 87.5184C31.1295 87.4913 30.9675 87.5726 31.0755 87.6539ZM27.619 95.3205C27.7271 95.9707 27.6731 96.4312 27.511 96.5667C27.349 96.648 26.944 97.244 26.6469 97.867C26.3229 98.4901 25.9178 99.1132 25.7558 99.2216C25.5668 99.3841 25.5938 99.4112 25.8638 99.3299C26.1879 99.2487 27.322 97.7045 27.9161 96.4854C28.1051 96.1332 27.8351 94.264 27.5921 94.264C27.511 94.264 27.511 94.7516 27.619 95.3205ZM26.1339 100.766C26.4309 100.955 26.5929 100.874 26.7279 100.549C27.106 99.6279 26.944 99.3841 26.3499 99.953C25.8368 100.441 25.8098 100.549 26.1339 100.766ZM24.6217 100.359C24.2706 100.739 24.0816 101.037 24.2166 101.037C24.3246 101.037 24.7027 100.739 25.0537 100.359C25.4048 99.9801 25.5938 99.6821 25.4588 99.6821C25.3508 99.6821 24.9727 99.9801 24.6217 100.359ZM25.8638 102.391C25.8638 102.527 25.9178 102.662 25.9718 102.662C26.0528 102.662 26.1879 102.527 26.2689 102.391C26.3499 102.229 26.2959 102.12 26.1609 102.12C25.9988 102.12 25.8638 102.229 25.8638 102.391ZM21.2462 113.959C21.5433 114.555 23.4335 115.232 23.7846 114.88C23.9196 114.744 23.8926 114.555 23.7305 114.474C23.5685 114.365 23.4335 114.392 23.4335 114.555C23.4335 114.744 23.1905 114.744 22.6774 114.528C21.6513 114.067 21.2462 113.661 22.0563 113.851C22.4074 113.932 22.5964 113.905 22.4614 113.769C22.2183 113.552 21.2192 113.282 21.0572 113.39C21.0032 113.417 21.0842 113.688 21.2462 113.959Z" fill="#A1A1A1"/>
<path d="M6.09723 68.0403C6.15125 68.4466 6.44829 68.5279 8.1225 68.5279H10.1208L10.1748 70.045L8.1225 69.8554C7.01535 69.747 6.04324 69.5844 5.96223 69.5303C5.90822 69.449 5.88121 68.9885 5.96223 68.4737C6.01624 67.9861 6.09723 67.7965 6.09723 68.0403Z" fill="#A1A1A1"/>
<path d="M17.4117 74.7046C17.5737 75.3818 17.8978 75.4902 18.1408 74.8942C18.2218 74.6504 18.6269 74.4879 19.221 74.4879C20.0851 74.4879 20.2201 74.5962 20.7062 75.6798C21.0572 76.4926 21.5163 77.0344 22.1373 77.3595C22.6234 77.6033 23.0825 77.8471 23.1095 77.8742C23.3525 78.0909 23.6225 79.9872 23.5145 80.4478C23.3795 80.9083 23.2175 80.9625 22.3804 80.827C21.1922 80.6103 21.0842 80.5291 21.4893 80.1227C22.0023 79.608 21.8673 79.4454 20.9222 79.2558C19.761 79.0391 18.2218 77.4678 18.2218 76.4926C18.2218 76.032 18.0598 75.734 17.7358 75.6527C17.2227 75.5173 16.7636 74.5691 17.0607 74.2711C17.1687 74.1899 17.3037 74.3795 17.4117 74.7046ZM19.14 77.7658C19.572 78.0367 19.761 77.8742 19.518 77.4949C19.437 77.3324 19.221 77.2782 19.0589 77.3595C18.8969 77.4678 18.9239 77.6033 19.14 77.7658Z" fill="#A1A1A1"/>
<path d="M16.8176 79.6351C17.1687 80.204 19.14 80.9896 20.2201 80.9896C21.5703 80.9896 23.1635 81.5043 23.1635 81.9649C23.1635 82.5609 21.9213 84.0508 21.0032 84.5385C18.5729 85.8388 14.8194 84.403 12.7401 81.3689C12.173 80.5561 11.795 79.8518 11.849 79.7976C12.119 79.5809 13.9823 79.4183 13.9823 79.6351C13.9823 79.7434 14.2793 79.8247 14.6304 79.7976C14.9814 79.7976 15.2244 79.6892 15.1434 79.5538C15.0894 79.4454 15.3864 79.3642 15.8455 79.3642C16.2776 79.3642 16.7366 79.4996 16.8176 79.6351Z" fill="#A1A1A1"/>
<path d="M10.2018 84.4301C10.2018 87.0037 10.1208 89.1168 10.0397 89.1168C9.76971 89.1168 6.61029 86.787 6.07022 86.2181C5.66518 85.7575 5.61116 85.2428 5.66518 82.7234L5.74619 79.7705H10.2018V84.4301Z" fill="#A1A1A1"/>
<path d="M1.56062 83.0756C3.96394 86.6515 8.04147 90.1191 12.038 91.9613L13.7392 92.7469L13.5502 93.966C13.2532 96.3229 13.2802 96.2687 11.876 95.456C6.58328 92.3676 1.50662 86.489 0.102448 81.8565C-0.248611 80.7729 0.318466 81.2334 1.56062 83.0756Z" fill="#A1A1A1"/>
<path d="M19.437 87.4101C20.1661 87.4642 20.7332 87.5726 20.7332 87.6539C20.7332 87.9248 18.5729 101.199 18.3568 102.12C18.2218 102.825 18.0058 103.096 17.5467 103.15C17.2227 103.204 17.0067 103.339 17.0877 103.475C17.1687 103.61 17.4117 103.664 17.6277 103.556C18.1678 103.366 18.1408 104.017 17.5737 107.863C16.9527 112.117 16.9527 124.389 17.5737 128.29C18.4919 133.87 19.68 139.207 20.7872 142.621C21.4082 144.544 21.9213 146.197 21.9483 146.278C21.9483 146.359 22.1103 146.657 22.2454 146.955C22.4074 147.253 22.6234 147.822 22.7314 148.228C23.0555 149.61 22.2454 149.068 21.1112 147.145C17.6007 141.239 14.3873 130.538 13.4422 121.625C12.7671 115.232 13.0641 104.694 13.9013 104.179C14.1983 104.017 14.2253 103.908 13.9823 103.746C13.7663 103.61 13.7932 103.448 14.1173 103.096C14.5223 102.689 14.5223 102.662 14.1173 102.662C13.7662 102.662 13.6852 102.5 13.8203 102.039C13.9283 101.714 14.0363 100.847 14.0903 100.116C14.1443 99.3841 14.6574 96.1874 15.2244 92.9907L16.2506 87.2204L17.1957 87.2746C17.7358 87.3017 18.7349 87.3559 19.437 87.4101ZM15.3324 98.3005C15.3324 98.4359 15.6025 98.5985 15.9265 98.6798C16.5206 98.8423 16.5206 98.8423 16.0345 98.463C15.4135 98.0025 15.3324 97.9754 15.3324 98.3005ZM14.3873 100.766C14.3063 100.901 14.4143 101.037 14.6574 101.037C14.9004 101.037 15.0084 100.901 14.9274 100.766C14.8464 100.603 14.7114 100.495 14.6574 100.495C14.6033 100.495 14.4683 100.603 14.3873 100.766ZM14.1443 101.822C13.8473 102.283 14.8194 102.391 15.4135 101.985C15.9805 101.578 15.9805 101.578 15.1434 101.578C14.6573 101.578 14.2253 101.687 14.1443 101.822ZM15.0624 103.204C15.2784 103.339 15.7105 103.448 16.0075 103.448H16.5476L16.0075 103.204C15.7105 103.068 15.2784 102.96 15.0624 102.96C14.7114 102.933 14.7114 102.96 15.0624 103.204ZM13.9823 106.292C13.9823 106.346 14.1713 106.536 14.3873 106.726C14.7114 106.997 14.7924 106.997 14.7924 106.617C14.7924 106.373 14.6034 106.184 14.3873 106.184C14.1713 106.184 13.9823 106.238 13.9823 106.292ZM13.4422 110.22C13.4422 110.491 14.4953 110.952 14.9004 110.843C15.0084 110.789 15.2784 110.952 15.4405 111.196C15.7105 111.575 15.7645 111.575 15.7915 111.06C15.8185 110.762 15.7645 110.545 15.6565 110.627C15.5485 110.681 15.0894 110.573 14.6574 110.383C13.6582 109.922 13.4422 109.895 13.4422 110.22Z" fill="#A1A1A1"/>
<path d="M7.90648 94.5349C8.93262 95.4289 9.87773 96.1603 9.98575 96.1603C10.1208 96.1603 10.2018 97.3252 10.2018 98.761C10.2018 101.145 10.1478 101.362 9.71571 101.172C9.47267 101.064 9.01363 100.928 8.71658 100.847C6.07024 100.251 5.93523 100.197 5.77319 99.3028C5.55717 98.0838 5.61118 92.9095 5.82721 92.9095C5.93523 92.9095 6.85333 93.6409 7.90648 94.5349Z" fill="#A1A1A1"/>
<path d="M7.23138 100.793C7.74445 100.928 8.63556 101.172 9.17563 101.362L10.2018 101.66V104.315C10.2018 106.157 10.0938 106.997 9.85071 107.078C9.58067 107.186 9.58067 107.24 9.85071 107.24C10.2018 107.267 10.3638 109.164 10.0397 109.164C9.93173 109.164 9.41867 108.893 8.90559 108.568C8.36552 108.243 8.04147 108.134 8.1765 108.351C8.33852 108.622 8.1765 108.676 7.25838 108.541C5.63817 108.324 6.07022 108.595 8.2305 109.164L10.0668 109.651L10.0938 114.284C10.1478 118.862 10.1207 118.971 9.49966 119.594C8.77057 120.325 8.58156 121.111 9.25665 120.542C9.47267 120.352 9.58067 120.108 9.49966 119.973C9.41866 119.838 9.55368 119.729 9.76971 119.729C10.1478 119.729 10.2018 121.3 10.2018 134.358V148.987H5.61116L5.63817 145.384C5.66516 143.433 5.77318 141.51 5.8812 141.131C6.07022 140.508 6.09723 140.508 6.12424 141.049C6.15123 141.375 6.25925 141.7 6.39427 141.808C6.82632 142.052 6.6373 140.751 6.17824 140.21C5.66518 139.614 5.44914 134.954 5.74617 130.62C5.9082 128.236 6.01622 127.802 6.47528 127.558C6.77232 127.396 7.09636 127.342 7.17737 127.45C7.3934 127.667 6.82632 128.561 6.50227 128.479C6.36726 128.452 6.25925 128.642 6.23224 128.913C6.20525 129.319 6.28625 129.292 6.93434 128.75C7.90646 127.883 7.82545 126.8 6.79932 126.989C6.44827 127.044 6.15123 127.233 6.15123 127.369C6.15123 127.504 6.0162 127.531 5.85419 127.423C5.63817 127.287 5.58417 124.47 5.71918 117.21C5.80019 111.71 5.9082 107.132 5.96222 107.078C6.04323 107.024 6.58328 107.186 7.20438 107.43C7.82545 107.674 8.39253 107.809 8.47354 107.728C8.66257 107.538 6.82632 106.726 6.25925 106.726C5.98921 106.726 5.8812 106.346 5.85419 105.425C5.74617 101.633 5.77319 100.684 6.01622 100.603C6.15125 100.576 6.71831 100.657 7.23138 100.793ZM7.23138 106.184C6.74532 106.509 7.17737 106.509 7.90646 106.184C8.25751 106.021 8.31152 105.94 8.04149 105.94C7.82545 105.94 7.4474 106.048 7.23138 106.184ZM6.15123 110.573C6.15123 110.708 6.34026 110.789 6.5833 110.789C7.04236 110.789 7.82545 110.112 7.60942 109.895C7.42039 109.733 6.15123 110.329 6.15123 110.573ZM6.25925 113.688C6.44827 113.878 6.96133 113.498 6.96133 113.173C6.96133 113.011 6.79932 113.011 6.55629 113.227C6.31325 113.417 6.20523 113.634 6.25925 113.688ZM7.36639 115.124C7.4474 115.259 7.79845 115.53 8.1225 115.693C8.68956 115.964 8.68956 115.936 8.06848 115.422C7.3934 114.799 7.09636 114.69 7.36639 115.124ZM8.63556 116.749C8.25751 116.749 8.28452 116.858 8.77058 117.345C9.12163 117.67 9.47267 117.86 9.58069 117.724C9.68871 117.616 9.60768 117.426 9.39166 117.291C9.12163 117.128 9.09462 117.02 9.31065 117.02C9.52669 117.02 9.58069 116.83 9.47267 116.56C9.36465 116.262 9.25664 116.234 9.17563 116.424C9.12163 116.614 8.87859 116.749 8.63556 116.749ZM8.71657 121.625C8.63556 121.761 8.68956 121.896 8.82458 121.896C8.9866 121.896 9.12163 121.761 9.12163 121.625C9.12163 121.463 9.06761 121.355 9.01361 121.355C8.9326 121.355 8.79758 121.463 8.71657 121.625ZM8.31152 122.736C8.31152 122.899 8.41953 122.926 8.58154 122.845C8.71657 122.763 8.85159 122.547 8.85159 122.411C8.85159 122.249 8.71657 122.221 8.58154 122.303C8.41953 122.384 8.31152 122.601 8.31152 122.736ZM6.5833 147.362C6.96135 147.741 9.6617 148.174 9.6617 147.876C9.6617 147.741 9.25664 147.632 8.77058 147.605C8.31152 147.578 7.60944 147.47 7.23138 147.362C6.28625 147.064 6.28625 147.064 6.5833 147.362Z" fill="#A1A1A1"/>
</svg>
