<?xml version="1.0" standalone="no"?>
<!DOCTYPE svg PUBLIC "-//W3C//DTD SVG 20010904//EN"
 "http://www.w3.org/TR/2001/REC-SVG-20010904/DTD/svg10.dtd">
<svg class="Icon" version="1.0" xmlns="http://www.w3.org/2000/svg"
 width="90.000000pt" height="90.000000pt" viewBox="0 0 90.000000 90.000000"
 preserveAspectRatio="xMidYMid meet">

<g transform="translate(0.000000,90.000000) scale(0.100000,-0.100000)"
fill="#000000" stroke="none">
<path d="M355 796 c-107 -34 -186 -102 -232 -201 -24 -51 -28 -73 -28 -145 0
-72 4 -94 28 -145 16 -33 40 -72 54 -87 l26 -27 41 35 c44 38 145 74 206 74
61 0 162 -36 206 -74 l41 -35 26 27 c14 15 38 54 54 87 24 51 28 73 28 145 0
72 -4 94 -28 145 -30 65 -81 124 -138 160 -78 50 -199 68 -284 41z m179 -205
c28 -29 31 -37 31 -96 0 -60 -3 -67 -33 -97 -28 -28 -39 -33 -82 -33 -43 0
-54 5 -82 33 -30 30 -33 37 -33 96 0 55 4 68 25 91 33 36 57 46 104 41 27 -3
49 -14 70 -35z"/>
<path d="M410 550 c-41 -41 -14 -130 40 -130 32 0 60 36 60 75 0 39 -28 75
-60 75 -11 0 -29 -9 -40 -20z"/>
<path d="M374 226 c-61 -20 -104 -48 -104 -69 0 -12 16 -25 48 -40 67 -31 197
-31 265 0 65 30 64 53 -7 88 -64 31 -145 40 -202 21z"/>
</g>
</svg>
