<svg width="270" height="270" viewBox="0 0 270 270" fill="none" xmlns="http://www.w3.org/2000/svg">
<path d="M150.311 0.764985C153.638 1.99224 161.663 7.73581 165.137 11.4176C168.416 14.903 173.603 22.2175 173.603 23.3956C173.603 23.7393 173.309 24.0338 172.967 24.0829C172.673 24.0829 171.352 24.2793 170.129 24.4756L167.829 24.8683L165.578 20.4011C164.354 17.9466 162.397 14.7066 161.223 13.1848C159.119 10.2885 154.666 5.37948 154.225 5.37948C154.03 5.37948 148.011 0.912256 147.228 0.175901C146.788 -0.216822 148.5 0.0777201 150.311 0.764985Z" fill="url(#paint0_linear_190_73)"/>
<path d="M105.635 4.49585C110.137 7.98126 112.926 14.1666 112.926 20.6957V24.5247L111.556 24.5738C110.48 24.5738 110.627 24.7211 112.437 25.3102C115.03 26.0956 115.373 26.1447 115.373 25.5556C115.373 25.3102 114.884 25.0156 114.345 24.9174C113.416 24.7702 113.562 24.5738 115.422 23.2484C116.596 22.3647 118.994 21.0884 120.756 20.3029C123.692 19.0266 124.377 18.9284 130.297 18.9284C134.995 18.9284 137.442 19.1739 139.595 19.812C144.341 21.2357 147.277 22.6102 146.983 23.3465C146.837 23.7393 146.983 23.8865 147.375 23.7393C149.088 23.052 153.296 29.3356 153.834 33.4591C154.519 38.8591 148.598 43.5718 142.482 42.3936C141.16 42.1481 140.573 41.6572 139.79 40.1845C138.665 37.8773 136.512 36.6991 133.478 36.65C128.976 36.6009 127.117 38.9082 127.753 43.7681C128.095 46.2226 129.172 47.7935 132.206 50.1008C136.561 53.4389 143.558 54.6662 150.115 53.2917C157.846 51.6717 163.914 47.3517 166.801 41.4118L168.318 38.3682L171.058 38.0246C172.575 37.8282 174.337 37.5827 174.973 37.4846C175.952 37.2882 176.098 37.4355 175.952 38.6136C175.805 39.89 175.903 39.9882 177.517 39.8409C178.447 39.7427 180.013 39.4973 180.992 39.2027C184.808 38.2209 197.335 37.2391 205.898 37.2391C214.804 37.2882 227.526 38.4664 233.056 39.7427C238.047 40.97 245.387 43.179 248.225 44.3572C250.721 45.4372 250.965 45.5845 249.693 45.6336C248.861 45.6336 246.121 45.339 243.576 44.9463C233.937 43.4736 222.878 42.9827 213.238 43.5718C196.846 44.6027 184.123 47.9408 163.621 56.6789C150.751 62.1279 143.607 63.0115 135.191 60.1152C127.998 57.6607 123.398 54.3716 121 50.0026C119.777 47.7444 119.581 46.8117 119.581 43.6699C119.581 35.7173 124.67 30.2683 132.206 30.2192C134.701 30.1701 135.631 30.4155 137.882 31.6919C140.965 33.4591 143.313 36.1591 143.46 37.9755C143.509 39.6936 144.684 39.4482 145.809 37.4846C148.305 33.1646 142.188 27.421 134.114 26.5865C128.144 25.9483 122.909 27.4701 118.7 31.1028C117.624 32.0846 116.498 32.7228 116.205 32.5264C115.911 32.3792 115.862 32.4773 116.058 32.821C116.254 33.1155 116.107 33.901 115.715 34.49C112.926 38.81 112.682 46.2717 115.177 51.1317C118.26 57.268 124.034 62.4715 132.108 66.546C139.154 70.0806 142.726 70.9151 151.436 70.9151C155.498 70.9151 158.727 71.0624 158.629 71.2587C158.042 72.1914 152.757 73.2223 147.424 73.4678C141.943 73.7132 135.876 73.026 132.842 71.8969C132.108 71.6023 132.059 71.7005 132.499 72.8787C133.429 75.3823 132.744 80.0459 131.521 79.2604C131.325 79.1132 130.444 77.8368 129.661 76.4132C126.872 71.406 120.315 66.8406 115.324 66.3497C113.758 66.2024 112.388 66.4479 110.822 67.1351C108.522 68.166 107.446 68.0678 108.914 66.9388C109.452 66.497 109.501 66.3006 109.11 66.2515C108.767 66.2515 108.278 65.7115 108.033 65.0242C107.788 64.337 107.25 63.797 106.81 63.797C106.223 63.797 106.271 64.0915 107.054 65.5151C107.593 66.4479 107.886 67.2333 107.691 67.2333C107.495 67.2333 107.593 67.4788 107.935 67.8224C108.327 68.2151 108.278 68.706 107.642 69.786C106.859 71.1605 105.88 71.406 105.782 70.2769C105.733 69.9333 105.684 69.4915 105.635 69.2951C105.586 68.7551 102.65 67.7242 102.65 68.2151C102.65 68.4115 102.21 68.5097 101.672 68.3624C100.889 68.166 100.742 67.8224 100.987 67.086C101.28 66.1042 101.28 66.1042 100.497 66.8897C99.5677 67.7733 98.7359 67.9697 98.7359 67.2824C98.7359 66.2515 101.085 62.5697 102.602 61.2443L104.265 59.7716L104.999 61.3425C105.635 62.6679 105.831 62.7661 106.223 62.0788C106.516 61.5388 106.418 60.9988 105.88 60.4097C105.146 59.5752 105.195 59.477 107.201 58.6916C110.137 57.5625 110.627 57.6607 110.284 59.1825C110.039 60.017 110.137 60.3116 110.48 60.1152C111.312 59.5752 111.018 57.9061 109.795 56.2862C106.712 52.1626 104.852 46.0263 105.293 41.5591C105.44 40.0373 105.44 38.7609 105.244 38.7609C105.097 38.7609 103.678 39.9391 102.161 41.4118C99.8124 43.6699 91.396 48.6772 91.396 47.8426C91.396 47.6954 90.7599 47.8917 89.928 48.3335C87.6282 49.5117 80.7776 50.9844 75.9822 51.328C64.8256 52.1135 50.2437 47.5481 42.2187 40.6754C38.8913 37.8282 35.8575 33.5573 35.0746 30.661C34.781 29.581 34.3406 28.1574 34.0959 27.5192C33.8513 26.9301 33.5087 25.0156 33.3619 23.3465L33.0683 20.352L34.6342 23.052C35.466 24.5247 37.0319 26.6356 38.0595 27.7156C39.136 28.8447 40.0168 29.9737 40.0168 30.3174C40.0168 30.661 40.1635 30.9065 40.4082 30.9065C40.6039 30.9065 41.974 31.8392 43.442 32.9192C46.7205 35.3737 52.6903 38.4173 55.7241 39.1536C56.9964 39.4973 58.3665 39.89 58.8558 40.0373C59.443 40.2827 59.1983 39.5954 57.975 37.73C55.9688 34.7355 54.9412 31.1028 55.3816 28.8938C55.7241 27.0283 57.1432 24.0338 57.6325 24.0338C57.8282 24.0338 58.1218 25.0156 58.2686 26.2429C59.1494 32.4773 64.4831 37.7791 69.9635 37.7791C71.9208 37.7791 72.4101 37.5336 73.6824 36.11C76.4715 32.8701 76.0312 28.0592 72.7527 26.292C71.2358 25.4574 70.8932 25.4083 69.621 26.0465C67.1254 27.2247 67.5658 30.4155 70.1592 30.4155C71.6272 30.4155 71.6762 31.1028 70.2571 32.0846C67.8594 33.8028 64.3852 32.1828 63.5044 28.9428C62.4768 25.1629 65.1681 21.3829 69.6699 20.1557C74.9057 18.732 81.6584 22.9047 83.5668 28.7465C84.4476 31.2992 83.9582 36.6009 82.6371 39.1045C82.0499 40.2827 81.8052 41.2154 82.0988 41.2154C82.3435 41.2154 84.3008 40.5772 86.4538 39.7918C90.9556 38.1227 95.5553 35.5209 98.8338 32.7719C101.183 30.8574 105.146 25.3592 105.88 23.052C106.076 22.3647 106.369 21.4811 106.516 21.0884C106.663 20.6957 106.761 18.143 106.81 15.443C106.81 11.074 106.663 10.1903 105.44 7.58854C104.706 5.96856 103.727 4.29949 103.287 3.80858C102.014 2.38496 103.384 2.82678 105.635 4.49585ZM129.563 19.812C129.563 19.9593 129.759 20.2048 130.053 20.352C130.297 20.4993 130.542 20.4011 130.542 20.1557C130.542 19.8611 130.297 19.6157 130.053 19.6157C129.759 19.6157 129.563 19.7139 129.563 19.812ZM138.665 20.8429C138.861 21.2357 139.203 21.432 139.448 21.2847C139.741 21.0884 139.692 20.7938 139.301 20.5484C138.371 19.9593 138.371 20.0084 138.665 20.8429ZM130.053 21.8247C130.053 22.2175 130.248 22.5611 130.542 22.5611C130.787 22.5611 131.031 22.2175 131.031 21.8247C131.031 21.432 130.787 21.0884 130.542 21.0884C130.248 21.0884 130.053 21.432 130.053 21.8247ZM76.4715 23.6902C76.863 24.672 77.3034 25.5065 77.4013 25.5065C77.6459 25.5065 76.7652 22.0211 76.3248 21.3338C75.6886 20.2539 75.7865 22.0211 76.4715 23.6902ZM136.903 22.9538C136.218 23.3956 135.142 24.0338 134.457 24.3774C133.772 24.7211 133.576 25.0156 133.967 25.0156C134.359 25.0156 135.24 24.5738 135.925 24.0338C136.61 23.4938 137.491 23.052 137.882 23.052C138.273 23.052 139.154 22.7084 139.839 22.3156L141.063 21.5793L139.595 21.8738C138.763 22.0702 137.588 22.512 136.903 22.9538ZM129.661 24.672C129.221 24.7702 129.808 24.8193 131.031 24.8683C132.891 24.8683 133.087 24.8193 132.108 24.3774C131.521 24.0829 130.982 23.6411 130.982 23.3465C130.934 23.052 130.836 23.1993 130.689 23.6411C130.591 24.0829 130.102 24.5247 129.661 24.672ZM127.606 24.5247C127.606 24.7702 127.802 25.0156 128.095 25.0156C128.34 25.0156 128.585 24.7702 128.585 24.5247C128.585 24.2302 128.34 24.0338 128.095 24.0338C127.802 24.0338 127.606 24.2302 127.606 24.5247ZM124.181 24.2302C124.181 24.3284 124.719 24.5247 125.404 24.6229C126.089 24.7702 126.627 24.672 126.627 24.4756C126.627 24.2302 126.089 24.0338 125.404 24.0338C124.719 24.0338 124.181 24.132 124.181 24.2302ZM118.554 25.0156C116.743 25.0156 115.862 25.212 116.107 25.4574C116.645 25.9974 123.055 25.3592 123.594 24.7211C123.789 24.5247 123.398 24.5247 122.713 24.672C122.028 24.8683 120.168 25.0156 118.554 25.0156ZM106.663 24.8683C107.152 24.9665 107.935 24.9665 108.376 24.8683C108.865 24.7211 108.473 24.6229 107.544 24.6229C106.614 24.6229 106.223 24.7211 106.663 24.8683ZM142.824 25.212C142.922 25.3102 143.901 25.5065 144.977 25.6538C146.298 25.8501 146.69 25.8011 146.201 25.5065C145.515 25.0647 142.335 24.7702 142.824 25.212ZM115.177 28.0592C115.52 28.5992 116.841 27.9119 116.841 27.1756C116.841 26.5865 116.645 26.5865 115.911 27.0774C115.373 27.421 115.03 27.8138 115.177 28.0592ZM114.884 31.1519C114.884 31.5446 115.079 31.8883 115.373 31.8883C115.618 31.8883 115.715 31.5446 115.569 31.1519C115.373 30.7592 115.177 30.4155 115.079 30.4155C114.982 30.4155 114.884 30.7592 114.884 31.1519ZM81.9031 36.11C81.1201 36.4046 81.3159 37.2882 82.1477 37.2882C82.4413 37.2882 82.5392 37.0918 82.3924 36.8464C82.1967 36.6009 82.3924 36.2573 82.686 36.1591C83.0285 36.0118 83.1753 35.8646 82.9796 35.8646C82.8328 35.8155 82.3435 35.9628 81.9031 36.11ZM80.7287 38.7118C81.0712 39.1536 81.4137 39.5954 81.4627 39.6936C81.5605 39.7918 81.6095 39.4482 81.6095 38.9082C81.6095 38.3682 81.2669 37.9264 80.8755 37.9264C80.2883 37.9264 80.2883 38.0736 80.7287 38.7118ZM42.6591 40.0863C43.0016 40.43 43.9314 39.7427 43.9314 39.1536C43.9314 38.8591 43.6378 38.8591 43.1974 39.2518C42.757 39.5954 42.5612 39.9882 42.6591 40.0863ZM89.4387 40.2827C89.4387 40.8227 89.6344 41.1663 89.928 40.97C90.1727 40.8227 90.2706 40.3809 90.0748 39.9882C89.7323 38.9573 89.4387 39.0555 89.4387 40.2827ZM60.0791 40.43C60.0791 40.5282 60.4216 40.7736 60.862 40.9209C61.2535 41.0682 61.4492 41.0191 61.3024 40.7245C61.0088 40.2336 60.0791 40.0373 60.0791 40.43ZM205.262 41.0682C205.605 41.1663 206.192 41.1663 206.485 41.0682C206.828 40.9209 206.583 40.8227 205.898 40.8227C205.213 40.8227 204.969 40.9209 205.262 41.0682ZM52.9839 41.2154C52.8371 41.4609 52.935 41.7063 53.1796 41.7063C53.4732 41.7063 53.7179 41.4609 53.7179 41.2154C53.7179 40.9209 53.62 40.7245 53.5221 40.7245C53.3754 40.7245 53.1307 40.9209 52.9839 41.2154ZM64.4831 41.7063C63.3087 42.4427 64.1405 42.639 65.4617 41.9518C66.1957 41.5591 66.3914 41.2645 65.951 41.2645C65.5596 41.2154 64.8745 41.4118 64.4831 41.7063ZM89.1451 42.4427C89.2919 42.8845 89.1451 43.179 88.7047 43.179C88.1664 43.179 88.2154 43.4245 88.9494 44.1608C89.5366 44.7499 89.8302 45.3881 89.6833 45.6336C89.4876 45.9281 89.6833 46.1245 90.0748 46.1245C90.6131 46.1245 90.6131 45.7317 90.2216 43.9154C89.928 42.6881 89.4876 41.7063 89.2919 41.7063C89.0472 41.7063 88.9494 42.05 89.1451 42.4427ZM53.3754 43.6699C53.4243 44.4554 53.62 45.1427 53.8157 45.1427C54.3051 45.1427 54.3051 44.0627 53.9136 42.9827C53.4732 41.8045 53.2775 42.05 53.3754 43.6699ZM190.387 43.4736C190.533 43.6209 190.974 43.6699 191.316 43.5227C191.708 43.3754 191.561 43.2281 191.023 43.2281C190.485 43.179 190.191 43.3263 190.387 43.4736ZM188.968 44.8481C188.478 45.2408 188.185 45.6826 188.38 45.879C188.723 46.2226 190.729 45.0936 190.729 44.5536C190.729 43.9645 190.044 44.1118 188.968 44.8481ZM109.648 53.6844C109.501 55.108 109.55 55.108 110.186 54.2244C110.529 53.6844 111.018 52.4571 111.214 51.5244L111.556 49.8062L110.675 50.9844C110.235 51.6226 109.746 52.8498 109.648 53.6844ZM109.159 64.3861C109.305 64.7297 109.403 64.4842 109.403 63.797C109.403 63.1097 109.305 62.8643 109.159 63.1588C109.061 63.5024 109.061 64.0915 109.159 64.3861Z" fill="url(#paint1_linear_190_73)"/>
<path d="M270 18.143H174.239L171.009 14.2157L167.731 10.2885H270V18.143ZM230.071 11.8594C229.141 12.9885 229.141 12.9885 230.12 12.203C230.658 11.7121 231.539 11.2703 232.077 11.123C233.007 10.9267 233.007 10.8776 232.028 10.8285C231.49 10.8285 230.609 11.2703 230.071 11.8594ZM189.261 12.4485C189.261 12.5958 189.457 12.8412 189.751 12.9885C189.995 13.1358 190.24 13.0376 190.24 12.7921C190.24 12.4976 189.995 12.2521 189.751 12.2521C189.457 12.2521 189.261 12.3503 189.261 12.4485ZM233.301 13.9212C233.301 14.0685 233.496 14.3139 233.79 14.4612C234.035 14.6085 234.279 14.5103 234.279 14.2648C234.279 13.9703 234.035 13.7248 233.79 13.7248C233.496 13.7248 233.301 13.823 233.301 13.9212ZM231.735 16.3266C232.077 16.7193 232.175 17.1612 231.979 17.3084C231.833 17.5048 232.175 17.6521 232.762 17.6521C233.349 17.6521 233.741 17.4557 233.594 17.2103C233.398 16.9648 233.545 16.6703 233.888 16.5721C234.23 16.4248 234.132 16.0321 233.496 15.2957C232.713 14.363 232.518 14.3139 231.882 14.9521C231.343 15.4921 231.294 15.7866 231.735 16.3266ZM192.344 14.5103C192.491 14.6576 192.931 14.7066 193.274 14.5594C193.665 14.4121 193.518 14.2648 192.98 14.2648C192.442 14.2157 192.148 14.363 192.344 14.5103ZM228.407 15.9339C228.897 16.5721 228.848 16.6703 227.967 16.6703C227.429 16.6703 226.939 16.8666 226.939 17.1612C226.939 17.4557 227.38 17.4557 228.114 17.1612C228.75 16.9157 229.435 16.8666 229.582 17.0139C229.728 17.2103 229.875 16.9648 229.875 16.523C229.875 16.0812 229.484 15.5412 229.043 15.2466C227.918 14.6576 227.624 14.9521 228.407 15.9339ZM185.836 16.6212C185.836 16.8666 186.178 17.2103 186.619 17.3575C187.304 17.603 187.353 17.5539 186.815 16.9157C186.13 16.0812 185.836 15.983 185.836 16.6212ZM192.442 17.1612C193.763 17.7502 194.154 17.7502 194.154 17.1612C194.154 16.8666 193.567 16.6703 192.784 16.7193C191.61 16.7193 191.561 16.7684 192.442 17.1612Z" fill="url(#paint2_linear_190_73)"/>
<path d="M156.672 11.614C157.602 12.8903 157.602 12.8903 156.672 12.5467C154.568 11.663 153.883 11.614 154.128 12.3012C154.274 12.6939 155.155 13.0376 156.281 13.1358C158.189 13.283 158.58 13.6757 161.027 17.5048C161.321 17.9957 158.14 18.143 145.222 18.143H129.074V16.7684C129.025 16.0321 128.683 14.903 128.291 14.2157L127.557 12.9885L127.802 14.2157C127.949 14.903 128.193 16.0321 128.34 16.7684L128.683 18.143H115.52L114.933 15.5412C114.639 14.1667 114.052 12.3994 113.66 11.614L112.975 10.2885H134.359L155.742 10.3376L156.672 11.614ZM127.264 11.8594C127.41 12.2521 127.557 12.1049 127.557 11.5649C127.606 11.0249 127.459 10.7303 127.313 10.9267C127.166 11.074 127.117 11.5158 127.264 11.8594ZM153.296 15.1975C153.149 15.443 153.247 15.6885 153.491 15.6885C153.785 15.6885 154.03 15.443 154.03 15.1975C154.03 14.903 153.932 14.7066 153.834 14.7066C153.687 14.7066 153.443 14.903 153.296 15.1975Z" fill="url(#paint3_linear_190_73)"/>
<path d="M103.14 13.0866C104.314 18.6829 102.602 24.0338 98.1487 28.7465C95.1638 31.9373 92.6683 33.361 89.5366 33.6555L87.3346 33.8519L89.0962 32.1337C92.6193 28.6974 94.9681 24.4756 95.5553 20.352L95.8978 18.143H18.4864V19.812C18.4864 20.7447 18.2418 22.1193 17.9482 22.9047C17.6546 23.7883 17.6056 24.3283 17.9482 24.4265C18.5843 24.6229 18.6822 41.9027 17.9971 43.179C17.6546 43.8663 17.6056 44.1608 17.9971 44.1608C18.7311 44.1608 18.5843 54.028 17.8503 54.9116C17.4099 55.5007 17.4099 55.5498 17.8503 55.2553C18.2907 55.0098 18.4864 55.3043 18.4864 56.2862C18.4375 57.5625 18.3886 57.5625 17.8014 56.7771C17.2142 55.9916 17.1163 55.9916 16.8227 56.728C16.4313 57.7589 16.8716 58.397 17.7524 58.1025C18.3396 57.857 18.4375 58.9861 18.4375 64.9751C18.4375 71.2587 18.3886 72.1423 17.6546 72.1423C16.9206 72.1423 16.9206 72.1914 17.6546 73.026C18.5843 74.0078 18.78 77.5423 17.9482 77.5423C17.7035 77.5423 17.2142 76.855 16.9695 76.0696C16.6759 75.235 16.2355 74.5968 15.9909 74.5968C15.4037 74.5968 15.4526 75.4314 16.0398 75.8241C16.2845 75.9714 16.5291 76.5605 16.5291 77.0514C16.5291 77.5423 16.9695 78.1314 17.5078 78.2786C18.2417 78.5241 18.4864 79.015 18.4864 80.4877C18.4864 82.0095 18.3396 82.3531 17.7524 82.1568C17.361 81.9604 17.0184 82.1077 17.0184 82.4022C17.0184 82.6968 16.1376 82.9422 15.0122 82.9422C13.2017 82.9422 13.0549 83.0404 13.6421 83.7277C14.1314 84.3658 14.1314 84.5622 13.5442 84.9549C13.1528 85.2004 13.0549 85.3967 13.3485 85.3967C13.5932 85.3967 13.4464 85.7404 12.957 86.1331C12.272 86.624 12.1741 87.0167 12.5166 87.6549C12.957 88.4403 13.006 88.3912 13.2996 87.4585C13.74 86.1822 15.893 84.6113 17.361 84.5131C18.4864 84.464 18.4864 84.5622 18.4864 90.1094V95.7057H19.9544C21.9606 95.7057 26.3156 93.9875 28.6644 92.2694C30.1813 91.1894 30.7196 90.993 31.2089 91.4348C31.6982 91.8766 31.7961 91.8276 31.5514 91.1403C31.3068 90.5512 31.6493 89.8149 32.4322 88.9312C33.9002 87.3603 34.2916 87.6549 33.8513 90.0603C33.6555 91.2876 33.313 91.7785 32.8726 91.5821C32.4812 91.4348 32.1875 91.533 32.1875 91.7294C32.1875 91.9748 32.4322 92.2694 32.7747 92.3676C33.7534 92.7112 30.5728 97.2275 27.9304 99.2402C23.8201 102.382 20.6884 103.56 16.5291 103.56C14.5229 103.56 12.3209 103.266 11.6848 102.922C10.5104 102.333 10.4615 102.186 10.3636 95.4602C10.2657 86.624 10.4125 85.4458 11.7827 85.6913C12.6635 85.8876 12.6635 85.7894 11.5869 85.2985L10.3147 84.6604L10.4615 55.6971C10.5104 39.7427 10.5594 26.292 10.5594 25.752C10.5594 25.212 10.5593 21.5302 10.4615 17.5048L10.3636 10.2885H102.602L103.14 13.0866ZM84.5454 11.3194C84.5454 11.5648 84.7412 11.663 85.0348 11.5158C85.2794 11.3685 86.0623 11.6139 86.7963 12.0558C87.775 12.743 88.0197 13.2339 87.8729 14.3139C87.7261 15.0503 87.8729 15.6884 88.1175 15.6884C88.3622 15.6884 88.3132 16.0321 87.9707 16.4248C87.6282 16.8175 87.4814 17.1611 87.6282 17.1611C87.775 17.1611 88.2154 17.3084 88.6069 17.4557C89.194 17.6521 89.243 17.3575 88.9494 15.7375C88.7536 14.5594 88.8026 13.5776 89.0962 13.283C89.4387 12.9394 89.2919 12.6448 88.6558 12.3994C88.1665 12.203 87.4324 11.7612 87.0899 11.4176C86.307 10.6321 84.5454 10.583 84.5454 11.3194ZM38.0595 11.2703C38.0595 11.5158 38.1573 11.7612 38.2552 11.7612C38.402 11.7612 38.6467 11.5158 38.7934 11.2703C38.9402 10.9758 38.8424 10.7794 38.5977 10.7794C38.3041 10.7794 38.0595 10.9758 38.0595 11.2703ZM24.3583 12.3994C24.3583 12.4976 24.8966 13.0866 25.5816 13.7248C26.6092 14.6575 26.805 14.7557 26.805 14.0685C26.805 13.6266 26.4624 13.2339 26.071 13.2339C25.6795 13.2339 25.337 12.9885 25.337 12.743C25.337 12.4485 25.0923 12.2521 24.8477 12.2521C24.5541 12.2521 24.3583 12.3012 24.3583 12.3994ZM12.6145 16.0321C12.6145 16.2775 12.957 16.8175 13.3485 17.3084C13.9846 18.192 14.0336 18.192 14.5229 17.2593C14.9633 16.4248 14.9143 16.2284 14.1804 16.0321C12.8102 15.6884 12.6145 15.6884 12.6145 16.0321ZM11.1465 16.3266C11.1465 16.4248 11.6359 16.9157 12.2231 17.4557L13.3485 18.3884L12.4188 17.2593C11.538 16.2284 11.1465 15.9339 11.1465 16.3266ZM12.1741 20.3029C12.7613 20.7938 14.5718 21.0884 14.5718 20.6466C14.5718 20.4011 14.0825 20.1066 13.4464 20.0084C12.3698 19.812 11.7827 19.9593 12.1741 20.3029ZM13.1038 25.2611C13.4464 25.6538 13.9357 25.9974 14.1804 25.9974C14.474 25.9974 14.425 25.6538 14.0825 25.2611C13.74 24.8683 13.2506 24.5247 13.006 24.5247C12.7124 24.5247 12.7613 24.8683 13.1038 25.2611ZM12.1252 28.2065C13.4464 28.8937 13.8867 28.8446 13.3485 28.0101C13.2017 27.7156 12.5656 27.4701 11.9784 27.4701C10.9508 27.5192 10.9508 27.5192 12.1252 28.2065ZM15.4526 30.2683C16.1866 31.0537 16.8716 31.4464 16.9695 31.1519C17.0674 30.9064 16.9206 30.6119 16.578 30.5137C16.2845 30.4155 16.0398 30.0228 16.0398 29.6301C16.0398 29.2374 15.5994 28.9428 15.1101 28.9428C14.2293 28.9428 14.2782 29.0901 15.4526 30.2683ZM15.4037 33.2137C15.7462 33.3119 16.4312 33.3119 16.8716 33.2137C17.361 33.0664 17.0674 32.9682 16.2845 32.9682C15.4526 32.9682 15.1101 33.0664 15.4037 33.2137ZM13.1038 39.4482C13.1038 39.5954 13.2996 39.8409 13.5932 39.9882C13.8378 40.1354 14.0825 40.0372 14.0825 39.7918C14.0825 39.4973 13.8378 39.2518 13.5932 39.2518C13.2996 39.2518 13.1038 39.35 13.1038 39.4482ZM16.1866 41.0191C16.3334 41.1663 16.7738 41.2154 17.1163 41.0681C17.5078 40.9209 17.361 40.7736 16.8227 40.7736C16.2845 40.7245 15.9909 40.8718 16.1866 41.0191ZM12.272 58.2007C12.4188 58.3479 12.8592 58.397 13.2017 58.2498C13.5931 58.1025 13.4464 57.9552 12.9081 57.9552C12.3698 57.9061 12.0762 58.0534 12.272 58.2007ZM14.7186 58.6916C14.8654 58.8389 15.3058 58.8879 15.6483 58.7407C16.0398 58.5934 15.893 58.4461 15.3547 58.4461C14.8165 58.397 14.5229 58.5443 14.7186 58.6916ZM17.0184 61.637C17.0184 62.0297 17.2142 62.2261 17.5078 62.0788C17.7524 61.9315 17.9971 61.5879 17.9971 61.2934C17.9971 61.0479 17.7524 60.8516 17.5078 60.8516C17.2142 60.8516 17.0184 61.1952 17.0184 61.637ZM11.3912 69.1478C11.3912 70.0314 13.4953 71.5042 15.3058 71.8478L16.7738 72.0932L15.2569 71.406C14.2782 70.9642 13.5932 70.2278 13.3974 69.4424C13.0549 68.0678 11.3912 67.8715 11.3912 69.1478ZM11.6359 89.324C11.2444 89.5694 11.0486 89.8639 11.1955 90.0112C11.3423 90.1585 11.8805 89.9621 12.4188 89.5694C13.4464 88.784 12.8102 88.5876 11.6359 89.324ZM14.9143 93.7421C15.0611 94.2821 15.3548 94.7239 15.5994 94.7239C16.1377 94.7239 16.1376 94.5766 15.7462 93.5457C15.3058 92.4166 14.6207 92.5639 14.9143 93.7421ZM11.6359 98.1602C11.6359 98.4057 11.8316 98.6511 12.1252 98.6511C12.3698 98.6511 12.6145 98.4057 12.6145 98.1602C12.6145 97.8657 12.3698 97.6693 12.1252 97.6693C11.8316 97.6693 11.6359 97.8657 11.6359 98.1602Z" fill="url(#paint4_linear_190_73)"/>
<path d="M220.089 24.2793C227.282 25.1138 235.111 26.5865 239.906 27.961C241.766 28.501 243.772 29.041 244.261 29.1883C252.58 31.1519 269.511 39.1045 269.511 41.0191C269.511 41.5591 268.728 41.4118 266.183 40.43C249.497 33.9992 232.126 30.8574 213.532 30.8574C200.516 30.8574 194.301 31.5446 166.41 36.1591C162.006 36.8464 158.336 37.3864 158.238 37.2391C158.14 37.1409 157.993 35.2755 157.895 33.1155L157.7 29.1883L160.146 28.7956C161.467 28.5992 166.312 27.7156 170.863 26.9301C183.536 24.6229 189.506 24.0338 202.228 23.7884C210.547 23.6411 215.783 23.7884 220.089 24.2793Z" fill="url(#paint5_linear_190_73)"/>
<path d="M27.1964 33.8519C32.2365 35.1773 36.3468 37.5336 39.6253 40.9209C42.0719 43.5227 46.2312 49.9044 46.5737 51.6226C46.6716 51.9662 46.9162 52.8007 47.2098 53.488C50.8309 62.2752 51.9074 70.4242 50.7819 80.3404C49.8522 88.3912 45.7908 98.0129 41.289 102.627L38.6466 105.426L43.3931 105.622C48.3353 105.867 52.2988 107.144 56.1156 109.746L57.8771 110.924L58.2197 108.715C58.5622 106.162 59.1983 105.082 61.7428 102.431C67.1743 96.933 74.1717 96.982 80.3372 102.627C86.2581 108.076 88.1664 115.293 85.3283 121.527C83.8604 124.767 81.7563 125.945 78.282 125.454C74.2696 124.914 71.8719 122.018 71.04 116.815L70.6975 114.605L72.4101 116.471C75.6397 119.858 79.1139 118.336 78.5267 113.771C78.1842 111.366 75.395 108.224 72.9973 107.536C69.7188 106.604 66.4404 110.187 66.4404 114.753C66.4404 117.06 67.9573 121.527 69.3763 123.344C70.5996 124.865 70.6486 125.553 69.4742 124.522C68.6423 123.785 68.4466 123.785 66.7339 124.718C65.7064 125.258 64.532 125.602 64.1895 125.454C63.2108 125.062 63.3576 126.044 64.3363 126.534C65.4128 127.074 66.4404 126.78 66.4404 125.896C66.4404 125.16 68.4955 124.522 68.887 125.111C69.0338 125.356 70.0124 125.945 71.0889 126.436L73.0463 127.32L70.8443 127.565L68.6423 127.86L70.7464 128.498C71.8719 128.842 73.0462 128.989 73.2909 128.842C73.927 128.449 79.1628 131.149 79.1628 131.885C79.1628 132.769 77.0587 133.211 74.2206 132.867C72.8995 132.72 71.8229 132.622 71.8229 132.671C71.8229 132.769 72.2633 134.782 72.8016 137.236C73.8781 142.096 74.0249 147.349 73.2909 152.061C72.7527 155.301 71.4804 159.032 70.8932 159.032C70.6975 159.032 70.7464 157.412 71.04 155.498C71.9697 148.625 70.2571 139.838 66.5871 132.278C64.8256 128.694 61.9875 124.178 60.911 123.245C59.8834 122.411 59.8344 121.527 60.8131 121.92C61.2046 122.067 61.5471 121.969 61.5471 121.674C61.5471 121.38 61.1556 121.233 60.6663 121.331C60.2259 121.38 58.5133 120.398 56.8985 119.122C51.1734 114.507 46.7205 113.035 41.0443 113.869C39.087 114.115 36.6893 114.802 35.7107 115.293C31.6982 117.404 27.8815 122.902 26.756 128.204C26.4624 129.627 25.9731 131.051 25.7284 131.394C25.4838 131.738 25.4838 132.033 25.7284 132.229C25.9731 132.376 26.4624 133.898 26.8049 135.567C27.0985 137.285 27.8815 139.691 28.4687 140.967L29.5452 143.274H20.933L20.199 140.722C19.8076 139.298 19.2693 136.5 19.0247 134.487C18.6332 130.903 18.6332 131.002 18.5353 137.334L18.4864 143.912L14.6696 143.569C12.6145 143.372 10.755 143.127 10.5104 142.98C10.1189 142.734 10.0211 127.418 10.4125 127.025C10.5593 126.927 11.9294 126.976 13.4953 127.173C16.9695 127.664 20.4437 128.056 21.5202 128.056C21.9606 128.105 22.9882 128.645 23.7711 129.333L25.1902 130.56V129.333C25.1902 128.007 23.4286 127.124 20.5905 127.124C18.9268 127.124 18.9268 127.124 19.2204 125.258C19.4161 124.276 19.7097 123 19.9544 122.46C21.5692 118.631 23.0371 115.833 24.1626 114.507L25.4348 112.936L22.3521 113.182C20.199 113.427 18.2417 113.231 16.1866 112.691C11.4401 111.513 5.76392 108.175 6.44897 107.046C6.59579 106.8 6.20432 106.506 5.61713 106.309C4.98102 106.162 4.19809 105.475 3.90448 104.787C3.07263 102.971 3.17047 102.873 4.58954 104.002C7.91696 106.604 15.4036 108.076 20.0033 106.996C27.0007 105.377 33.8512 99.4857 37.5212 92.0239C39.4785 87.9985 41.4847 82.8931 41.4847 81.9113C41.4847 81.715 40.4082 82.0586 39.136 82.7458C33.9002 85.4458 28.175 84.5131 23.7711 80.2422C20.6884 77.1986 19.6118 73.9096 20.4437 69.9824C21.5202 64.6315 26.1199 61.8825 30.2791 64.0915C32.3343 65.1224 33.4108 67.7733 32.579 69.5406C31.7961 71.1605 30.7195 71.6023 30.7195 70.2769C30.7195 69.1969 29.2516 67.7242 28.1261 67.7242C27.1964 67.7242 25.8263 69.5405 25.8263 70.8169C25.8263 73.615 28.7623 75.8732 32.1386 75.6278C38.4998 75.235 39.9189 68.0678 34.6342 62.8152C31.9918 60.1152 28.6644 58.397 26.1199 58.397C23.869 58.397 23.9669 57.5134 26.3645 56.3352C29.4473 54.7153 34.1938 55.4025 37.9126 58.0043C40.4082 59.6734 40.4571 59.4279 38.8424 54.6662C35.8085 45.7317 30.4749 38.8591 23.135 34.5391C21.9117 33.8519 20.933 33.1646 20.933 33.0664C20.933 32.6246 23.869 32.9682 27.1964 33.8519ZM32.1875 37.7791C32.1875 38.0245 32.2854 38.27 32.3833 38.27C32.53 38.27 32.7747 38.0245 32.9215 37.7791C33.0683 37.4846 32.9704 37.2882 32.7258 37.2882C32.4322 37.2882 32.1875 37.4846 32.1875 37.7791ZM30.377 39.0554C30.5238 39.2027 30.9642 39.2518 31.3067 39.1045C31.6982 38.9573 31.5514 38.81 31.0131 38.81C30.4749 38.7609 30.1813 38.9082 30.377 39.0554ZM36.8361 41.0681C37.3255 41.8536 37.9616 42.639 38.3041 42.9336C38.5977 43.179 38.9892 43.6699 39.087 43.9645C39.3806 44.799 45.8887 51.6226 45.8887 51.1317C45.8887 50.8862 44.5675 49.1681 42.9527 47.3026C40.9954 44.9954 40.1146 43.6208 40.3103 43.0809C40.5061 42.3936 40.3103 42.1972 39.5274 42.1972C38.9402 42.1972 38.0105 41.6572 37.4723 40.97C36.2 39.35 35.7596 39.3991 36.8361 41.0681ZM46.2801 55.648C45.9865 55.4516 45.8397 55.5989 45.9376 55.8934C46.2801 56.8261 47.112 56.5807 47.2098 55.5989C47.3077 55.108 47.2098 55.0098 47.063 55.3534C46.9162 55.648 46.5737 55.7952 46.2801 55.648ZM46.378 65.7606C46.378 66.006 46.5737 66.2515 46.8673 66.2515C47.112 66.2515 47.3566 66.006 47.3566 65.7606C47.3566 65.466 47.112 65.2697 46.8673 65.2697C46.5737 65.2697 46.378 65.466 46.378 65.7606ZM40.5061 71.406C40.5061 71.8969 42.708 72.5351 43.1974 72.2405C43.442 72.0442 43.0016 71.7496 42.2187 71.6023C41.3869 71.406 40.7018 71.2587 40.6039 71.2096C40.555 71.2096 40.5061 71.2587 40.5061 71.406ZM41.4847 73.3205C41.4847 73.4678 41.6805 73.7132 41.974 73.8605C42.2187 74.0078 42.4634 73.9096 42.4634 73.6641C42.4634 73.3696 42.2187 73.1241 41.974 73.1241C41.6805 73.1241 41.4847 73.2223 41.4847 73.3205ZM42.708 75.0878C42.8548 75.3332 43.3442 75.5787 43.7356 75.5787C44.1271 75.5787 44.3228 75.3332 44.176 75.0878C44.0292 74.7932 43.5399 74.5969 43.1484 74.5969C42.757 74.5969 42.5612 74.7932 42.708 75.0878ZM43.7356 76.6586C43.8824 76.855 43.491 77.0514 42.8548 77.0514C41.9251 77.1005 41.8762 77.1496 42.5123 77.5423C43.0016 77.8368 43.8824 77.8368 44.8121 77.5914C45.644 77.3459 46.4269 77.2477 46.5737 77.395C46.9162 77.7386 50.2926 77.1005 50.2926 76.6586C50.2926 76.4623 48.7757 76.315 46.9162 76.315C45.0568 76.315 43.6378 76.4623 43.7356 76.6586ZM38.1084 79.6532C36.8361 80.5368 35.3681 81.1259 34.4384 81.0768C33.0194 81.0768 33.0194 81.1259 33.998 81.5677C34.8299 81.9604 35.5639 81.8622 37.1787 81.0277C39.1849 80.0459 41.4847 78.3277 41.4847 77.7386C41.4847 77.4441 40.8975 77.7386 38.1084 79.6532ZM46.1333 88.3421C46.2801 88.5876 46.7205 88.6858 47.112 88.4894C48.1396 88.1458 48.0417 87.8512 46.8184 87.8512C46.2801 87.8512 45.9376 88.0476 46.1333 88.3421ZM39.0381 99.8293C40.8975 100.467 41.2401 100.467 40.7507 99.682C40.6039 99.3875 39.7231 99.142 38.8913 99.1911H37.3254L39.0381 99.8293ZM67.1743 100.615C67.0276 100.86 67.1254 101.106 67.3701 101.106C67.6637 101.106 67.9083 100.86 67.9083 100.615C67.9083 100.32 67.8105 100.124 67.7126 100.124C67.5658 100.124 67.3212 100.32 67.1743 100.615ZM68.5445 101.695C68.6913 102.087 68.8381 101.94 68.8381 101.4C68.887 100.86 68.7402 100.566 68.5934 100.762C68.4466 100.909 68.3977 101.351 68.5445 101.695ZM67.9083 103.069C67.9083 103.315 68.0062 103.56 68.1041 103.56C68.2509 103.56 68.4955 103.315 68.6423 103.069C68.7891 102.775 68.6913 102.578 68.4466 102.578C68.153 102.578 67.9083 102.775 67.9083 103.069ZM62.9172 104.149C63.2597 104.493 63.5044 104.542 63.5044 104.247C63.5044 103.56 62.9172 102.971 62.5747 103.315C62.4768 103.462 62.6236 103.855 62.9172 104.149ZM27.0496 106.506C26.9028 106.751 27.0007 106.996 27.2453 106.996C27.5389 106.996 27.7836 106.751 27.7836 106.506C27.7836 106.211 27.6857 106.015 27.5879 106.015C27.4411 106.015 27.1964 106.211 27.0496 106.506ZM53.2286 109.647C53.2286 109.795 53.4243 110.04 53.7179 110.187C53.9625 110.335 54.2072 110.236 54.2072 109.991C54.2072 109.696 53.9625 109.451 53.7179 109.451C53.4243 109.451 53.2286 109.549 53.2286 109.647ZM31.6982 110.924C32.6768 111.562 33.313 111.562 32.9215 110.924C32.7747 110.629 32.2365 110.433 31.7961 110.433C31.0621 110.433 31.0621 110.531 31.6982 110.924ZM43.7846 111.906C43.9314 112.446 44.1271 112.887 44.225 112.887C44.3228 112.887 44.4207 112.446 44.4207 111.906C44.4207 111.366 44.225 110.924 43.9803 110.924C43.7356 110.924 43.6378 111.366 43.7846 111.906ZM41.4847 111.12C41.4847 111.267 41.6805 111.513 41.974 111.66C42.2187 111.807 42.4634 111.709 42.4634 111.464C42.4634 111.169 42.2187 110.924 41.974 110.924C41.6805 110.924 41.4847 111.022 41.4847 111.12ZM32.9215 113.329C32.7258 113.771 32.9215 113.869 33.5087 113.624C34.5852 113.133 35.5639 113.133 36.8361 113.575C37.4722 113.82 37.4233 113.722 36.6404 113.231C35.1724 112.347 33.264 112.396 32.9215 113.329ZM32.1875 115.636C32.1875 116.029 32.3833 116.324 32.6769 116.324C32.9215 116.324 33.1662 116.225 33.1662 116.127C33.1662 116.029 33.313 115.538 33.4598 115.145C33.7044 114.556 33.5576 114.409 32.9705 114.655C32.5301 114.802 32.1875 115.244 32.1875 115.636ZM64.483 119.76C64.8745 120.005 65.4128 120.251 65.7064 120.251C65.951 120.251 65.8532 120.005 65.4617 119.76C65.0702 119.515 64.4831 119.269 64.2384 119.269C63.9448 119.269 64.0916 119.515 64.483 119.76ZM63.1129 123.196C64.2873 124.865 65.4617 125.454 65.4617 124.424C65.4617 123.982 65.1681 123.834 64.7277 123.982C64.0426 124.276 63.8959 124.08 63.798 122.558C63.7491 121.822 62.9661 121.233 62.4279 121.527C62.2321 121.674 62.5257 122.411 63.1129 123.196ZM67.419 122.902C67.419 123.049 67.6147 123.294 67.9083 123.442C68.153 123.589 68.3977 123.491 68.3977 123.245C68.3977 122.951 68.153 122.705 67.9083 122.705C67.6147 122.705 67.419 122.804 67.419 122.902Z" fill="url(#paint6_linear_190_73)"/>
<path d="M101.231 50.6408C101.525 51.8189 102.21 53.5862 102.699 54.6171C103.776 56.6298 103.58 57.4152 102.112 57.4152C100.938 57.4152 100.351 57.857 96.7786 61.3915C94.8213 63.3061 93.8426 64.6806 93.5001 66.0551C93.0597 67.8715 92.9618 67.9697 91.3471 67.8224C90.1237 67.7733 89.8791 67.8224 90.4173 68.2151C90.8088 68.4606 91.4939 68.706 91.9342 68.706C92.5214 68.706 92.815 69.246 92.9618 70.6696C93.0597 71.7496 92.9618 72.6332 92.815 72.6332C90.9067 72.6332 88.9494 69.3442 88.9494 66.2515V64.2388L87.2367 65.5642C84.5943 67.5769 82.2456 71.2096 81.0712 75.1859C80.0925 78.3277 80.0436 79.1132 80.484 81.8131C81.1691 85.6422 82.5392 88.5876 85.0347 91.4348C86.1113 92.6621 86.9921 93.7421 86.9921 93.8403C86.9921 93.9384 85.7198 94.0366 84.154 94.0857C82.6371 94.1348 80.7287 94.3803 79.8968 94.7239C78.5756 95.2148 78.331 95.1657 77.3034 93.8894C75.5418 91.7294 73.3398 87.1149 72.4591 83.7767C70.9911 77.935 72.5569 71.2096 76.5694 65.8588C77.4502 64.7297 78.1842 63.6988 78.1842 63.6006C78.1842 63.5024 76.3737 63.3061 74.1228 63.1588C67.3212 62.717 57.8282 58.6916 58.9537 56.728C59.1005 56.4334 59.1005 56.3352 58.8558 56.5316C58.4154 56.9734 56.6538 56.0898 56.6538 55.4516C56.6538 55.1571 57.0453 55.1571 57.7304 55.4516C59.6387 56.2371 67.1254 57.4152 70.2082 57.4152C76.4226 57.4152 85.2794 55.108 94.7234 50.9844C97.7572 49.659 100.351 48.579 100.449 48.579C100.546 48.579 100.889 49.5117 101.231 50.6408ZM96.7296 53.1444L97.8551 54.2244L97.0232 52.8498C96.5339 52.1135 96.0446 51.6226 95.8978 51.7698C95.751 51.9171 96.1424 52.5553 96.7296 53.1444ZM92.081 57.317C92.9129 58.1025 92.9618 58.1025 92.3257 57.0716C91.9832 56.4825 91.5917 56.0898 91.4449 56.2371C91.2981 56.3352 91.5917 56.8261 92.081 57.317ZM61.5471 58.8879C61.5471 59.1334 61.7917 59.3788 62.0853 59.3788C62.33 59.3788 62.4279 59.1334 62.2811 58.8879C62.1343 58.5934 61.8896 58.397 61.7428 58.397C61.645 58.397 61.5471 58.5934 61.5471 58.8879ZM64.483 60.1152C64.8256 60.5079 65.3149 60.8516 65.5596 60.8516C65.8532 60.8516 65.8042 60.5079 65.4617 60.1152C65.1192 59.7225 64.6298 59.3788 64.3852 59.3788C64.0916 59.3788 64.1405 59.7225 64.483 60.1152ZM82.8817 66.2024C82.9796 66.3497 83.4689 66.0551 83.9582 65.5642C84.7411 64.7297 84.7411 64.6806 83.7136 65.3188C83.1264 65.6624 82.7349 66.0551 82.8817 66.2024ZM76.8141 68.166C76.4715 68.166 76.3247 68.4115 76.4715 68.706C76.6183 68.9515 76.3737 69.1969 75.9333 69.1969C74.5632 69.1969 75.7865 70.1296 77.597 70.4733C78.8203 70.7187 79.1628 70.6205 79.1628 70.0314C79.1628 69.6387 79.5054 69.1969 79.8968 69.0005C81.8052 68.2642 80.2393 67.8224 76.8141 68.166Z" fill="url(#paint7_linear_190_73)"/>
<path d="M56.4581 58.3479C58.1708 60.017 58.9537 61.1461 60.2259 63.9442C61.645 66.8897 61.8896 68.706 60.911 68.706C60.5685 68.706 60.0302 69.1478 59.6877 69.6878C59.3451 70.2278 58.7579 70.6696 58.3665 70.6696C57.9261 70.6696 57.6325 71.1114 57.6325 71.8478C57.6325 73.2714 58.4644 73.9587 59.2473 73.1732C59.5409 72.8787 60.1281 72.6332 60.5195 72.6332C61.645 72.6823 59.6877 74.1059 58.5133 74.1059C58.024 74.1059 57.6325 74.3023 57.6325 74.5968C57.6325 74.8423 57.8282 75.0878 58.1218 75.0878C58.3665 75.0878 58.6111 75.5296 58.6111 76.0696C58.6111 76.7077 58.9537 77.0514 59.5409 77.0514C60.0791 77.0514 60.6174 77.2477 60.8131 77.5423C61.1556 78.0823 62.5258 77.6404 62.5258 76.9532C62.5258 76.6586 62.2322 76.5605 61.8896 76.7077C61.596 76.8059 60.8621 76.7568 60.3238 76.5114C59.5898 76.2168 59.5409 76.1187 60.1281 76.1187C60.5685 76.0696 61.2046 75.7259 61.5471 75.3332C62.5258 74.155 62.9172 74.4496 62.9172 76.3641C62.9172 77.2968 63.0151 78.1804 63.1129 78.2786C63.2108 78.3768 64.6299 77.5914 66.1957 76.5605L69.1317 74.5968L69.4253 83.5804L66.8318 85.9858C63.847 88.784 62.5258 89.8148 61.8407 89.8148C61.596 89.8148 61.7428 89.5203 62.2322 89.1767C63.064 88.5385 63.0151 88.4894 61.5961 87.9003C60.7642 87.5076 60.0791 87.0167 60.0791 86.7713C60.0791 86.5258 60.3727 86.4767 60.6663 86.6731C61.1557 86.9676 61.1557 86.8694 60.6663 86.3294C60.3727 85.9858 60.0791 85.2985 60.0791 84.8567C60.0791 83.5313 59.2473 83.2858 57.5836 84.1204L56.0667 84.8567L56.4092 83.5313C56.8496 81.8131 57.0453 81.6659 57.7304 82.3531C58.4154 83.0404 59.5898 82.2058 59.5409 81.0277C59.5409 80.5368 59.443 80.4877 59.2473 80.8313C59.1494 81.1749 58.8069 81.4695 58.5133 81.4695C58.2197 81.4695 58.3665 81.0277 58.8558 80.4877C59.3452 79.9477 59.9323 79.6532 60.177 79.8004C60.4706 79.9968 60.4217 79.6041 60.0791 79.015C59.5409 77.9841 59.443 77.9841 59.0026 78.7204C58.7579 79.1622 58.3665 79.4077 58.0729 79.2604C57.8282 79.0641 57.6325 79.2113 57.6325 79.4568C57.6325 79.7513 57.29 79.9968 56.8496 79.9968C56.2135 79.9968 56.1645 79.6532 56.507 77.8859C56.7028 76.7568 56.8496 72.7314 56.8496 68.9515C56.8006 64.926 56.9474 62.7661 57.1432 63.6988C57.6814 66.006 58.2197 66.3006 57.975 64.1406C57.8772 63.1588 57.975 62.3243 58.2197 62.3243C58.4644 62.3243 58.5133 62.0788 58.3665 61.8334C58.2197 61.5388 57.6325 61.3425 57.0943 61.3425C56.6049 61.3425 56.1645 61.1461 56.1645 60.8516C56.1645 60.6061 56.556 60.557 56.9964 60.7043C57.7793 60.9988 57.8282 60.9497 57.1432 60.0661C56.7517 59.5752 56.0667 58.8879 55.6752 58.5443C55.2837 58.2498 55.088 57.857 55.2348 57.7098C55.3816 57.5625 55.9199 57.857 56.4581 58.3479Z" fill="url(#paint8_linear_190_73)"/>
<path d="M103.384 69.8842C105.44 71.0133 106.663 72.0933 107.397 73.4187C109.159 76.5114 111.801 78.5241 114.247 78.5241C115.715 78.5241 116.645 78.2296 117.379 77.4932C118.26 76.6096 118.456 76.5605 118.945 77.1987C119.288 77.6405 119.973 78.0332 120.511 78.1314C121.098 78.2296 121.441 78.6714 121.441 79.1623C121.392 79.7023 121.685 79.9968 122.321 79.9968C123.104 79.9968 123.202 79.8495 122.762 79.3095C122.321 78.7695 122.419 78.5732 123.055 78.4259C123.545 78.2786 124.377 78.3768 124.915 78.5732C125.453 78.7695 125.6 78.9659 125.208 78.9659C124.768 79.015 124.719 79.2114 125.062 79.6041C126.04 80.8313 124.328 83.6786 121.783 85.1022C118.994 86.624 118.26 86.6731 116.449 85.544C113.562 83.6786 113.171 82.1568 115.471 81.5677C116.645 81.2732 117.379 81.3222 118.162 81.8622C118.896 82.3041 119.288 82.3531 119.288 82.0095C119.288 81.715 118.994 81.4695 118.603 81.4695C118.211 81.4695 117.82 81.175 117.673 80.7822C117.526 80.3895 116.89 79.8004 116.254 79.4568C115.324 79.015 115.226 79.015 115.715 79.555C116.449 80.2914 116.547 81.175 115.911 80.7332C115.667 80.5859 115.324 80.6841 115.128 80.9786C114.981 81.2241 114.296 81.4695 113.611 81.4695C112.975 81.4695 112.437 81.5677 112.437 81.715C112.437 82.2059 113.611 84.4149 113.856 84.4149C114.003 84.464 114.786 85.004 115.618 85.6913L117.086 86.9676L114.296 86.7222C108.473 86.2313 102.063 81.5677 99.4699 75.9223C98.2465 73.3696 97.7572 68.8533 98.7359 69.4424C98.9805 69.5897 99.2252 69.3933 99.2252 69.0006C99.2252 67.8715 100.106 68.0188 103.384 69.8842ZM111.85 80.2423C111.703 80.8804 111.752 81.3222 111.948 81.2241C112.486 80.8804 112.926 79.015 112.437 79.015C112.241 79.015 111.948 79.555 111.85 80.2423ZM119.826 83.0895C119.924 83.1386 120.413 83.5313 120.902 83.8749C121.636 84.464 121.734 84.464 121.441 83.7277C121.294 83.2859 120.804 82.9422 120.364 82.9422C119.973 82.9422 119.728 82.9913 119.826 83.0895ZM110.724 83.7277C109.648 84.8077 110.088 85.0531 111.605 84.2677C112.339 83.8749 112.78 83.4331 112.584 83.2859C112.094 82.7459 111.605 82.8931 110.724 83.7277Z" fill="url(#paint9_linear_190_73)"/>
<path d="M62.2321 70.4733C62.6725 72.1914 62.33 72.4369 61.645 70.9151C61.3514 70.2769 61.3024 69.5896 61.4982 69.4424C61.7428 69.3442 62.0854 69.786 62.2321 70.4733Z" fill="url(#paint10_linear_190_73)"/>
<path d="M118.945 71.6514C120.511 72.1423 122.272 72.9769 122.811 73.4678C123.936 74.4987 125.306 76.9041 125.062 77.5423C124.964 77.7386 123.496 77.395 121.734 76.7568C119.385 75.8732 118.358 75.1859 117.722 74.1059C117.281 73.2714 116.303 72.3878 115.618 72.0442C114.933 71.7496 114.394 71.3078 114.394 71.0623C114.394 70.4733 115.813 70.6205 118.945 71.6514Z" fill="url(#paint11_linear_190_73)"/>
<path d="M88.9004 74.9405C91.6896 76.2659 93.5979 77.7386 96.7786 80.9295C100.595 84.7095 101.231 85.5931 102.846 89.5694C105.44 95.853 106.076 98.7002 106.076 104.198C106.076 109.844 105.244 113.673 102.895 118.533C101.036 122.362 96.6318 128.105 95.5553 128.105C94.6255 128.105 94.6255 127.614 95.5553 126.289C96.8275 124.473 99.2741 119.318 100.106 116.618C100.742 114.753 100.889 112.495 100.84 107.733C100.791 101.695 100.693 101.155 99.1273 97.4239C97.0232 92.3676 94.5277 88.6367 91.4449 86.0349C88.9493 83.8749 84.8879 81.4695 83.7625 81.4695C82.8328 81.4695 82.8817 78.2786 83.8604 75.4314C84.3008 74.155 84.7901 73.1241 84.9369 73.1241C85.1326 73.1241 86.8942 73.9587 88.9004 74.9405Z" fill="url(#paint12_linear_190_73)"/>
<path d="M56.1156 82.255C56.1156 82.795 55.9688 82.9422 55.822 82.5495C55.6752 82.2059 55.7241 81.7641 55.8709 81.6168C56.0177 81.4204 56.1645 81.715 56.1156 82.255Z" fill="url(#paint13_linear_190_73)"/>
<path d="M58.9047 85.6422C59.394 86.0349 59.5898 86.3785 59.2962 86.3785C59.0026 86.3785 58.4643 86.0349 58.1218 85.6422C57.3389 84.7095 57.6814 84.7095 58.9047 85.6422Z" fill="url(#paint14_linear_190_73)"/>
<path d="M54.6476 86.7713C54.6965 87.1149 54.5008 87.8513 54.2072 88.3422C53.8647 89.0294 53.9625 89.2749 54.6965 89.4712C55.2348 89.6185 55.6752 89.4712 55.6752 89.2258C55.6752 88.8821 56.507 88.784 57.8772 88.9312C59.9323 89.1767 60.862 88.7349 59.443 88.1949C59.1494 88.0476 59.3451 87.9003 59.9323 87.9003C61.2046 87.8512 61.9386 88.784 61.0578 89.324C60.0302 89.9621 62.33 90.453 63.4555 89.864C64.8256 89.0785 67.7126 89.2258 69.3763 90.0603C70.6486 90.6985 72.3123 92.5148 72.3123 93.2512C72.3123 93.3985 70.8932 93.4966 69.2295 93.5457C63.9448 93.6439 59.1983 96.933 57.29 101.989C56.8496 103.167 56.2624 104.002 55.9688 103.855C52.3478 102.235 49.4118 101.106 48.6778 101.106C47.6013 101.106 47.6013 101.253 49.265 97.8657C50.0479 96.2457 51.3202 93.5457 52.1031 91.7785C52.886 90.0112 53.7668 88.0476 54.0604 87.3604C54.4029 86.6731 54.6476 86.4276 54.6476 86.7713ZM63.0151 90.7476C63.0151 90.993 63.3576 91.3367 63.798 91.4839C64.483 91.7294 64.532 91.6803 63.9937 91.0421C63.3087 90.2076 63.0151 90.1094 63.0151 90.7476ZM54.2072 91.0912C54.2072 91.1894 54.7944 91.2876 55.4795 91.2876C56.1645 91.2876 56.6049 91.0912 56.4581 90.8458C56.1645 90.453 54.2072 90.6494 54.2072 91.0912Z" fill="url(#paint15_linear_190_73)"/>
<path d="M56.9474 87.4585C57.1432 87.8022 57.1432 87.9494 56.8985 87.7531C56.7028 87.5567 56.1645 87.6549 55.7241 87.9985C55.0391 88.5385 55.0391 88.4894 55.6263 87.704C56.4092 86.7222 56.507 86.6731 56.9474 87.4585Z" fill="url(#paint16_linear_190_73)"/>
<path d="M86.5027 94.9202C87.726 95.2148 90.6131 96.4911 92.9129 97.7675C96.6807 99.8784 97.17 100.32 97.6594 102.038C98.0019 103.069 98.2466 104.493 98.2466 105.229C98.2466 106.407 98.0997 106.506 96.8764 106.211C91.0045 104.935 85.573 102.333 81.952 99.142C80.4351 97.7184 79.1628 96.4421 79.1628 96.2457C79.1628 95.9021 81.2669 95.0675 83.3221 94.5766C83.8604 94.4294 85.2794 94.5766 86.5027 94.9202Z" fill="url(#paint17_linear_190_73)"/>
<path d="M127.606 95.9021C127.606 96.6875 124.817 99.2893 121.734 101.449C118.798 103.413 114.199 105.426 111.312 105.966L109.012 106.358V101.597H111.214C112.437 101.597 113.416 101.793 113.416 102.087C113.416 102.333 112.975 102.578 112.486 102.578C111.899 102.578 111.36 103.118 111.018 104.051C110.382 105.917 111.067 106.015 111.948 104.149C112.29 103.364 112.633 103.069 112.78 103.462C112.926 103.806 112.731 104.395 112.437 104.837C111.899 105.426 111.948 105.475 112.633 105.229C113.073 105.082 113.416 104.64 113.416 104.247C113.416 103.904 113.856 103.266 114.443 102.873C115.03 102.48 115.373 101.989 115.226 101.744C115.079 101.498 116.743 100.566 118.945 99.6329C121.147 98.7493 123.887 97.3748 125.013 96.5893C127.313 95.0184 127.606 94.9694 127.606 95.9021Z" fill="url(#paint18_linear_190_73)"/>
<path d="M11.6359 113.869C12.0273 114.115 13.691 114.556 15.3547 114.9L18.4375 115.489V123.638L16.1377 123.393C12.7124 122.951 10.7061 122.264 10.5104 121.331C10.119 119.956 10.2168 113.918 10.6083 113.673C10.804 113.525 11.2444 113.624 11.6359 113.869ZM12.6145 117.305C13.006 117.551 13.5443 117.796 13.8378 117.796C14.0825 117.796 13.9846 117.551 13.5932 117.305C13.2017 117.06 12.6145 116.815 12.3699 116.815C12.0763 116.815 12.2231 117.06 12.6145 117.305ZM16.0398 117.993C16.0398 118.091 16.4313 118.484 16.8717 118.827C17.6546 119.465 17.7035 119.416 17.0674 118.631C16.4313 117.845 16.0398 117.6 16.0398 117.993Z" fill="url(#paint19_linear_190_73)"/>
<path d="M45.644 119.613C48.1396 119.907 52.201 122.264 54.2561 124.62C56.4092 127.124 58.5622 131.296 60.7153 137.187C62.2811 141.507 61.4003 153.141 59.1005 158.296C57.0453 162.861 51.2713 177.147 51.2713 177.588C51.2713 177.883 50.9777 178.325 50.6351 178.521C50.3415 178.717 49.999 179.356 49.9501 179.896C49.9501 180.436 49.7543 181.319 49.6075 181.859C46.378 192.806 44.5675 201.937 43.9803 210.528C43.6867 214.652 43.442 218.628 43.442 219.413C43.442 220.346 43.1485 220.886 42.5612 221.033C41.7783 221.23 41.7783 221.279 42.5612 221.328C43.2952 221.377 43.442 221.868 43.442 224.421C43.442 228.446 44.7632 243.86 45.3994 247.64C46.3291 253.188 45.644 252.5 43.2463 245.579C40.8486 238.559 39.1849 231.195 38.1573 222.752C37.8148 219.953 37.8637 219.413 38.4998 219.266C39.136 219.07 39.136 219.021 38.402 218.972C37.7169 218.922 37.5701 218.432 37.5212 216.321C37.5212 214.946 37.3744 212.05 37.2765 209.939C37.0319 206.11 37.8148 189.566 38.353 187.75C38.7445 186.425 42.9038 184.412 43.7846 185.148C44.1271 185.443 44.4207 185.983 44.4207 186.326C44.4207 186.719 44.7143 186.866 45.2036 186.67C45.9376 186.376 45.9376 186.326 45.1547 185.737C44.2739 185.099 44.3228 185.001 45.3994 184.068C46.0355 183.528 46.3291 183.087 46.0355 183.087C45.7908 183.087 45.3993 183.234 45.2036 183.43C45.0079 183.676 43.9803 183.823 42.9527 183.872C41.8273 183.872 40.6039 184.265 40.0168 184.805C39.4785 185.296 38.9402 185.59 38.7934 185.492C38.6956 185.345 38.8913 183.479 39.2828 181.368C40.2125 176.165 40.2125 176.214 38.7445 176.214C37.4233 176.214 37.4233 176.214 37.7658 173.416C38.3041 168.85 38.402 168.703 41.4358 167.279C43.1484 166.445 45.3993 164.776 47.2098 162.91L50.1947 159.916L50.5373 161.487C50.733 162.321 51.1734 163.598 51.5648 164.334C52.5435 166.249 52.4456 166.789 50.7819 168.212C49.9501 168.85 49.3139 169.685 49.3139 169.979C49.3139 170.274 49.999 169.832 50.7819 168.899C51.6627 167.918 52.5924 167.378 52.9839 167.574C53.62 167.819 53.62 167.574 52.935 166.003C50.3905 160.112 50.0969 158.934 50.8309 158.345C51.2223 158.05 51.5159 157.56 51.5159 157.314C51.5648 157.02 52.0052 155.4 52.5924 153.632C53.9625 149.312 54.4029 144.649 53.7668 141.163C52.201 132.72 46.7695 126.976 41.0933 127.86C38.402 128.253 36.5915 130.02 36.5915 132.278C36.5915 133.8 36.4936 133.898 34.4874 134.094C31.9918 134.389 31.0621 134.094 31.4046 133.211C31.5514 132.818 31.3557 132.523 30.9642 132.523C29.9856 132.523 30.4749 129.136 31.7471 126.534C34.047 121.969 39.9678 119.024 45.644 119.613ZM40.5061 121.773C40.5061 122.018 40.7997 122.214 41.1911 122.214C41.5826 122.214 42.2187 122.362 42.6591 122.509C43.1484 122.705 43.442 122.558 43.442 122.165C43.442 121.724 42.8548 121.478 41.974 121.429C41.1422 121.38 40.5061 121.576 40.5061 121.773ZM50.7819 123.196C50.7819 123.442 51.1734 123.687 51.6138 123.687C52.3478 123.687 52.3967 123.589 51.7606 123.196C50.8309 122.607 50.7819 122.607 50.7819 123.196ZM35.6128 122.902C35.6128 123 35.9553 123.245 36.3957 123.393C36.7872 123.54 36.9829 123.491 36.8361 123.196C36.5425 122.705 35.6128 122.509 35.6128 122.902ZM38.0595 124.865C38.0595 125.602 39.2338 126.289 39.6742 125.798C40.0168 125.504 38.9892 124.227 38.402 124.178C38.2062 124.178 38.0595 124.473 38.0595 124.865ZM42.1698 125.405C43.9314 126.338 44.2249 126.338 43.442 125.405C43.0995 125.013 42.3655 124.669 41.7783 124.669C40.8975 124.669 40.9465 124.767 42.1698 125.405ZM46.6227 126.387C45.5461 126.78 45.1057 127.074 45.644 127.074C46.1823 127.074 47.1609 126.78 47.846 126.387C49.4118 125.504 49.0693 125.504 46.6227 126.387ZM52.7392 127.614C52.7392 127.86 52.935 128.105 53.2286 128.105C53.4732 128.105 53.7179 127.86 53.7179 127.614C53.7179 127.32 53.4732 127.124 53.2286 127.124C52.935 127.124 52.7392 127.32 52.7392 127.614ZM55.4794 131.002C55.3326 131.247 55.7241 131.542 56.4092 131.64C57.3878 131.836 57.5346 131.787 57.0942 131.247C56.4581 130.462 55.8709 130.363 55.4794 131.002ZM55.8709 148.036C57.3389 149.067 57.9261 148.871 56.6049 147.791C55.9688 147.251 55.3327 146.956 55.1859 147.103C55.0391 147.201 55.3816 147.643 55.8709 148.036ZM58.8558 150.687C59.0026 150.932 59.3941 151.178 59.6387 151.178C59.9323 151.178 59.9813 150.932 59.8345 150.687C59.6877 150.392 59.2962 150.196 59.0515 150.196C58.7579 150.196 58.709 150.392 58.8558 150.687ZM56.3113 158.836C56.4581 158.983 56.8985 159.032 57.241 158.885C57.6325 158.738 57.4857 158.59 56.9474 158.59C56.4092 158.541 56.1156 158.689 56.3113 158.836ZM50.0479 172.728C50.2437 173.907 50.1458 174.741 49.8522 174.987C49.5586 175.134 48.8246 176.214 48.2864 177.343C47.6992 178.472 46.9652 179.601 46.6716 179.797C46.329 180.092 46.378 180.141 46.8673 179.994C47.4545 179.847 49.5097 177.048 50.5862 174.839C50.9287 174.201 50.4394 170.814 49.999 170.814C49.8522 170.814 49.8522 171.698 50.0479 172.728ZM47.3566 182.596C47.8949 182.939 48.1885 182.792 48.4332 182.203C49.1182 180.534 48.8246 180.092 47.7481 181.123C46.8184 182.007 46.7695 182.203 47.3566 182.596ZM44.6164 181.859C43.9803 182.547 43.6378 183.087 43.8824 183.087C44.0782 183.087 44.7632 182.547 45.3994 181.859C46.0355 181.172 46.378 180.632 46.1333 180.632C45.9376 180.632 45.2525 181.172 44.6164 181.859ZM46.8673 185.541C46.8673 185.786 46.9652 186.032 47.063 186.032C47.2099 186.032 47.4545 185.786 47.6013 185.541C47.7481 185.247 47.6502 185.05 47.4056 185.05C47.112 185.05 46.8673 185.247 46.8673 185.541ZM38.4998 206.503C39.0381 207.583 42.4634 208.81 43.0995 208.172C43.3442 207.926 43.2952 207.583 43.0016 207.435C42.708 207.239 42.4634 207.288 42.4634 207.583C42.4634 207.926 42.023 207.926 41.0933 207.534C39.2338 206.699 38.4998 205.963 39.9678 206.306C40.6039 206.454 40.9465 206.404 40.7018 206.159C40.2614 205.766 38.4509 205.275 38.1573 205.472C38.0594 205.521 38.2062 206.012 38.4998 206.503Z" fill="url(#paint20_linear_190_73)"/>
<path d="M11.0487 123.294C11.1465 124.031 11.6848 124.178 14.7186 124.178H18.3396L18.4375 126.927L14.7186 126.584C12.7124 126.387 10.9508 126.093 10.804 125.994C10.7061 125.847 10.6572 125.013 10.804 124.08C10.9019 123.196 11.0487 122.853 11.0487 123.294Z" fill="url(#paint21_linear_190_73)"/>
<path d="M31.5514 135.371C31.845 136.598 32.4322 136.794 32.8726 135.714C33.0194 135.273 33.7534 134.978 34.8299 134.978C36.3958 134.978 36.6404 135.174 37.5212 137.138C38.1573 138.611 38.9892 139.592 40.1146 140.182C40.9954 140.623 41.8273 141.065 41.8762 141.114C42.3166 141.507 42.8059 144.943 42.6102 145.778C42.3655 146.612 42.0719 146.711 40.555 146.465C38.402 146.072 38.2063 145.925 38.9402 145.189C39.87 144.256 39.6253 143.962 37.9127 143.618C35.8086 143.225 33.0194 140.378 33.0194 138.611C33.0194 137.776 32.7258 137.236 32.1386 137.089C31.2089 136.843 30.3771 135.125 30.9153 134.585C31.1111 134.438 31.3557 134.782 31.5514 135.371ZM34.6831 140.918C35.466 141.409 35.8086 141.114 35.3682 140.427C35.2214 140.132 34.8299 140.034 34.5363 140.182C34.2427 140.378 34.2917 140.623 34.6831 140.918Z" fill="url(#paint22_linear_190_73)"/>
<path d="M30.4749 144.305C31.111 145.336 34.6831 146.76 36.6404 146.76C39.0871 146.76 41.9741 147.692 41.9741 148.527C41.9741 149.607 39.7232 152.307 38.0595 153.19C33.6555 155.547 26.8539 152.945 23.0861 147.447C22.0585 145.974 21.3734 144.698 21.4713 144.6C21.9606 144.207 25.337 143.912 25.337 144.305C25.337 144.502 25.8752 144.649 26.5114 144.6C27.1475 144.6 27.5879 144.403 27.4411 144.158C27.3432 143.962 27.8815 143.814 28.7133 143.814C29.4962 143.814 30.3281 144.06 30.4749 144.305Z" fill="url(#paint23_linear_190_73)"/>
<path d="M18.4864 152.994C18.4864 157.658 18.3396 161.487 18.1928 161.487C17.7035 161.487 11.9784 157.265 10.9997 156.234C10.2657 155.4 10.1679 154.467 10.2657 149.901L10.4125 144.551H18.4864V152.994Z" fill="url(#paint24_linear_190_73)"/>
<path d="M2.82797 150.54C7.18295 157.02 14.5718 163.303 21.8138 166.641L24.8966 168.065L24.554 170.274C24.0158 174.545 24.0647 174.447 21.5202 172.974C11.9294 167.378 2.7301 156.725 0.185608 148.331C-0.4505 146.367 0.577057 147.201 2.82797 150.54Z" fill="url(#paint25_linear_190_73)"/>
<path d="M35.2214 158.394C36.5425 158.492 37.5701 158.689 37.5701 158.836C37.5701 159.327 33.6555 183.381 33.2641 185.05C33.0194 186.326 32.6279 186.817 31.7961 186.916C31.2089 187.014 30.8174 187.259 30.9642 187.505C31.111 187.75 31.5514 187.848 31.9429 187.652C32.9215 187.308 32.8726 188.486 31.845 195.457C30.7196 203.164 30.7196 225.402 31.845 232.471C33.5087 242.584 35.6618 252.255 37.668 258.44C38.7935 261.926 39.7232 264.92 39.7721 265.067C39.7721 265.215 40.0657 265.755 40.3104 266.295C40.604 266.835 40.9954 267.866 41.1911 268.602C41.7783 271.105 40.3103 270.124 38.2552 266.638C31.894 255.937 26.071 236.546 24.3583 220.395C23.135 208.81 23.6733 189.714 25.1902 188.781C25.7284 188.486 25.7774 188.29 25.337 187.996C24.9455 187.75 24.9944 187.456 25.5816 186.817C26.3156 186.081 26.3156 186.032 25.5816 186.032C24.9455 186.032 24.7987 185.737 25.0434 184.903C25.2391 184.314 25.4349 182.743 25.5327 181.417C25.6306 180.092 26.5603 174.299 27.5879 168.507L29.4473 158.05L31.16 158.149C32.1386 158.198 33.9491 158.296 35.2214 158.394ZM27.7836 178.128C27.7836 178.374 28.2729 178.668 28.8601 178.816C29.9366 179.11 29.9366 179.11 29.0559 178.423C27.9304 177.588 27.7836 177.539 27.7836 178.128ZM26.071 182.596C25.9242 182.841 26.1199 183.087 26.5603 183.087C27.0007 183.087 27.1964 182.841 27.0496 182.596C26.9028 182.301 26.6582 182.105 26.5603 182.105C26.4624 182.105 26.2178 182.301 26.071 182.596ZM25.6306 184.51C25.0923 185.345 26.8539 185.541 27.9304 184.805C28.958 184.068 28.958 184.068 27.4411 184.068C26.5603 184.068 25.7774 184.265 25.6306 184.51ZM27.2943 187.014C27.6857 187.259 28.4687 187.456 29.0069 187.456H29.9856L29.0069 187.014C28.4687 186.768 27.6857 186.572 27.2943 186.572C26.6582 186.523 26.6582 186.572 27.2943 187.014ZM25.337 192.61C25.337 192.708 25.6795 193.052 26.071 193.395C26.6582 193.886 26.805 193.886 26.805 193.199C26.805 192.757 26.4624 192.414 26.071 192.414C25.6795 192.414 25.337 192.512 25.337 192.61ZM24.3583 199.728C24.3583 200.219 26.2667 201.054 27.0007 200.857C27.1964 200.759 27.6857 201.054 27.9793 201.495C28.4687 202.183 28.5665 202.183 28.6155 201.25C28.6644 200.71 28.5665 200.317 28.3708 200.465C28.1751 200.563 27.3432 200.366 26.5603 200.023C24.7498 199.188 24.3583 199.139 24.3583 199.728Z" fill="url(#paint26_linear_190_73)"/>
<path d="M14.3272 171.305C16.1866 172.925 17.8992 174.25 18.095 174.25C18.3396 174.25 18.4864 176.361 18.4864 178.963C18.4864 183.283 18.3885 183.676 17.6056 183.332C17.1652 183.136 16.3334 182.89 15.7951 182.743C10.9998 181.663 10.7551 181.565 10.4615 179.945C10.07 177.736 10.1679 168.359 10.5594 168.359C10.7551 168.359 12.4188 169.685 14.3272 171.305Z" fill="url(#paint27_linear_190_73)"/>
<path d="M13.1038 182.645C14.0336 182.89 15.6483 183.332 16.627 183.676L18.4864 184.216V189.026C18.4864 192.365 18.2907 193.886 17.8503 194.034C17.3609 194.23 17.3609 194.328 17.8503 194.328C18.4864 194.377 18.78 197.814 18.1928 197.814C17.9971 197.814 17.0674 197.323 16.1376 196.734C15.159 196.145 14.5718 195.948 14.8165 196.341C15.11 196.832 14.8165 196.93 13.1527 196.685C10.2168 196.292 10.9997 196.783 14.9143 197.814L18.2417 198.697L18.2907 207.092C18.3885 215.388 18.3396 215.584 17.2142 216.713C15.893 218.039 15.5505 219.462 16.7738 218.432C17.1652 218.088 17.3609 217.646 17.2142 217.401C17.0674 217.155 17.312 216.959 17.7035 216.959C18.3885 216.959 18.4864 219.806 18.4864 243.468V269.976H10.1679L10.2168 263.447C10.2657 259.913 10.4615 256.427 10.6572 255.74C10.9997 254.611 11.0486 254.611 11.0976 255.593C11.1465 256.182 11.3423 256.771 11.5869 256.967C12.3698 257.409 12.0273 255.053 11.1955 254.071C10.2657 252.991 9.87427 244.548 10.4125 236.693C10.7061 232.373 10.9019 231.588 11.7337 231.146C12.272 230.851 12.8592 230.753 13.006 230.95C13.3974 231.342 12.3698 232.962 11.7826 232.815C11.538 232.766 11.3423 233.11 11.2933 233.6C11.2444 234.337 11.3912 234.288 12.5656 233.306C14.3271 231.735 14.1803 229.771 12.3209 230.115C11.6848 230.213 11.1465 230.557 11.1465 230.802C11.1465 231.048 10.9019 231.097 10.6082 230.9C10.2168 230.655 10.1189 225.55 10.3636 212.393C10.5104 202.428 10.7061 194.132 10.804 194.034C10.9508 193.935 11.9294 194.23 13.0549 194.672C14.1803 195.114 15.2079 195.359 15.3547 195.212C15.6973 194.868 12.3698 193.395 11.3422 193.395C10.8529 193.395 10.6572 192.708 10.6082 191.039C10.4125 184.166 10.4615 182.448 10.9019 182.301C11.1465 182.252 12.1741 182.399 13.1038 182.645ZM13.1038 192.414C12.2231 193.003 13.006 193.003 14.3271 192.414C14.9633 192.119 15.0611 191.972 14.5718 191.972C14.1803 191.972 13.4953 192.168 13.1038 192.414ZM11.1465 200.366C11.1465 200.612 11.489 200.759 11.9294 200.759C12.7613 200.759 14.1803 199.532 13.7889 199.139C13.4464 198.845 11.1465 199.924 11.1465 200.366ZM11.3422 206.012C11.6848 206.355 12.6145 205.668 12.6145 205.079C12.6145 204.784 12.3209 204.784 11.8805 205.177C11.4401 205.521 11.2444 205.914 11.3422 206.012ZM13.3485 208.613C13.4953 208.859 14.1314 209.35 14.7186 209.644C15.7462 210.135 15.7462 210.086 14.6207 209.153C13.3974 208.024 12.8592 207.828 13.3485 208.613ZM15.6483 211.559C14.9633 211.559 15.0122 211.755 15.893 212.639C16.5291 213.228 17.1652 213.572 17.361 213.326C17.5567 213.13 17.4099 212.786 17.0184 212.541C16.5291 212.246 16.4802 212.05 16.8716 212.05C17.2631 212.05 17.361 211.706 17.1652 211.215C16.9695 210.675 16.7738 210.626 16.627 210.97C16.5291 211.313 16.0887 211.559 15.6483 211.559ZM15.7951 220.395C15.6483 220.641 15.7462 220.886 15.9908 220.886C16.2844 220.886 16.5291 220.641 16.5291 220.395C16.5291 220.101 16.4312 219.904 16.3334 219.904C16.1866 219.904 15.9419 220.101 15.7951 220.395ZM15.0611 222.408C15.0611 222.702 15.2569 222.752 15.5504 222.604C15.7951 222.457 16.0398 222.064 16.0398 221.819C16.0398 221.524 15.7951 221.475 15.5504 221.622C15.2569 221.77 15.0611 222.162 15.0611 222.408ZM11.9294 267.031C12.6145 267.718 17.5078 268.504 17.5078 267.964C17.5078 267.718 16.7738 267.522 15.893 267.473C15.0611 267.424 13.7889 267.227 13.1038 267.031C11.3912 266.491 11.3912 266.491 11.9294 267.031Z" fill="url(#paint28_linear_190_73)"/>
<defs>
<linearGradient id="paint0_linear_190_73" x1="9.49999" y1="10.5" x2="113" y2="114" gradientUnits="userSpaceOnUse">
<stop stop-color="#001425"/>
<stop offset="1" stop-color="#176A6C"/>
</linearGradient>
<linearGradient id="paint1_linear_190_73" x1="9.49999" y1="10.5" x2="113" y2="114" gradientUnits="userSpaceOnUse">
<stop stop-color="#001425"/>
<stop offset="1" stop-color="#176A6C"/>
</linearGradient>
<linearGradient id="paint2_linear_190_73" x1="9.49999" y1="10.5" x2="113" y2="114" gradientUnits="userSpaceOnUse">
<stop stop-color="#001425"/>
<stop offset="1" stop-color="#176A6C"/>
</linearGradient>
<linearGradient id="paint3_linear_190_73" x1="9.49999" y1="10.5" x2="113" y2="114" gradientUnits="userSpaceOnUse">
<stop stop-color="#001425"/>
<stop offset="1" stop-color="#176A6C"/>
</linearGradient>
<linearGradient id="paint4_linear_190_73" x1="9.49999" y1="10.5" x2="113" y2="114" gradientUnits="userSpaceOnUse">
<stop stop-color="#001425"/>
<stop offset="1" stop-color="#176A6C"/>
</linearGradient>
<linearGradient id="paint5_linear_190_73" x1="9.49999" y1="10.5" x2="113" y2="114" gradientUnits="userSpaceOnUse">
<stop stop-color="#001425"/>
<stop offset="1" stop-color="#176A6C"/>
</linearGradient>
<linearGradient id="paint6_linear_190_73" x1="9.49999" y1="10.5" x2="113" y2="114" gradientUnits="userSpaceOnUse">
<stop stop-color="#001425"/>
<stop offset="1" stop-color="#176A6C"/>
</linearGradient>
<linearGradient id="paint7_linear_190_73" x1="9.49999" y1="10.5" x2="113" y2="114" gradientUnits="userSpaceOnUse">
<stop stop-color="#001425"/>
<stop offset="1" stop-color="#176A6C"/>
</linearGradient>
<linearGradient id="paint8_linear_190_73" x1="9.49999" y1="10.5" x2="113" y2="114" gradientUnits="userSpaceOnUse">
<stop stop-color="#001425"/>
<stop offset="1" stop-color="#176A6C"/>
</linearGradient>
<linearGradient id="paint9_linear_190_73" x1="9.49999" y1="10.5" x2="113" y2="114" gradientUnits="userSpaceOnUse">
<stop stop-color="#001425"/>
<stop offset="1" stop-color="#176A6C"/>
</linearGradient>
<linearGradient id="paint10_linear_190_73" x1="9.49999" y1="10.5" x2="113" y2="114" gradientUnits="userSpaceOnUse">
<stop stop-color="#001425"/>
<stop offset="1" stop-color="#176A6C"/>
</linearGradient>
<linearGradient id="paint11_linear_190_73" x1="9.49999" y1="10.5" x2="113" y2="114" gradientUnits="userSpaceOnUse">
<stop stop-color="#001425"/>
<stop offset="1" stop-color="#176A6C"/>
</linearGradient>
<linearGradient id="paint12_linear_190_73" x1="9.49999" y1="10.5" x2="113" y2="114" gradientUnits="userSpaceOnUse">
<stop stop-color="#001425"/>
<stop offset="1" stop-color="#176A6C"/>
</linearGradient>
<linearGradient id="paint13_linear_190_73" x1="9.49999" y1="10.5" x2="113" y2="114" gradientUnits="userSpaceOnUse">
<stop stop-color="#001425"/>
<stop offset="1" stop-color="#176A6C"/>
</linearGradient>
<linearGradient id="paint14_linear_190_73" x1="9.49999" y1="10.5" x2="113" y2="114" gradientUnits="userSpaceOnUse">
<stop stop-color="#001425"/>
<stop offset="1" stop-color="#176A6C"/>
</linearGradient>
<linearGradient id="paint15_linear_190_73" x1="9.49999" y1="10.5" x2="113" y2="114" gradientUnits="userSpaceOnUse">
<stop stop-color="#001425"/>
<stop offset="1" stop-color="#176A6C"/>
</linearGradient>
<linearGradient id="paint16_linear_190_73" x1="9.49999" y1="10.5" x2="113" y2="114" gradientUnits="userSpaceOnUse">
<stop stop-color="#001425"/>
<stop offset="1" stop-color="#176A6C"/>
</linearGradient>
<linearGradient id="paint17_linear_190_73" x1="9.49999" y1="10.5" x2="113" y2="114" gradientUnits="userSpaceOnUse">
<stop stop-color="#001425"/>
<stop offset="1" stop-color="#176A6C"/>
</linearGradient>
<linearGradient id="paint18_linear_190_73" x1="9.49999" y1="10.5" x2="113" y2="114" gradientUnits="userSpaceOnUse">
<stop stop-color="#001425"/>
<stop offset="1" stop-color="#176A6C"/>
</linearGradient>
<linearGradient id="paint19_linear_190_73" x1="9.49999" y1="10.5" x2="113" y2="114" gradientUnits="userSpaceOnUse">
<stop stop-color="#001425"/>
<stop offset="1" stop-color="#176A6C"/>
</linearGradient>
<linearGradient id="paint20_linear_190_73" x1="9.49999" y1="10.5" x2="113" y2="114" gradientUnits="userSpaceOnUse">
<stop stop-color="#001425"/>
<stop offset="1" stop-color="#176A6C"/>
</linearGradient>
<linearGradient id="paint21_linear_190_73" x1="9.49999" y1="10.5" x2="113" y2="114" gradientUnits="userSpaceOnUse">
<stop stop-color="#001425"/>
<stop offset="1" stop-color="#176A6C"/>
</linearGradient>
<linearGradient id="paint22_linear_190_73" x1="9.49999" y1="10.5" x2="113" y2="114" gradientUnits="userSpaceOnUse">
<stop stop-color="#001425"/>
<stop offset="1" stop-color="#176A6C"/>
</linearGradient>
<linearGradient id="paint23_linear_190_73" x1="9.49999" y1="10.5" x2="113" y2="114" gradientUnits="userSpaceOnUse">
<stop stop-color="#001425"/>
<stop offset="1" stop-color="#176A6C"/>
</linearGradient>
<linearGradient id="paint24_linear_190_73" x1="9.49999" y1="10.5" x2="113" y2="114" gradientUnits="userSpaceOnUse">
<stop stop-color="#001425"/>
<stop offset="1" stop-color="#176A6C"/>
</linearGradient>
<linearGradient id="paint25_linear_190_73" x1="9.49999" y1="10.5" x2="113" y2="114" gradientUnits="userSpaceOnUse">
<stop stop-color="#001425"/>
<stop offset="1" stop-color="#176A6C"/>
</linearGradient>
<linearGradient id="paint26_linear_190_73" x1="9.49999" y1="10.5" x2="113" y2="114" gradientUnits="userSpaceOnUse">
<stop stop-color="#001425"/>
<stop offset="1" stop-color="#176A6C"/>
</linearGradient>
<linearGradient id="paint27_linear_190_73" x1="9.49999" y1="10.5" x2="113" y2="114" gradientUnits="userSpaceOnUse">
<stop stop-color="#001425"/>
<stop offset="1" stop-color="#176A6C"/>
</linearGradient>
<linearGradient id="paint28_linear_190_73" x1="9.49999" y1="10.5" x2="113" y2="114" gradientUnits="userSpaceOnUse">
<stop stop-color="#001425"/>
<stop offset="1" stop-color="#176A6C"/>
</linearGradient>
</defs>
</svg>
