<svg width="493" height="277" viewBox="0 0 493 277" fill="none" xmlns="http://www.w3.org/2000/svg">
<path d="M420.786 1.38286C418.452 2.2387 413.89 3.20153 410.707 3.52247C403.917 4.16435 402.325 5.02019 407.736 5.02019C409.964 5.02019 412.086 5.76905 413.147 6.94584C416.648 10.7971 411.874 11.653 406.039 8.12262C403.917 6.94584 399.991 5.23415 397.233 4.48529C394.368 3.73643 391.186 2.77361 390.019 2.34569C388.427 1.81078 388.321 1.91776 389.382 2.66663C390.443 3.41549 388.958 3.84341 383.865 4.16435C379.303 4.37831 376.12 3.95039 374.953 3.09455C373.999 2.45267 371.24 1.81078 368.906 1.91776C364.45 2.02474 364.556 2.13173 369.861 3.52247L373.044 4.27133L369.861 5.02019C367.527 5.66207 368.8 5.87603 374.317 5.98301C379.94 6.08999 382.91 6.6249 385.457 8.2296C387.366 9.40638 389.488 10.3692 390.019 10.3692C390.655 10.2622 389.382 9.40638 387.366 8.2296C383.865 6.30395 383.865 6.19697 386.305 6.08999C389.806 6.08999 396.915 8.12262 396.915 9.19242C396.915 10.6901 393.095 13.5786 391.186 13.5786C390.231 13.5786 387.048 12.4018 384.183 10.9041C376.969 7.26678 376.333 7.58772 382.698 11.653C387.791 15.0763 388.109 15.1833 398.718 14.8624C404.66 14.6484 411.556 14.0065 413.996 13.2577C418.027 12.0809 418.982 12.1879 422.801 14.1135C426.196 15.7182 429.167 16.2531 435.851 16.2531C445.93 16.1461 446.354 17.002 436.912 17.9648L430.334 18.6067L437.761 18.8206L445.187 19.0346L442.641 21.0672C438.822 24.2766 433.093 23.8487 427.682 19.8904C425.242 18.0718 423.544 17.2159 423.969 17.8578C425.454 20.3184 434.472 25.3464 437.336 25.3464C440.413 25.3464 445.718 21.7091 445.718 19.5695C445.718 18.8206 447.627 17.002 449.961 15.3973L454.205 12.6158L456.751 14.9694C461.313 19.1416 461.632 19.4625 463.86 22.137L465.981 24.8115L464.178 21.8161L462.48 18.9276H467.255C471.286 18.9276 472.135 19.3555 472.771 21.2812C473.408 23.3138 473.62 22.9929 474.363 18.9276C474.999 15.0763 478.394 6.41093 481.577 0.527021C481.683 0.206081 479.88 0.313061 477.333 0.954943C474.787 1.48984 470.437 1.7038 467.467 1.38286C463.754 0.847961 462.587 1.06192 463.754 1.81078C464.602 2.34569 467.573 3.20153 470.331 3.52247C473.302 3.95039 475.106 4.69925 474.787 5.23415C473.726 6.94584 465.451 5.55509 460.465 2.88059C455.478 0.313061 451.022 0.527021 447.733 3.52247C446.142 4.91321 445.505 4.91321 441.368 2.66663C435.639 -0.328821 426.621 -0.863722 420.786 1.38286ZM432.35 1.91776C431.926 2.66663 432.35 2.88059 433.835 2.45267C436.169 1.7038 441.898 4.05737 443.171 6.30395C443.808 7.37376 443.596 7.48074 442.429 6.30395C440.307 4.37831 438.822 4.69925 440.519 6.83886C441.898 8.55054 441.898 8.55054 439.352 6.83886C435.533 4.16435 434.366 4.59227 437.23 7.6947C440.413 11.1181 439.246 11.225 435.851 7.80168L433.305 5.23415L435.533 4.05737C437.442 2.98757 437.548 2.88059 435.639 3.52247C434.472 3.95039 431.395 4.59227 428.743 4.91321C426.09 5.34113 422.908 6.30395 421.634 6.94584C418.664 8.65752 416.86 8.55054 414.42 6.73187C412.51 5.34113 412.935 5.02019 419.194 3.09455C426.939 0.634001 433.517 -0.00787926 432.35 1.91776ZM458.979 5.23415C460.995 6.6249 462.693 8.01564 462.693 8.44356C462.693 9.8343 461.419 9.40638 457.812 6.6249C453.675 3.41549 451.765 3.30851 449.855 5.76905C448.688 7.37376 448.688 7.48074 449.961 6.30395C452.189 4.27133 454.417 4.80623 458.131 8.2296C460.571 10.3692 461.313 11.8669 460.889 13.5786C460.359 15.6112 460.146 15.7182 458.449 14.1135C457.388 13.1507 455.903 10.9041 455.266 9.19242L453.993 6.08999L450.28 9.2994C446.248 12.9367 445.187 13.2577 444.338 10.9041C443.596 9.08544 450.598 2.88059 453.356 2.88059C454.417 2.88059 456.964 3.95039 458.979 5.23415ZM401.901 8.2296C404.66 9.40638 406.463 10.6901 406.145 11.1181C405.72 11.439 404.766 11.1181 403.917 10.3692C402.962 9.72732 399.567 8.12262 396.172 7.05282C392.565 5.76905 391.504 5.23415 393.52 5.55509C395.535 5.76905 399.249 7.05282 401.901 8.2296ZM432.138 7.90866C434.153 10.3692 435.214 14.4345 433.941 15.1833C432.668 16.0392 424.499 13.7926 421.316 11.653L418.664 10.0483L422.908 8.12262C428.424 5.66207 430.228 5.66207 432.138 7.90866ZM472.135 9.94128C472.347 10.1552 470.65 10.3692 468.209 10.3692C465.769 10.3692 463.754 9.94128 463.754 9.40638C463.754 8.44356 471.074 8.97846 472.135 9.94128ZM402.856 11.332C403.386 11.8669 405.296 12.5088 406.994 12.8297C408.797 13.0437 407.524 13.2577 404.341 13.2577C401.158 13.3646 399.461 13.0437 400.522 12.8297C402.113 12.4018 402.219 12.0809 401.052 11.332C400.204 10.7971 400.097 10.3692 400.734 10.3692C401.265 10.3692 402.219 10.7971 402.856 11.332ZM443.171 13.4716C442.11 15.1833 438.291 14.8624 438.291 13.1507C438.291 11.439 441.474 10.2622 442.959 11.546C443.384 11.9739 443.49 12.8297 443.171 13.4716ZM450.492 13.0437C448.794 14.5414 446.885 15.7182 446.248 15.7182C445.718 15.7182 446.672 14.5414 448.37 13.0437C450.174 11.653 452.083 10.4762 452.614 10.4762C453.25 10.4762 452.295 11.653 450.492 13.0437ZM413.571 12.0809C413.253 12.4018 412.298 12.5088 411.556 12.1879C410.707 11.8669 411.025 11.546 412.192 11.546C413.359 11.439 413.996 11.7599 413.571 12.0809ZM468.74 12.5088C470.862 12.5088 471.286 12.9367 470.968 14.8624C470.544 18.0718 465.027 18.9276 463.117 16.2531C461.419 14.0065 462.374 11.1181 464.496 11.8669C465.345 12.1879 467.255 12.5088 468.74 12.5088Z" fill="#A1A1A1"/>
<path d="M487.82 11.5731C485.556 12.9374 480.822 14.9315 477.219 15.8761C472.382 17.2405 471.147 17.9752 472.279 18.6049C473.309 19.2346 473.926 21.0188 473.926 23.7475C473.926 27.7357 473.823 27.8407 471.662 26.7912C469.398 25.6367 469.398 25.6367 471.353 27.211C472.485 28.0506 473.823 29.2051 474.235 29.8348C474.749 30.3595 476.293 32.0388 477.631 33.6131L480.101 36.3418L477.94 40.2251C476.705 42.3241 474.235 45.0529 472.485 46.2073C469.809 47.9915 469.295 49.0411 468.986 53.1342C468.677 57.3323 469.192 58.6967 472.382 62.9997C474.441 65.7285 476.499 68.982 477.014 70.1365C477.631 71.7108 477.94 71.9207 477.94 70.7662C478.043 69.8216 476.396 66.9879 474.441 64.3641C470.015 58.5917 468.883 53.1342 471.25 49.3559C472.177 47.8866 473.309 46.7321 473.72 46.7321C474.132 46.7321 474.338 49.6708 474.235 53.2392L474.132 59.8512L474.955 53.7639C475.367 50.4054 476.293 47.047 476.911 46.4173C477.94 45.4727 478.043 45.8925 477.322 48.3064C475.882 53.7639 476.602 62.7898 478.866 67.3028C480.822 71.186 480.822 71.9207 479.484 77.6931C478.763 81.1565 478.146 85.3546 478.146 87.1388L478.249 90.2873L479.072 87.1388L479.895 83.9902L479.998 87.1388C479.998 88.923 479.278 91.4418 478.352 92.8062C477.425 94.2755 477.219 95.0102 477.94 94.5904C478.866 93.9607 478.866 94.2755 477.837 95.9548C476.705 97.9489 476.911 98.9984 479.998 104.981C484.321 113.167 485.556 113.272 481.645 105.086C479.792 101.097 479.072 98.5786 479.587 96.8993C480.307 94.8003 480.513 94.9052 482.057 98.8934C484.424 104.981 485.659 105.925 483.497 99.943C482.16 96.1647 482.057 94.6953 482.983 93.7508C483.909 92.8062 484.424 93.1211 485.144 95.1152C486.585 98.6835 486.482 96.0597 485.144 91.9666C484.218 89.3428 483.703 88.923 482.571 89.8675C481.439 90.8121 481.13 90.7072 481.13 89.3428C481.13 88.2933 481.645 87.8734 482.16 88.1883C483.6 89.1329 483.497 87.3487 481.954 85.7744C481.233 85.0397 481.13 84.515 481.748 84.515C483.909 84.515 486.791 93.226 486.791 99.838C486.791 103.406 486.379 106.135 485.968 105.82C485.453 105.505 485.556 106.135 486.07 107.29C486.688 108.339 486.997 113.797 486.894 119.254C486.688 124.712 486.791 126.286 486.997 122.823L487.511 116.525L489.467 120.724L491.422 124.922L490.908 120.409C490.599 117.89 489.775 115.056 489.158 113.902C488.232 112.432 488.232 110.228 488.952 105.4C489.878 99.943 489.775 98.0538 488.129 93.1211C487.1 89.8675 485.35 85.6694 484.218 83.7803C482.88 81.3664 482.365 79.2673 482.777 77.5881L483.395 74.9643L485.762 77.1683C487.305 78.6376 487.923 80.3169 487.717 82.206C487.511 83.7803 487.82 83.1506 488.438 80.8416C488.952 78.5327 490.084 74.2296 490.908 71.291C493.275 63.1047 492.863 55.2332 489.981 49.5658C487.82 45.4727 487.614 44.6331 488.952 43.4786C491.937 40.9597 492.348 36.027 489.878 30.9892C486.791 24.5872 485.968 19.7593 487.511 17.0306C488.643 14.9315 488.849 15.3513 489.467 20.8089C490.599 30.7793 491.937 29.6249 491.937 18.8148C491.937 13.3572 491.937 8.94925 491.937 9.0542C491.937 9.0542 490.084 10.2087 487.82 11.5731ZM480.925 24.2723C480.925 28.4704 480.719 28.8902 478.455 28.8902C476.19 28.8902 475.984 28.4704 475.984 24.2723C475.984 20.1791 476.19 19.6544 478.352 19.6544C480.513 19.6544 480.822 20.1791 480.925 24.2723ZM484.115 26.0565C484.218 27.106 483.806 27.6308 483.189 27.3159C482.674 27.0011 482.16 24.902 482.262 22.803C482.365 19.3395 482.468 19.2346 483.189 21.5435C483.6 23.0129 484.012 25.007 484.115 26.0565ZM489.673 37.8112C488.849 40.9597 484.321 46.7321 482.674 46.7321C479.998 46.7321 480.204 44.9479 483.189 40.7498L486.276 36.4468L483.292 35.1873C481.645 34.5576 479.484 33.0883 478.455 31.9338C476.808 30.0447 476.808 29.9397 479.381 29.9397C481.233 29.9397 483.395 31.3041 485.865 33.823C489.261 37.4963 489.364 37.4963 486.894 34.3477C483.189 29.5199 483.6 27.5258 487.305 32.0388C489.364 34.4527 490.084 36.4468 489.673 37.8112ZM480.925 40.9597C479.587 42.9538 478.146 44.6331 477.631 44.6331C476.808 44.6331 477.631 43.1637 481.027 39.0706C483.395 36.1319 483.395 37.0765 480.925 40.9597ZM481.954 49.146C482.16 50.1955 481.542 51.2451 480.616 51.5599C478.455 52.5045 477.734 51.5599 478.557 48.8312C479.381 46.3123 481.439 46.5222 481.954 49.146ZM489.981 52.6094C491.937 57.3323 491.834 63.4195 489.673 70.8712C487.717 77.5881 486.997 78.3228 485.247 75.1742C484.424 73.5999 484.732 71.7108 486.379 67.6176C488.746 61.3205 488.335 58.1719 484.732 54.4986C481.954 51.6649 482.468 51.0352 485.453 53.7639C487.717 55.863 487.923 54.3936 485.659 51.1401C484.835 49.8807 484.321 48.8312 484.732 48.8312C485.041 48.8312 486.173 50.4054 487.305 52.1896C488.438 54.0788 489.364 54.9184 489.364 54.0788C489.364 53.1342 488.54 51.35 487.614 49.9856C486.688 48.5163 486.482 47.7816 487.203 48.3064C487.923 48.7262 489.158 50.6153 489.981 52.6094ZM481.233 57.4372C481.233 58.4868 481.439 58.4868 481.851 57.4372C482.262 56.3877 482.777 56.4927 484.321 57.8571C486.688 60.0611 486.791 62.7898 484.424 68.1424L482.571 72.3405L480.307 66.9879C477.631 60.5858 477.322 56.1778 479.587 56.1778C480.41 56.1778 481.13 56.8075 481.233 57.4372ZM480.822 81.5763C480.513 82.311 480.307 81.7862 480.307 80.3169C480.307 78.8475 480.513 78.3228 480.822 78.9525C481.027 79.6872 481.027 80.9466 480.822 81.5763Z" fill="#A1A1A1"/>
<path d="M420.786 275.617C418.452 274.762 413.89 273.799 410.707 273.478C403.917 272.836 402.325 271.98 407.736 271.98C409.964 271.98 412.086 271.231 413.147 270.054C416.648 266.203 411.874 265.347 406.039 268.878C403.917 270.054 399.991 271.766 397.233 272.515C394.368 273.264 391.186 274.227 390.019 274.655C388.427 275.189 388.321 275.082 389.382 274.334C390.443 273.585 388.958 273.157 383.865 272.836C379.303 272.622 376.12 273.05 374.953 273.906C373.999 274.548 371.24 275.189 368.906 275.082C364.45 274.976 364.556 274.869 369.861 273.478L373.044 272.729L369.861 271.98C367.527 271.338 368.8 271.124 374.317 271.017C379.94 270.91 382.91 270.375 385.457 268.771C387.366 267.594 389.488 266.631 390.019 266.631C390.655 266.738 389.382 267.594 387.366 268.771C383.865 270.696 383.865 270.803 386.305 270.91C389.806 270.91 396.915 268.878 396.915 267.808C396.915 266.31 393.095 263.422 391.186 263.422C390.231 263.422 387.048 264.598 384.183 266.096C376.969 269.733 376.333 269.413 382.698 265.347C387.791 261.924 388.109 261.817 398.718 262.138C404.66 262.352 411.556 262.994 413.996 263.743C418.027 264.919 418.982 264.812 422.801 262.887C426.196 261.282 429.167 260.747 435.851 260.747C445.93 260.854 446.354 259.998 436.912 259.035L430.334 258.394L437.761 258.18L445.187 257.966L442.641 255.933C438.822 252.724 433.093 253.152 427.682 257.11C425.242 258.928 423.544 259.784 423.969 259.142C425.454 256.682 434.472 251.654 437.336 251.654C440.413 251.654 445.718 255.291 445.718 257.431C445.718 258.18 447.627 259.998 449.961 261.603L454.205 264.384L456.751 262.031C461.313 257.859 461.632 257.538 463.86 254.863L465.981 252.189L464.178 255.184L462.48 258.073H467.255C471.286 258.073 472.135 257.645 472.771 255.719C473.408 253.686 473.62 254.007 474.363 258.073C474.999 261.924 478.394 270.589 481.577 276.473C481.683 276.794 479.88 276.687 477.333 276.045C474.787 275.51 470.437 275.296 467.467 275.617C463.754 276.152 462.587 275.938 463.754 275.189C464.602 274.655 467.573 273.799 470.331 273.478C473.302 273.05 475.106 272.301 474.787 271.766C473.726 270.054 465.451 271.445 460.465 274.12C455.478 276.687 451.022 276.473 447.733 273.478C446.142 272.087 445.505 272.087 441.368 274.334C435.639 277.329 426.621 277.864 420.786 275.617ZM432.35 275.082C431.926 274.334 432.35 274.12 433.835 274.548C436.169 275.296 441.898 272.943 443.171 270.696C443.808 269.626 443.596 269.52 442.429 270.696C440.307 272.622 438.822 272.301 440.519 270.161C441.898 268.45 441.898 268.45 439.352 270.161C435.533 272.836 434.366 272.408 437.23 269.306C440.413 265.882 439.246 265.775 435.851 269.199L433.305 271.766L435.533 272.943C437.442 274.013 437.548 274.12 435.639 273.478C434.472 273.05 431.395 272.408 428.743 272.087C426.09 271.659 422.908 270.696 421.634 270.054C418.664 268.343 416.86 268.45 414.42 270.268C412.51 271.659 412.935 271.98 419.194 273.906C426.939 276.366 433.517 277.008 432.35 275.082ZM458.979 271.766C460.995 270.375 462.693 268.985 462.693 268.557C462.693 267.166 461.419 267.594 457.812 270.375C453.675 273.585 451.765 273.692 449.855 271.231C448.688 269.626 448.688 269.52 449.961 270.696C452.189 272.729 454.417 272.194 458.131 268.771C460.571 266.631 461.313 265.133 460.889 263.422C460.359 261.389 460.146 261.282 458.449 262.887C457.388 263.85 455.903 266.096 455.266 267.808L453.993 270.91L450.28 267.701C446.248 264.064 445.187 263.743 444.338 266.096C443.596 267.915 450.598 274.12 453.356 274.12C454.417 274.12 456.964 273.05 458.979 271.766ZM401.901 268.771C404.66 267.594 406.463 266.31 406.145 265.882C405.72 265.561 404.766 265.882 403.917 266.631C402.962 267.273 399.567 268.878 396.172 269.947C392.565 271.231 391.504 271.766 393.52 271.445C395.535 271.231 399.249 269.947 401.901 268.771ZM432.138 269.092C434.153 266.631 435.214 262.566 433.941 261.817C432.668 260.961 424.499 263.208 421.316 265.347L418.664 266.952L422.908 268.878C428.424 271.338 430.228 271.338 432.138 269.092ZM472.135 267.059C472.347 266.845 470.65 266.631 468.209 266.631C465.769 266.631 463.754 267.059 463.754 267.594C463.754 268.557 471.074 268.022 472.135 267.059ZM402.856 265.668C403.386 265.133 405.296 264.491 406.994 264.17C408.797 263.957 407.524 263.743 404.341 263.743C401.158 263.636 399.461 263.957 400.522 264.17C402.113 264.598 402.219 264.919 401.052 265.668C400.204 266.203 400.097 266.631 400.734 266.631C401.265 266.631 402.219 266.203 402.856 265.668ZM443.171 263.529C442.11 261.817 438.291 262.138 438.291 263.85C438.291 265.561 441.474 266.738 442.959 265.454C443.384 265.026 443.49 264.17 443.171 263.529ZM450.492 263.957C448.794 262.459 446.885 261.282 446.248 261.282C445.718 261.282 446.672 262.459 448.37 263.957C450.174 265.347 452.083 266.524 452.614 266.524C453.25 266.524 452.295 265.347 450.492 263.957ZM413.571 264.919C413.253 264.598 412.298 264.491 411.556 264.812C410.707 265.133 411.025 265.454 412.192 265.454C413.359 265.561 413.996 265.24 413.571 264.919ZM468.74 264.491C470.862 264.491 471.286 264.064 470.968 262.138C470.544 258.928 465.027 258.073 463.117 260.747C461.419 262.994 462.374 265.882 464.496 265.133C465.345 264.812 467.255 264.491 468.74 264.491Z" fill="#A1A1A1"/>
<path d="M487.82 265.427C485.556 264.063 480.822 262.069 477.219 261.124C472.382 259.76 471.147 259.025 472.279 258.395C473.309 257.766 473.926 255.981 473.926 253.253C473.926 249.265 473.823 249.16 471.662 250.209C469.398 251.364 469.398 251.364 471.353 249.789C472.485 248.95 473.823 247.795 474.235 247.165C474.749 246.641 476.293 244.961 477.631 243.387L480.101 240.658L477.94 236.775C476.705 234.676 474.235 231.947 472.485 230.793C469.809 229.009 469.295 227.959 468.986 223.866C468.677 219.668 469.192 218.304 472.382 214.001C474.441 211.272 476.499 208.018 477.014 206.864C477.631 205.289 477.94 205.08 477.94 206.234C478.043 207.179 476.396 210.012 474.441 212.636C470.015 218.409 468.883 223.866 471.25 227.644C472.177 229.114 473.309 230.268 473.72 230.268C474.132 230.268 474.338 227.329 474.235 223.761L474.132 217.149L474.955 223.236C475.367 226.595 476.293 229.953 476.911 230.583C477.94 231.528 478.043 231.108 477.322 228.694C475.882 223.236 476.602 214.21 478.866 209.697C480.822 205.814 480.822 205.08 479.484 199.307C478.763 195.844 478.146 191.646 478.146 189.861L478.249 186.713L479.072 189.861L479.895 193.01L479.998 189.861C479.998 188.077 479.278 185.558 478.352 184.194C477.425 182.725 477.219 181.99 477.94 182.41C478.866 183.04 478.866 182.725 477.837 181.045C476.705 179.051 476.911 178.002 479.998 172.02C484.321 163.833 485.556 163.728 481.645 171.915C479.792 175.903 479.072 178.422 479.587 180.101C480.307 182.2 480.513 182.095 482.057 178.107C484.424 172.02 485.659 171.075 483.497 177.057C482.16 180.836 482.057 182.305 482.983 183.249C483.909 184.194 484.424 183.879 485.144 181.885C486.585 178.317 486.482 180.941 485.144 185.034C484.218 187.657 483.703 188.077 482.571 187.133C481.439 186.188 481.13 186.293 481.13 187.657C481.13 188.707 481.645 189.127 482.16 188.812C483.6 187.867 483.497 189.652 481.954 191.226C481.233 191.961 481.13 192.485 481.748 192.485C483.909 192.485 486.791 183.774 486.791 177.162C486.791 173.594 486.379 170.865 485.968 171.18C485.453 171.495 485.556 170.865 486.07 169.711C486.688 168.661 486.997 163.204 486.894 157.746C486.688 152.289 486.791 150.714 486.997 154.178L487.511 160.475L489.467 156.277L491.422 152.079L490.908 156.592C490.599 159.11 489.775 161.944 489.158 163.099C488.232 164.568 488.232 166.772 488.952 171.6C489.878 177.057 489.775 178.946 488.129 183.879C487.1 187.133 485.35 191.331 484.218 193.22C482.88 195.634 482.365 197.733 482.777 199.412L483.395 202.036L485.762 199.832C487.305 198.363 487.923 196.683 487.717 194.794C487.511 193.22 487.82 193.85 488.438 196.159C488.952 198.468 490.084 202.771 490.908 205.709C493.275 213.896 492.863 221.767 489.981 227.434C487.82 231.528 487.614 232.367 488.952 233.522C491.937 236.041 492.348 240.973 489.878 246.011C486.791 252.413 485.968 257.241 487.511 259.97C488.643 262.069 488.849 261.649 489.467 256.191C490.599 246.221 491.937 247.375 491.937 258.185C491.937 263.643 491.937 268.051 491.937 267.946C491.937 267.946 490.084 266.792 487.82 265.427ZM480.925 252.728C480.925 248.53 480.719 248.11 478.455 248.11C476.19 248.11 475.984 248.53 475.984 252.728C475.984 256.821 476.19 257.346 478.352 257.346C480.513 257.346 480.822 256.821 480.925 252.728ZM484.115 250.944C484.218 249.894 483.806 249.369 483.189 249.684C482.674 249.999 482.16 252.098 482.262 254.197C482.365 257.661 482.468 257.766 483.189 255.457C483.6 253.987 484.012 251.993 484.115 250.944ZM489.673 239.189C488.849 236.041 484.321 230.268 482.674 230.268C479.998 230.268 480.204 232.052 483.189 236.25L486.276 240.553L483.292 241.813C481.645 242.443 479.484 243.912 478.455 245.066C476.808 246.956 476.808 247.061 479.381 247.061C481.233 247.061 483.395 245.696 485.865 243.177C489.261 239.504 489.364 239.504 486.894 242.653C483.189 247.48 483.6 249.474 487.305 244.961C489.364 242.548 490.084 240.553 489.673 239.189ZM480.925 236.041C479.587 234.046 478.146 232.367 477.631 232.367C476.808 232.367 477.631 233.837 481.027 237.93C483.395 240.868 483.395 239.924 480.925 236.041ZM481.954 227.854C482.16 226.805 481.542 225.755 480.616 225.44C478.455 224.496 477.734 225.44 478.557 228.169C479.381 230.688 481.439 230.478 481.954 227.854ZM489.981 224.391C491.937 219.668 491.834 213.581 489.673 206.129C487.717 199.412 486.997 198.677 485.247 201.826C484.424 203.4 484.732 205.289 486.379 209.383C488.746 215.68 488.335 218.828 484.732 222.502C481.954 225.335 482.468 225.965 485.453 223.236C487.717 221.137 487.923 222.607 485.659 225.86C484.835 227.12 484.321 228.169 484.732 228.169C485.041 228.169 486.173 226.595 487.305 224.811C488.438 222.921 489.364 222.082 489.364 222.921C489.364 223.866 488.54 225.65 487.614 227.015C486.688 228.484 486.482 229.219 487.203 228.694C487.923 228.274 489.158 226.385 489.981 224.391ZM481.233 219.563C481.233 218.513 481.439 218.513 481.851 219.563C482.262 220.613 482.777 220.508 484.321 219.143C486.688 216.939 486.791 214.21 484.424 208.858L482.571 204.66L480.307 210.012C477.631 216.414 477.322 220.822 479.587 220.822C480.41 220.822 481.13 220.193 481.233 219.563ZM480.822 195.424C480.513 194.689 480.307 195.214 480.307 196.683C480.307 198.153 480.513 198.677 480.822 198.048C481.027 197.313 481.027 196.054 480.822 195.424Z" fill="#A1A1A1"/>
<path d="M71.6589 275.617C73.9929 274.762 78.555 273.799 81.7378 273.478C88.5277 272.836 90.1191 271.98 84.7084 271.98C82.4804 271.98 80.3585 271.231 79.2976 270.054C75.7965 266.203 80.5707 265.347 86.4059 268.878C88.5277 270.054 92.4532 271.766 95.2116 272.515C98.0761 273.264 101.259 274.227 102.426 274.655C104.017 275.189 104.123 275.082 103.063 274.334C102.002 273.585 103.487 273.157 108.579 272.836C113.141 272.622 116.324 273.05 117.491 273.906C118.446 274.548 121.204 275.189 123.539 275.082C127.994 274.976 127.888 274.869 122.584 273.478L119.401 272.729L122.584 271.98C124.918 271.338 123.645 271.124 118.128 271.017C112.505 270.91 109.534 270.375 106.988 268.771C105.078 267.594 102.956 266.631 102.426 266.631C101.789 266.738 103.063 267.594 105.078 268.771C108.579 270.696 108.579 270.803 106.139 270.91C102.638 270.91 95.5299 268.878 95.5299 267.808C95.5299 266.31 99.3493 263.422 101.259 263.422C102.214 263.422 105.397 264.598 108.261 266.096C115.475 269.733 116.112 269.413 109.746 265.347C104.654 261.924 104.336 261.817 93.7263 262.138C87.7851 262.352 80.889 262.994 78.4489 263.743C74.4173 264.919 73.4625 264.812 69.6431 262.887C66.2481 261.282 63.2775 260.747 56.5936 260.747C46.5147 260.854 46.0904 259.998 55.5327 259.035L62.1105 258.394L54.6839 258.18L47.2574 257.966L49.8036 255.933C53.623 252.724 59.352 253.152 64.7628 257.11C67.203 258.928 68.9004 259.784 68.4761 259.142C66.9908 256.682 57.9728 251.654 55.1083 251.654C52.0316 251.654 46.7269 255.291 46.7269 257.431C46.7269 258.18 44.8172 259.998 42.4832 261.603L38.2395 264.384L35.6932 262.031C31.1312 257.859 30.8129 257.538 28.585 254.863L26.4631 252.189L28.2667 255.184L29.9642 258.073H25.19C21.1584 258.073 20.3097 257.645 19.6731 255.719C19.0366 253.686 18.8244 254.007 18.0817 258.073C17.4452 261.924 14.0502 270.589 10.8674 276.473C10.7613 276.794 12.5648 276.687 15.1111 276.045C17.6573 275.51 22.0072 275.296 24.9778 275.617C28.691 276.152 29.8581 275.938 28.691 275.189C27.8423 274.655 24.8717 273.799 22.1133 273.478C19.1426 273.05 17.3391 272.301 17.6573 271.766C18.7183 270.054 26.9936 271.445 31.9799 274.12C36.9663 276.687 41.4223 276.473 44.7112 273.478C46.3026 272.087 46.9391 272.087 51.0768 274.334C56.8058 277.329 65.8237 277.864 71.6589 275.617ZM60.0947 275.082C60.5191 274.334 60.0947 274.12 58.6094 274.548C56.2753 275.296 50.5463 272.943 49.2732 270.696C48.6366 269.626 48.8488 269.52 50.0158 270.696C52.1377 272.622 53.623 272.301 51.9255 270.161C50.5463 268.45 50.5463 268.45 53.0925 270.161C56.9119 272.836 58.0789 272.408 55.2144 269.306C52.0316 265.882 53.1986 265.775 56.5936 269.199L59.1399 271.766L56.9119 272.943C55.0022 274.013 54.8961 274.12 56.8058 273.478C57.9728 273.05 61.0495 272.408 63.7019 272.087C66.3542 271.659 69.537 270.696 70.8101 270.054C73.7807 268.343 75.5843 268.45 78.0245 270.268C79.9342 271.659 79.5098 271.98 73.2503 273.906C65.5055 276.366 58.9277 277.008 60.0947 275.082ZM33.4653 271.766C31.4495 270.375 29.752 268.985 29.752 268.557C29.752 267.166 31.0251 267.594 34.6323 270.375C38.7699 273.585 40.6796 273.692 42.5893 271.231C43.7563 269.626 43.7563 269.52 42.4832 270.696C40.2552 272.729 38.0273 272.194 34.314 268.771C31.8739 266.631 31.1312 265.133 31.5556 263.422C32.086 261.389 32.2982 261.282 33.9957 262.887C35.0567 263.85 36.542 266.096 37.1785 267.808L38.4516 270.91L42.1649 267.701C46.1965 264.064 47.2574 263.743 48.1061 266.096C48.8488 267.915 41.8466 274.12 39.0882 274.12C38.0273 274.12 35.481 273.05 33.4653 271.766ZM90.5435 268.771C87.7851 267.594 85.9815 266.31 86.2998 265.882C86.7241 265.561 87.679 265.882 88.5277 266.631C89.4826 267.273 92.8776 268.878 96.2725 269.947C99.8797 271.231 100.941 271.766 98.9249 271.445C96.9091 271.231 93.1958 269.947 90.5435 268.771ZM60.3069 269.092C58.2911 266.631 57.2302 262.566 58.5033 261.817C59.7764 260.961 67.9456 263.208 71.1284 265.347L73.7807 266.952L69.537 268.878C64.0202 271.338 62.2166 271.338 60.3069 269.092ZM20.3097 267.059C20.0975 266.845 21.795 266.631 24.2351 266.631C26.6753 266.631 28.691 267.059 28.691 267.594C28.691 268.557 21.3706 268.022 20.3097 267.059ZM89.5887 265.668C89.0582 265.133 87.1485 264.491 85.451 264.17C83.6474 263.957 84.9206 263.743 88.1034 263.743C91.2862 263.636 92.9837 263.957 91.9227 264.17C90.3313 264.598 90.2252 264.919 91.3923 265.668C92.241 266.203 92.3471 266.631 91.7105 266.631C91.1801 266.631 90.2252 266.203 89.5887 265.668ZM49.2732 263.529C50.3341 261.817 54.1535 262.138 54.1535 263.85C54.1535 265.561 50.9707 266.738 49.4854 265.454C49.061 265.026 48.9549 264.17 49.2732 263.529ZM41.9527 263.957C43.6502 262.459 45.5599 261.282 46.1965 261.282C46.7269 261.282 45.7721 262.459 44.0746 263.957C42.271 265.347 40.3613 266.524 39.8309 266.524C39.1943 266.524 40.1491 265.347 41.9527 263.957ZM78.8732 264.919C79.1915 264.598 80.1464 264.491 80.889 264.812C81.7378 265.133 81.4195 265.454 80.2524 265.454C79.0854 265.561 78.4489 265.24 78.8732 264.919ZM23.7047 264.491C21.5828 264.491 21.1584 264.064 21.4767 262.138C21.9011 258.928 27.4179 258.073 29.3276 260.747C31.0251 262.994 30.0703 265.882 27.9484 265.133C27.0996 264.812 25.19 264.491 23.7047 264.491Z" fill="#A1A1A1"/>
<path d="M4.62479 265.427C6.88898 264.063 11.6232 262.069 15.2253 261.124C20.0625 259.76 21.2975 259.025 20.1654 258.395C19.1362 257.766 18.5187 255.981 18.5187 253.253C18.5187 249.265 18.6216 249.16 20.7829 250.209C23.0471 251.364 23.0471 251.364 21.0916 249.789C19.9595 248.95 18.6216 247.795 18.2099 247.165C17.6954 246.641 16.1516 244.961 14.8137 243.387L12.3436 240.658L14.5049 236.775C15.7399 234.676 18.2099 231.947 19.9595 230.793C22.6354 229.009 23.15 227.959 23.4587 223.866C23.7675 219.668 23.2529 218.304 20.0625 214.001C18.0041 211.272 15.9457 208.018 15.4312 206.864C14.8137 205.289 14.5049 205.08 14.5049 206.234C14.402 207.179 16.0487 210.012 18.0041 212.636C22.4296 218.409 23.5617 223.866 21.1946 227.644C20.2683 229.114 19.1362 230.268 18.7245 230.268C18.3129 230.268 18.107 227.329 18.2099 223.761L18.3129 217.149L17.4895 223.236C17.0778 226.595 16.1516 229.953 15.5341 230.583C14.5049 231.528 14.402 231.108 15.1224 228.694C16.5633 223.236 15.8428 214.21 13.5786 209.697C11.6232 205.814 11.6232 205.08 12.9611 199.307C13.6816 195.844 14.2991 191.646 14.2991 189.861L14.1961 186.713L13.3728 189.861L12.5495 193.01L12.4465 189.861C12.4465 188.077 13.167 185.558 14.0932 184.194C15.0195 182.725 15.2253 181.99 14.5049 182.41C13.5786 183.04 13.5786 182.725 14.6078 181.045C15.7399 179.051 15.5341 178.002 12.4465 172.02C8.124 163.833 6.88898 163.728 10.7999 171.915C12.6524 175.903 13.3728 178.422 12.8582 180.101C12.1378 182.2 11.932 182.095 10.3882 178.107C8.02108 172.02 6.78607 171.075 8.94734 177.057C10.2853 180.836 10.3882 182.305 9.46193 183.249C8.53567 184.194 8.02108 183.879 7.30065 181.885C5.8598 178.317 5.96272 180.941 7.30065 185.034C8.22691 187.657 8.7415 188.077 9.8736 187.133C11.0057 186.188 11.3144 186.293 11.3144 187.657C11.3144 188.707 10.7999 189.127 10.2853 188.812C8.84442 187.867 8.94734 189.652 10.4911 191.226C11.2115 191.961 11.3144 192.485 10.6969 192.485C8.53567 192.485 5.65397 183.774 5.65397 177.162C5.65397 173.594 6.06564 170.865 6.47731 171.18C6.9919 171.495 6.88898 170.865 6.37439 169.711C5.75689 168.661 5.44813 163.204 5.55105 157.746C5.75689 152.289 5.65397 150.714 5.44813 154.178L4.93355 160.475L2.97811 156.277L1.02267 152.079L1.53726 156.592C1.84601 159.11 2.66935 161.944 3.28686 163.099C4.21312 164.568 4.21312 166.772 3.49269 171.6C2.56643 177.057 2.66935 178.946 4.31604 183.879C5.34522 187.133 7.09482 191.331 8.22691 193.22C9.56485 195.634 10.0794 197.733 9.66776 199.412L9.05026 202.036L6.68315 199.832C5.13938 198.363 4.52187 196.683 4.72771 194.794C4.93354 193.22 4.62479 193.85 4.00728 196.159C3.4927 198.468 2.3606 202.771 1.53726 205.709C-0.829853 213.896 -0.418182 221.767 2.46352 227.434C4.62479 231.528 4.83063 232.367 3.49269 233.522C0.50808 236.041 0.0964069 240.973 2.56643 246.011C5.65397 252.413 6.47731 257.241 4.93355 259.97C3.80145 262.069 3.59561 261.649 2.97811 256.191C1.84601 246.221 0.50808 247.375 0.50808 258.185C0.50808 263.643 0.50808 268.051 0.50808 267.946C0.50808 267.946 2.3606 266.792 4.62479 265.427ZM11.5203 252.728C11.5203 248.53 11.7261 248.11 13.9903 248.11C16.2545 248.11 16.4603 248.53 16.4603 252.728C16.4603 256.821 16.2545 257.346 14.0932 257.346C11.932 257.346 11.6232 256.821 11.5203 252.728ZM8.32983 250.944C8.22691 249.894 8.63859 249.369 9.25609 249.684C9.77068 249.999 10.2853 252.098 10.1824 254.197C10.0794 257.661 9.97652 257.766 9.25609 255.457C8.84442 253.987 8.43275 251.993 8.32983 250.944ZM2.77227 239.189C3.59561 236.041 8.124 230.268 9.77068 230.268C12.4465 230.268 12.2407 232.052 9.25609 236.25L6.16856 240.553L9.15317 241.813C10.7999 242.443 12.9611 243.912 13.9903 245.066C15.637 246.956 15.637 247.061 13.0641 247.061C11.2115 247.061 9.05026 245.696 6.58023 243.177C3.18394 239.504 3.08102 239.504 5.55105 242.653C9.25609 247.48 8.84442 249.474 5.13938 244.961C3.08102 242.548 2.3606 240.553 2.77227 239.189ZM11.5203 236.041C12.8582 234.046 14.2991 232.367 14.8137 232.367C15.637 232.367 14.8137 233.837 11.4174 237.93C9.05026 240.868 9.05026 239.924 11.5203 236.041ZM10.4911 227.854C10.2853 226.805 10.9028 225.755 11.829 225.44C13.9903 224.496 14.7107 225.44 13.8874 228.169C13.0641 230.688 11.0057 230.478 10.4911 227.854ZM2.46352 224.391C0.508078 219.668 0.610998 213.581 2.77227 206.129C4.72771 199.412 5.44813 198.677 7.19773 201.826C8.02108 203.4 7.71233 205.289 6.06564 209.383C3.69853 215.68 4.1102 218.828 7.71233 222.502C10.4911 225.335 9.97652 225.965 6.9919 223.236C4.72771 221.137 4.52187 222.607 6.78607 225.86C7.60941 227.12 8.124 228.169 7.71233 228.169C7.40357 228.169 6.27148 226.595 5.13938 224.811C4.00728 222.921 3.08102 222.082 3.08102 222.921C3.08102 223.866 3.90437 225.65 4.83063 227.015C5.75689 228.484 5.96272 229.219 5.2423 228.694C4.52187 228.274 3.28686 226.385 2.46352 224.391ZM11.2115 219.563C11.2115 218.513 11.0057 218.513 10.594 219.563C10.1824 220.613 9.66776 220.508 8.124 219.143C5.75689 216.939 5.65397 214.21 8.02108 208.858L9.8736 204.66L12.1378 210.012C14.8137 216.414 15.1224 220.822 12.8582 220.822C12.0349 220.822 11.3144 220.193 11.2115 219.563ZM11.6232 195.424C11.932 194.689 12.1378 195.214 12.1378 196.683C12.1378 198.153 11.932 198.677 11.6232 198.048C11.4174 197.313 11.4174 196.054 11.6232 195.424Z" fill="#A1A1A1"/>
<path d="M71.6589 1.38286C73.9929 2.2387 78.555 3.20153 81.7378 3.52247C88.5277 4.16435 90.1191 5.02019 84.7084 5.02019C82.4804 5.02019 80.3585 5.76905 79.2976 6.94584C75.7965 10.7971 80.5707 11.653 86.4059 8.12262C88.5277 6.94584 92.4532 5.23415 95.2116 4.48529C98.0761 3.73643 101.259 2.77361 102.426 2.34569C104.017 1.81078 104.123 1.91776 103.063 2.66663C102.002 3.41549 103.487 3.84341 108.579 4.16435C113.141 4.37831 116.324 3.95039 117.491 3.09455C118.446 2.45267 121.204 1.81078 123.539 1.91776C127.994 2.02474 127.888 2.13173 122.584 3.52247L119.401 4.27133L122.584 5.02019C124.918 5.66207 123.645 5.87603 118.128 5.98301C112.505 6.08999 109.534 6.6249 106.988 8.2296C105.078 9.40638 102.956 10.3692 102.426 10.3692C101.789 10.2622 103.063 9.40638 105.078 8.2296C108.579 6.30395 108.579 6.19697 106.139 6.08999C102.638 6.08999 95.5299 8.12262 95.5299 9.19242C95.5299 10.6901 99.3493 13.5786 101.259 13.5786C102.214 13.5786 105.397 12.4018 108.261 10.9041C115.475 7.26678 116.112 7.58772 109.746 11.653C104.654 15.0763 104.336 15.1833 93.7263 14.8624C87.7851 14.6484 80.889 14.0065 78.4489 13.2577C74.4173 12.0809 73.4625 12.1879 69.6431 14.1135C66.2481 15.7182 63.2775 16.2531 56.5936 16.2531C46.5147 16.1461 46.0904 17.002 55.5327 17.9648L62.1105 18.6067L54.6839 18.8206L47.2574 19.0346L49.8036 21.0672C53.623 24.2766 59.352 23.8487 64.7628 19.8904C67.203 18.0718 68.9004 17.2159 68.4761 17.8578C66.9908 20.3184 57.9728 25.3464 55.1083 25.3464C52.0316 25.3464 46.7269 21.7091 46.7269 19.5695C46.7269 18.8206 44.8172 17.002 42.4832 15.3973L38.2395 12.6158L35.6932 14.9694C31.1312 19.1416 30.8129 19.4625 28.585 22.137L26.4631 24.8115L28.2667 21.8161L29.9642 18.9276H25.19C21.1584 18.9276 20.3097 19.3555 19.6731 21.2812C19.0366 23.3138 18.8244 22.9929 18.0817 18.9276C17.4452 15.0763 14.0502 6.41093 10.8674 0.527021C10.7613 0.206081 12.5648 0.313061 15.1111 0.954943C17.6573 1.48984 22.0072 1.7038 24.9778 1.38286C28.691 0.847961 29.8581 1.06192 28.691 1.81078C27.8423 2.34569 24.8717 3.20153 22.1133 3.52247C19.1426 3.95039 17.3391 4.69925 17.6573 5.23415C18.7183 6.94584 26.9936 5.55509 31.9799 2.88059C36.9663 0.313061 41.4223 0.527021 44.7112 3.52247C46.3026 4.91321 46.9391 4.91321 51.0768 2.66663C56.8058 -0.328821 65.8237 -0.863722 71.6589 1.38286ZM60.0947 1.91776C60.5191 2.66663 60.0947 2.88059 58.6094 2.45267C56.2753 1.7038 50.5463 4.05737 49.2732 6.30395C48.6366 7.37376 48.8488 7.48074 50.0158 6.30395C52.1377 4.37831 53.623 4.69925 51.9255 6.83886C50.5463 8.55054 50.5463 8.55054 53.0925 6.83886C56.9119 4.16435 58.0789 4.59227 55.2144 7.6947C52.0316 11.1181 53.1986 11.225 56.5936 7.80168L59.1399 5.23415L56.9119 4.05737C55.0022 2.98757 54.8961 2.88059 56.8058 3.52247C57.9728 3.95039 61.0495 4.59227 63.7019 4.91321C66.3542 5.34113 69.537 6.30395 70.8101 6.94584C73.7807 8.65752 75.5843 8.55054 78.0245 6.73187C79.9342 5.34113 79.5098 5.02019 73.2503 3.09455C65.5055 0.634001 58.9277 -0.00787926 60.0947 1.91776ZM33.4653 5.23415C31.4495 6.6249 29.752 8.01564 29.752 8.44356C29.752 9.8343 31.0251 9.40638 34.6323 6.6249C38.7699 3.41549 40.6796 3.30851 42.5893 5.76905C43.7563 7.37376 43.7563 7.48074 42.4832 6.30395C40.2552 4.27133 38.0273 4.80623 34.314 8.2296C31.8739 10.3692 31.1312 11.8669 31.5556 13.5786C32.086 15.6112 32.2982 15.7182 33.9957 14.1135C35.0567 13.1507 36.542 10.9041 37.1785 9.19242L38.4516 6.08999L42.1649 9.2994C46.1965 12.9367 47.2574 13.2577 48.1061 10.9041C48.8488 9.08544 41.8466 2.88059 39.0882 2.88059C38.0273 2.88059 35.481 3.95039 33.4653 5.23415ZM90.5435 8.2296C87.7851 9.40638 85.9815 10.6901 86.2998 11.1181C86.7241 11.439 87.679 11.1181 88.5277 10.3692C89.4826 9.72732 92.8776 8.12262 96.2725 7.05282C99.8797 5.76905 100.941 5.23415 98.9249 5.55509C96.9091 5.76905 93.1958 7.05282 90.5435 8.2296ZM60.3069 7.90866C58.2911 10.3692 57.2302 14.4345 58.5033 15.1833C59.7764 16.0392 67.9456 13.7926 71.1284 11.653L73.7807 10.0483L69.537 8.12262C64.0202 5.66207 62.2166 5.66207 60.3069 7.90866ZM20.3097 9.94128C20.0975 10.1552 21.795 10.3692 24.2351 10.3692C26.6753 10.3692 28.691 9.94128 28.691 9.40638C28.691 8.44356 21.3706 8.97846 20.3097 9.94128ZM89.5887 11.332C89.0582 11.8669 87.1485 12.5088 85.451 12.8297C83.6474 13.0437 84.9206 13.2577 88.1034 13.2577C91.2862 13.3646 92.9837 13.0437 91.9227 12.8297C90.3313 12.4018 90.2252 12.0809 91.3923 11.332C92.241 10.7971 92.3471 10.3692 91.7105 10.3692C91.1801 10.3692 90.2252 10.7971 89.5887 11.332ZM49.2732 13.4716C50.3341 15.1833 54.1535 14.8624 54.1535 13.1507C54.1535 11.439 50.9707 10.2622 49.4854 11.546C49.061 11.9739 48.9549 12.8297 49.2732 13.4716ZM41.9527 13.0437C43.6502 14.5414 45.5599 15.7182 46.1965 15.7182C46.7269 15.7182 45.7721 14.5414 44.0746 13.0437C42.271 11.653 40.3613 10.4762 39.8309 10.4762C39.1943 10.4762 40.1491 11.653 41.9527 13.0437ZM78.8732 12.0809C79.1915 12.4018 80.1464 12.5088 80.889 12.1879C81.7378 11.8669 81.4195 11.546 80.2524 11.546C79.0854 11.439 78.4489 11.7599 78.8732 12.0809ZM23.7047 12.5088C21.5828 12.5088 21.1584 12.9367 21.4767 14.8624C21.9011 18.0718 27.4179 18.9276 29.3276 16.2531C31.0251 14.0065 30.0703 11.1181 27.9484 11.8669C27.0996 12.1879 25.19 12.5088 23.7047 12.5088Z" fill="#A1A1A1"/>
<path d="M4.62479 11.5731C6.88898 12.9374 11.6232 14.9315 15.2253 15.8761C20.0625 17.2405 21.2975 17.9752 20.1654 18.6049C19.1362 19.2346 18.5187 21.0188 18.5187 23.7475C18.5187 27.7357 18.6216 27.8407 20.7829 26.7912C23.0471 25.6367 23.0471 25.6367 21.0916 27.211C19.9595 28.0506 18.6216 29.2051 18.2099 29.8348C17.6954 30.3595 16.1516 32.0388 14.8137 33.6131L12.3436 36.3418L14.5049 40.2251C15.7399 42.3241 18.2099 45.0529 19.9595 46.2073C22.6354 47.9915 23.15 49.0411 23.4587 53.1342C23.7675 57.3323 23.2529 58.6967 20.0625 62.9997C18.0041 65.7285 15.9457 68.982 15.4312 70.1365C14.8137 71.7108 14.5049 71.9207 14.5049 70.7662C14.402 69.8216 16.0487 66.9879 18.0041 64.3641C22.4296 58.5917 23.5617 53.1342 21.1946 49.3559C20.2683 47.8866 19.1362 46.7321 18.7245 46.7321C18.3129 46.7321 18.107 49.6708 18.2099 53.2392L18.3129 59.8512L17.4895 53.7639C17.0778 50.4054 16.1516 47.047 15.5341 46.4173C14.5049 45.4727 14.402 45.8925 15.1224 48.3064C16.5633 53.7639 15.8428 62.7898 13.5786 67.3028C11.6232 71.186 11.6232 71.9207 12.9611 77.6931C13.6816 81.1565 14.2991 85.3546 14.2991 87.1388L14.1961 90.2873L13.3728 87.1388L12.5495 83.9902L12.4465 87.1388C12.4465 88.923 13.167 91.4418 14.0932 92.8062C15.0195 94.2755 15.2253 95.0102 14.5049 94.5904C13.5786 93.9607 13.5786 94.2755 14.6078 95.9548C15.7399 97.9489 15.5341 98.9984 12.4465 104.981C8.124 113.167 6.88898 113.272 10.7999 105.086C12.6524 101.097 13.3728 98.5786 12.8582 96.8993C12.1378 94.8003 11.932 94.9052 10.3882 98.8934C8.02108 104.981 6.78607 105.925 8.94734 99.943C10.2853 96.1647 10.3882 94.6953 9.46193 93.7508C8.53567 92.8062 8.02108 93.1211 7.30065 95.1152C5.8598 98.6835 5.96272 96.0597 7.30065 91.9666C8.22691 89.3428 8.7415 88.923 9.8736 89.8675C11.0057 90.8121 11.3144 90.7072 11.3144 89.3428C11.3144 88.2933 10.7999 87.8734 10.2853 88.1883C8.84442 89.1329 8.94734 87.3487 10.4911 85.7744C11.2115 85.0397 11.3144 84.515 10.6969 84.515C8.53567 84.515 5.65397 93.226 5.65397 99.838C5.65397 103.406 6.06564 106.135 6.47731 105.82C6.9919 105.505 6.88898 106.135 6.37439 107.29C5.75689 108.339 5.44813 113.797 5.55105 119.254C5.75689 124.712 5.65397 126.286 5.44813 122.823L4.93355 116.525L2.97811 120.724L1.02267 124.922L1.53726 120.409C1.84601 117.89 2.66935 115.056 3.28686 113.902C4.21312 112.432 4.21312 110.228 3.49269 105.4C2.56643 99.943 2.66935 98.0538 4.31604 93.1211C5.34522 89.8675 7.09482 85.6694 8.22691 83.7803C9.56485 81.3664 10.0794 79.2673 9.66776 77.5881L9.05026 74.9643L6.68315 77.1683C5.13938 78.6376 4.52187 80.3169 4.72771 82.206C4.93354 83.7803 4.62479 83.1506 4.00728 80.8416C3.4927 78.5327 2.3606 74.2296 1.53726 71.291C-0.829853 63.1047 -0.418182 55.2332 2.46352 49.5658C4.62479 45.4727 4.83063 44.6331 3.49269 43.4786C0.50808 40.9597 0.0964069 36.027 2.56643 30.9892C5.65397 24.5872 6.47731 19.7593 4.93355 17.0306C3.80145 14.9315 3.59561 15.3513 2.97811 20.8089C1.84601 30.7793 0.50808 29.6249 0.50808 18.8148C0.50808 13.3572 0.50808 8.94925 0.50808 9.0542C0.50808 9.0542 2.3606 10.2087 4.62479 11.5731ZM11.5203 24.2723C11.5203 28.4704 11.7261 28.8902 13.9903 28.8902C16.2545 28.8902 16.4603 28.4704 16.4603 24.2723C16.4603 20.1791 16.2545 19.6544 14.0932 19.6544C11.932 19.6544 11.6232 20.1791 11.5203 24.2723ZM8.32983 26.0565C8.22691 27.106 8.63859 27.6308 9.25609 27.3159C9.77068 27.0011 10.2853 24.902 10.1824 22.803C10.0794 19.3395 9.97652 19.2346 9.25609 21.5435C8.84442 23.0129 8.43275 25.007 8.32983 26.0565ZM2.77227 37.8112C3.59561 40.9597 8.124 46.7321 9.77068 46.7321C12.4465 46.7321 12.2407 44.9479 9.25609 40.7498L6.16856 36.4468L9.15317 35.1873C10.7999 34.5576 12.9611 33.0883 13.9903 31.9338C15.637 30.0447 15.637 29.9397 13.0641 29.9397C11.2115 29.9397 9.05026 31.3041 6.58023 33.823C3.18394 37.4963 3.08102 37.4963 5.55105 34.3477C9.25609 29.5199 8.84442 27.5258 5.13938 32.0388C3.08102 34.4527 2.3606 36.4468 2.77227 37.8112ZM11.5203 40.9597C12.8582 42.9538 14.2991 44.6331 14.8137 44.6331C15.637 44.6331 14.8137 43.1637 11.4174 39.0706C9.05026 36.1319 9.05026 37.0765 11.5203 40.9597ZM10.4911 49.146C10.2853 50.1955 10.9028 51.2451 11.829 51.5599C13.9903 52.5045 14.7107 51.5599 13.8874 48.8312C13.0641 46.3123 11.0057 46.5222 10.4911 49.146ZM2.46352 52.6094C0.508078 57.3323 0.610998 63.4195 2.77227 70.8712C4.72771 77.5881 5.44813 78.3228 7.19773 75.1742C8.02108 73.5999 7.71233 71.7108 6.06564 67.6176C3.69853 61.3205 4.1102 58.1719 7.71233 54.4986C10.4911 51.6649 9.97652 51.0352 6.9919 53.7639C4.72771 55.863 4.52187 54.3936 6.78607 51.1401C7.60941 49.8807 8.124 48.8312 7.71233 48.8312C7.40357 48.8312 6.27148 50.4054 5.13938 52.1896C4.00728 54.0788 3.08102 54.9184 3.08102 54.0788C3.08102 53.1342 3.90437 51.35 4.83063 49.9856C5.75689 48.5163 5.96272 47.7816 5.2423 48.3064C4.52187 48.7262 3.28686 50.6153 2.46352 52.6094ZM11.2115 57.4372C11.2115 58.4868 11.0057 58.4868 10.594 57.4372C10.1824 56.3877 9.66776 56.4927 8.124 57.8571C5.75689 60.0611 5.65397 62.7898 8.02108 68.1424L9.8736 72.3405L12.1378 66.9879C14.8137 60.5858 15.1224 56.1778 12.8582 56.1778C12.0349 56.1778 11.3144 56.8075 11.2115 57.4372ZM11.6232 81.5763C11.932 82.311 12.1378 81.7862 12.1378 80.3169C12.1378 78.8475 11.932 78.3228 11.6232 78.9525C11.4174 79.6872 11.4174 80.9466 11.6232 81.5763Z" fill="#A1A1A1"/>
</svg>
