<svg width="1117" height="681" viewBox="0 0 1117 681" fill="none" xmlns="http://www.w3.org/2000/svg">
<path d="M406.736 129.467C403.545 128.848 399.659 127.532 397.943 126.411C394.151 123.74 393.781 124.231 395.299 128.984C396.816 133.738 397.427 140.342 396.467 141.327C395.022 142.533 397.342 144.244 399.726 143.895C401.029 143.72 404.956 144.819 408.423 146.302C412.267 147.835 414.55 148.3 414.185 147.328C412.361 141.007 412.096 139.221 412.288 135.047L412.474 130.331L406.736 129.467Z" fill="#4E949E" fill-opacity="0.3"/>
<path d="M331.52 90.1166L327.838 89.1778L327.974 93.0778C328.09 95.3524 328.313 97.355 328.583 97.6775C328.852 97.9999 330.783 98.5768 332.845 99.044L336.658 99.8731L335.226 91.2177L331.52 90.1166Z" fill="#4E949E" fill-opacity="0.3"/>
<path d="M578.621 405.893C577.432 406.338 573.308 405.404 569.53 403.816C565.53 402.23 563.026 401.767 563.457 402.684C565.338 406.404 566.253 412.572 565.295 415.562C564.129 419.637 565.14 420.982 568.802 420.295C570.391 420.063 574.139 420.947 577.385 422.432L583.142 424.921L581.754 418.053C580.955 414.16 580.795 410.098 581.379 409.062C582.696 406.503 581.44 404.998 578.621 405.893Z" fill="#4E949E" fill-opacity="0.3"/>
<path d="M403.169 195.933C387.011 180.055 373.607 168.809 364.925 164.019C363.879 163.433 361.296 161.942 359.179 160.608C349.534 154.797 326.464 145.056 321.797 144.94C319.209 144.912 319.855 145.285 331.442 150.751C352.636 160.781 377.062 180.154 400.007 204.959L408.545 214.249L414.455 209.313L410.033 203.885C407.675 200.928 404.557 197.328 403.169 195.933Z" fill="#4E949E" fill-opacity="0.3"/>
<path d="M371.771 223.067C366.716 218.349 360.95 213.312 358.965 211.869C350.729 205.611 335.486 195.901 334.896 196.394C334.567 196.669 335.154 197.638 336.248 198.548C347.374 207.866 357.956 218.002 366.566 227.778L376.923 239.379L379.736 237.943C382.942 236.177 383.741 234.598 382.15 232.825C381.611 232.181 376.981 227.837 371.771 223.067Z" fill="#4E949E" fill-opacity="0.3"/>
<path d="M512.34 393.926C511.587 393.825 509.223 395.799 507.021 398.368C503.554 402.358 503.28 403.498 504.283 407.769C504.824 410.419 506.147 417.341 507.235 423.182L509.178 433.783L516.748 443.516C520.859 448.839 524.629 453.353 524.94 453.459C526.208 454.042 521.47 424.612 518.12 410.991C514.139 394.612 513.911 394.073 512.34 393.926Z" fill="#4E949E" fill-opacity="0.3"/>
<path d="M436.311 324.24C435.713 324.192 436.254 326.841 437.554 330.134C440.893 339.204 445.77 360.125 447.752 373.977C450.475 392.319 448.889 410.974 443.538 423.652C439.111 434.1 440.772 434.354 452.509 424.918L461.487 417.785L462.984 409.967C463.75 405.679 463.92 397.875 463.304 392.733C462.18 382.178 456.22 359.425 452.325 350.09C450.869 346.745 449.496 342.966 449.238 341.722C448.631 339.127 437.727 324.334 436.311 324.24Z" fill="#4E949E" fill-opacity="0.3"/>
<path d="M367.059 280.821C355.334 269.45 351.781 266.397 345.023 261.641C336.393 255.712 325.978 250.181 323.881 250.472C322.799 250.646 323.248 251.183 326.346 253.157C343.795 264.309 362.845 285.252 375.653 307.395C384.802 323.288 390.192 339.22 392.311 356.971C395.316 382.192 386.722 400.863 368.374 408.522C354.405 414.35 339.627 413.739 319.481 406.298C295.826 397.593 275.08 382.627 250.509 356.808C241.66 347.413 234.39 338.707 216.467 315.911C192.727 285.749 182.747 274.198 166.678 258.427C127.65 220.235 88.0126 202.801 57.7266 210.579C50.1223 212.551 34.855 222.565 36.5604 224.607C37.0989 225.252 38.4671 225.021 39.649 224.034C45.5588 219.099 57.6132 215.782 69.797 215.824C83.5941 215.795 103.387 223.347 125.955 237.157C134.733 242.597 151.265 256.521 164.271 269.559C169.129 274.441 184.944 292.978 209.292 322.268C245.626 366.176 247.128 367.841 257.728 377.597C263.787 383.118 271.922 390.19 275.876 393.456C283.603 399.773 301.149 411.574 304.993 413.107C306.236 413.528 307.618 414.381 307.977 414.811C309.413 416.531 325.172 423.256 333.516 425.774C338.376 427.189 345.47 428.744 349.391 429.301C356.634 430.367 374.667 429.538 376.44 428.057C376.965 427.619 379.695 426.616 382.514 425.721C389.939 423.534 399.782 414.767 404.26 406.649C419.852 377.938 409.637 334.475 377.74 293.611C373.204 287.912 368.512 282.161 367.059 280.821Z" fill="#4E949E" fill-opacity="0.3"/>
<path d="M321.477 299.913C320.814 299.92 321.701 301.916 323.592 304.715C331.835 316.987 336.567 336.934 333.88 348.665C330.86 362.133 319.712 369.071 304.496 367C298.914 366.189 300.71 368.338 307.458 370.547C315.361 373.07 328.536 372.83 334.472 370.062C347.026 364.14 349.833 347.748 341.612 328.16C338.31 320.336 336.664 317.698 330.219 309.58C325.772 303.989 322.23 300.014 321.477 299.913Z" fill="#4E949E" fill-opacity="0.3"/>
<path d="M271.063 299.872C270.071 300.152 266.545 299.266 263.191 298.053L257.261 295.891L258.098 301.03C258.663 303.842 259.061 307.523 258.926 309.095L258.762 311.969L266.802 314.923C271.154 316.397 274.95 317.606 275.147 317.441C275.344 317.277 274.91 314.355 274.249 310.894C273.612 307.595 273.368 303.967 273.821 303.041C274.745 300.81 273.423 299.361 271.063 299.872Z" fill="#4E949E" fill-opacity="0.3"/>
<path d="M196.045 251.416L196.678 256.178C197.063 258.776 197.49 261.155 197.825 261.423C198.095 261.745 200.205 262.537 202.398 262.895L206.457 263.884L205.191 254.36L196.045 251.416Z" fill="#4E949E" fill-opacity="0.3"/>
<path d="M453.973 557.603C448.146 551.158 447.075 550.41 444.643 550.435C443.186 550.557 437.085 550.726 431.205 550.893C425.26 551.115 417.737 550.648 414.39 549.976C411.198 549.358 408.587 549.167 408.659 549.654C408.731 550.141 411.185 553.747 414.195 557.618L419.522 564.664L426.378 566.601C430.215 567.592 438.516 568.322 444.838 568.151C451.159 567.98 457.481 567.809 458.873 567.741C462.321 567.598 461.548 565.872 453.973 557.603Z" fill="#4E949E" fill-opacity="0.3"/>
<path d="M387.311 485.386C372.478 483.907 370.04 483.39 358.939 479.707C352.657 477.656 347.396 476.029 347.265 476.138C347.199 476.193 350.479 480.387 354.608 485.331L362.147 494.359L370.354 496.445C374.723 497.54 380.222 498.786 382.481 499.088C387.711 500.012 402.123 499.652 403.305 498.665C403.896 498.171 402.722 496.232 399.222 492.041L394.285 486.129L387.311 485.386Z" fill="#4E949E" fill-opacity="0.3"/>
<path d="M293.72 446.055C285.653 440.934 271.275 429.589 259.515 418.977C246.816 407.508 216.544 371.125 201.37 348.951C180.839 319.028 171.067 306.391 157.043 291.467C141.876 275.308 131.511 266.633 117.1 258.052C93.4689 244.036 75.6242 242.154 61.1756 252.214C54.2676 256.888 50.7482 262.016 48.9823 269.511C46.9188 277.985 48.5193 282.304 51.4761 276.368C56.871 265.478 68.1152 259.189 81.1003 259.656C94.904 260.169 108.183 266.594 128.165 282.38C144.398 295.277 163.503 317.087 184.272 346.628C218.407 395.11 250.717 431.798 277.008 451.802C281.493 455.171 286.093 458.81 287.457 460.043C288.731 461.168 290.644 462.125 291.684 462.169C294.271 462.197 303.002 452.899 301.68 451.449C301.076 450.859 297.529 448.347 293.72 446.055Z" fill="#4E949E" fill-opacity="0.3"/>
<path d="M132.173 311.871C116.285 296.315 99.8467 286.508 89.1448 286.506C82.4225 286.465 82.9677 287.651 91.0912 290.171C104.009 294.161 115.707 303.365 130.338 320.884C142.455 335.394 148.968 345.462 164.729 374.078C191.095 421.932 206.748 445.347 231.729 473.926C251.127 496.22 249.901 495.42 255.942 490.375C260.145 486.865 260.622 486.102 259.037 484.871C254.127 481.127 237.362 462.654 225.843 448.192C210.26 428.732 198.252 410.482 179.822 378.804C165.344 353.86 159.059 344.332 147.049 329.55C140.538 321.487 133.831 313.589 132.173 311.871Z" fill="#4E949E" fill-opacity="0.3"/>
<path d="M189.245 469.634L185.449 468.425L186.01 472.7L186.66 477.083L195.053 479.925L194.606 475.92C194.039 471.103 194.039 471.103 189.245 469.634Z" fill="#4E949E" fill-opacity="0.3"/>
<path d="M967.855 599.802C964.504 599.004 960.671 598.583 959.215 598.923C956.085 599.865 955.449 599.223 955.084 595.251C954.719 591.278 952.513 585.101 950.99 583.718C948.82 581.906 950.703 581.255 953.562 582.643C955.117 583.386 959.092 584.038 962.376 584.113C966.066 584.305 968.454 584.854 968.465 585.642C969.171 591.01 969.654 592.636 971.705 596.795L973.987 601.479L967.855 599.802Z" fill="#4E949E" fill-opacity="0.3"/>
<path d="M899.76 605.175L895.993 604.474L894.435 600.728C893.568 598.559 892.942 596.703 893.106 596.506C893.27 596.31 895.209 596.595 897.344 597.044L901.308 597.91L903.483 605.728L899.76 605.175Z" fill="#4E949E" fill-opacity="0.3"/>
<path d="M1041.56 405.51C1040.02 404.553 1035.75 403.654 1032.16 403.545C1028.31 403.336 1025.67 402.688 1025.76 401.983C1026.26 399.178 1024.59 393.561 1022.19 390.222C1019.08 385.732 1019.63 384.864 1024.09 387.142C1026 388.067 1029.86 388.85 1032.9 388.827L1038.34 388.925L1039.78 395.018C1040.58 398.467 1042.18 402.361 1043.3 403.628C1045.92 406.705 1045.16 407.621 1041.56 405.51Z" fill="#4E949E" fill-opacity="0.3"/>
<path d="M934.618 533.369C923.25 541.77 912.975 546.859 905.224 547.721C904.294 547.833 902.017 548.155 900.199 548.527C891.803 549.962 869.895 549.337 864.649 547.401C861.725 546.293 862.294 546.212 873.045 545.966C892.697 545.484 911.915 537.304 927.065 523.172L932.676 517.855L941.552 525.267L938.916 528.623C937.538 530.473 935.581 532.617 934.618 533.369Z" fill="#4E949E" fill-opacity="0.3"/>
<path d="M887.064 493.1C883.398 495.485 879.065 497.868 877.445 498.405C870.846 500.896 857.809 503.679 856.921 502.937C856.428 502.526 856.668 501.837 857.511 501.429C866.047 497.221 873.607 491.976 879.087 486.217L885.748 479.443L889.572 482.08C893.987 485.212 895.587 487.104 894.559 488.134C894.231 488.527 890.883 490.733 887.064 493.1Z" fill="#4E949E" fill-opacity="0.3"/>
<path d="M971.585 388.082C970.775 387.85 967.225 384.885 963.598 381.412C957.91 375.995 957.099 374.762 956.362 371.035C955.812 368.686 954.274 362.511 952.944 357.288L950.493 347.796L954.812 341.622C957.141 338.232 959.438 335.482 959.744 335.516C960.927 335.503 968.473 362.144 970.652 373.966C973.326 388.203 973.305 388.629 971.585 388.082Z" fill="#4E949E" fill-opacity="0.3"/>
<path d="M915.89 422.704C915.233 422.489 914.684 420.14 914.714 417.498C914.521 410.113 910.869 391.836 907.036 379.189C902.071 362.484 892.079 343.581 880.438 328.858C870.825 316.718 872.599 317.199 890.065 331.562L903.388 342.467L908.52 350.753C911.272 355.275 914.892 362.966 916.452 367.713C919.811 377.521 923.037 397.108 922.716 404.509C922.532 407.134 922.634 410.219 922.887 411.32C923.338 413.586 917.456 423.234 915.89 422.704Z" fill="#4E949E" fill-opacity="0.3"/>
<path d="M856.353 434.667C848.038 440.615 845.346 442.035 839.764 443.708C832.573 445.705 823.18 446.53 820.671 445.324C819.368 444.68 819.641 444.353 822.29 443.786C837.199 440.566 849.625 428.492 854.438 412.507C857.843 401.013 856.966 387.833 851.575 371.438C843.911 348.145 825.956 326.149 801.768 310.616C783.352 298.794 766.847 292.902 747.248 291.316C724.222 289.424 707.246 294.92 690.694 309.327C684.776 314.61 680.347 319.913 670.015 334.291C656.314 353.302 650.058 360.192 638.745 368.527C611.218 388.661 573.883 388.269 536.092 367.378C526.594 362.114 504.868 345.637 505.907 344.393C506.235 344.001 507.889 344.826 509.664 346.309C518.539 353.72 533.678 362.251 547.489 367.56C563.162 373.647 582.312 374.969 601.863 371.402C609.438 369.948 622.088 363.619 631.125 356.606C634.495 353.974 644.305 342.828 659.079 324.936C681.038 298.04 682.012 297.075 689.759 292.208C694.212 289.481 700.34 286.152 703.393 284.7C709.39 281.929 724.123 278.117 727.813 278.309C729.04 278.444 730.233 278.218 730.452 277.956C731.326 276.908 746.26 277.265 754.626 278.472C759.521 279.226 766.891 280.823 771.096 282.001C778.849 284.142 799.682 292.87 802.344 295.094C803.133 295.752 806.671 297.929 810.265 300.041C819.652 305.436 834.675 318.315 843.323 328.204C873.628 363.07 881.12 401.002 862.86 426.875C860.214 430.445 857.414 433.997 856.353 434.667Z" fill="#4E949E" fill-opacity="0.3"/>
<path d="M796.232 396.018C795.476 395.72 795.606 394.161 796.524 392.26C800.49 383.903 797.102 366.514 788.9 353.885C779.558 339.415 763.858 327.749 747.497 323.088C741.518 321.429 742.611 320.119 749.301 320.927C757.163 321.936 772.223 327.955 780.177 333.263C797.026 344.556 807.411 361.786 806.681 377.292C806.369 383.478 805.659 385.33 801.909 390.422C799.317 393.926 797.042 396.25 796.232 396.018Z" fill="#4E949E" fill-opacity="0.3"/>
<path d="M739.027 373.919C737.778 373.21 734.165 372.526 730.891 372.237L725.11 371.743L723.802 367.095C723.209 364.599 722.045 361.182 721.2 359.588L719.753 356.711L727.581 357.359C731.874 357.831 735.651 358.319 735.947 358.566C736.243 358.813 737.034 361.474 737.803 364.561C738.528 367.501 739.845 370.935 740.766 372.037C742.794 374.62 741.93 375.454 739.027 373.919Z" fill="#4E949E" fill-opacity="0.3"/>
<path d="M675.156 388.265L673.784 383.895C673.081 381.53 672.521 379.395 672.783 379.281C672.947 379.085 674.995 379.238 677.327 379.853L681.499 380.67L684.245 389.408L675.156 388.265Z" fill="#4E949E" fill-opacity="0.3"/>
<path d="M833.46 202.714C829.675 206.444 828.789 206.704 826.018 205.612C824.309 204.852 817.31 202.008 810.564 199.264C803.718 196.437 795.384 193.589 791.879 192.774C788.528 191.976 785.648 191.015 785.516 190.572C785.384 190.128 786.586 187.687 788.303 185.23L791.255 180.694L798.186 181.814C802.107 182.532 811.207 185.464 818.458 188.407C825.709 191.35 832.959 194.294 834.569 194.971C838.545 196.624 838.426 197.97 833.46 202.714Z" fill="#4E949E" fill-opacity="0.3"/>
<path d="M789.508 243.919C773.322 238.848 770.781 238.282 759.798 237.002C753.568 236.244 748.312 235.523 748.115 235.358C748.016 235.276 749.897 232.623 752.412 229.611L757.005 224.111L765.404 225.679C769.883 226.529 775.577 227.728 778.009 228.425C783.539 229.82 800.055 236.5 801.83 237.983C802.718 238.724 802.238 240.101 800.105 242.654L797.098 246.256L789.508 243.919Z" fill="#4E949E" fill-opacity="0.3"/>
<path d="M700.55 241.203C693.642 242.659 682.304 247.417 673.616 252.609C664.239 258.226 645.855 280.439 638.37 295.416C628.207 315.603 622.663 323.644 613.3 332.051C603.181 341.161 595.225 345.075 582.636 347.121C561.969 350.422 542.541 344.423 521.723 328.261C511.83 320.665 505.583 314.115 500.287 306.025C494.224 296.849 494.144 293.337 500.107 300.428C511.013 313.426 526.537 324.501 541.071 329.747C556.513 335.308 568.764 334.869 584.513 328.238C597.273 322.779 609.381 309.884 619.982 290.174C637.437 257.849 657.999 236.233 679.056 228.256C682.668 226.937 686.291 225.406 687.297 224.802C688.249 224.263 690.001 224.17 691.162 224.584C694.086 225.692 708.08 238.6 707.215 239.435C706.789 239.745 703.866 240.639 700.55 241.203Z" fill="#4E949E" fill-opacity="0.3"/>
<path d="M576.111 301.217C564.908 309.421 550.557 311.773 538.411 307.076C530.799 304.164 530.896 303.246 539.01 304.353C551.92 306.132 561.157 302.287 570.07 291.614C577.452 282.775 580.423 275.81 585.746 254.804C594.658 219.679 602.142 203.701 617.947 186.78C630.175 173.541 629.135 173.784 638.207 181.361C644.519 186.631 645.395 187.586 644.137 188.091C640.208 189.589 629.291 200.255 622.566 209.31C613.425 221.459 607.809 233.996 600.802 256.819C595.323 274.805 592.373 281.343 585.232 290.495C581.383 295.505 577.238 300.268 576.111 301.217Z" fill="#4E949E" fill-opacity="0.3"/>
<path d="M571.61 172.313L567.833 171.826L566.592 167.9L565.406 163.908L573.684 164.82L574.935 168.532C576.406 172.984 576.407 172.984 571.61 172.313Z" fill="#4E949E" fill-opacity="0.3"/>
</svg>
