<svg width="467" height="138" viewBox="0 0 467 138" fill="none" xmlns="http://www.w3.org/2000/svg">
<path d="M378.861 4.47517C386.618 6.83031 398.604 8.94993 405.656 9.18545C421.403 9.65648 424.929 11.7761 410.121 11.7761C402.13 11.7761 398.369 13.1892 394.374 17.4284L389.203 23.0808L401.425 25.9069C417.642 29.9107 438.091 27.7911 453.838 20.4901C461.124 17.1929 467 14.8378 467 15.5443C467 16.2509 461.124 19.5481 453.838 22.8453C438.091 30.1462 417.877 32.2658 399.31 28.4976C386.148 25.9069 384.972 26.1425 373.926 32.2658C364.524 37.6826 359.588 38.8602 345.956 38.8602C336.79 38.8602 326.213 37.9182 322.453 36.9761C316.812 35.3275 315.872 35.563 318.222 37.9182C319.867 39.5668 328.799 41.6864 338.2 42.3929C356.063 44.0415 353.478 45.2191 329.504 45.9256C318.222 46.3967 313.286 45.4546 305.53 40.9798C293.543 33.9144 293.073 33.9144 293.073 41.2154C293.073 53.6976 281.321 67.5929 273.565 64.5312C270.745 63.5892 271.215 61.9406 275.681 57.2303C278.736 53.9331 281.321 49.4583 281.086 47.3387C281.086 44.9836 280.616 44.5126 279.676 46.6322C279.206 48.0453 277.561 48.9873 276.386 48.2808C275.21 47.3387 274.975 48.7518 275.916 50.8714C276.856 53.4621 276.621 54.4041 274.74 53.2266C269.805 50.1649 263.929 63.1182 264.399 76.0714C264.869 82.9013 263.929 89.9668 262.519 91.8509C260.638 94.4415 260.403 93.735 261.343 88.3182C262.048 84.3144 261.813 82.9013 261.108 84.7854C260.403 86.6696 257.583 92.5574 254.997 97.5032C252.177 103.391 251.002 108.808 251.942 112.812C253.352 118.699 253.352 118.699 249.827 114.225C246.536 109.75 246.066 109.985 240.425 122.468C236.9 130.004 234.314 133.301 234.314 130.475C234.314 127.885 237.37 121.055 240.895 115.167C244.656 109.514 247.711 101.507 247.711 97.7387C247.711 93.735 248.416 86.6696 249.356 81.7238C251.002 72.3032 248.886 70.6546 242.775 76.778C240.66 78.6621 238.075 79.8397 236.665 78.8976C235.489 78.1911 235.019 78.8976 235.724 80.7817C236.43 82.6658 235.959 85.021 234.784 85.7275C233.374 86.4341 232.669 80.3107 232.904 69.9481L233.139 52.9911L241.835 48.7518C249.827 45.2191 250.767 43.806 250.767 35.7985C250.767 30.8527 250.062 25.9069 249.356 25.2004C246.536 22.6097 239.485 28.0266 238.31 33.4434C237.605 37.9182 237.135 37.4471 236.9 32.0303C236.9 28.2621 238.545 23.0808 240.66 20.7256C244.421 16.4864 244.421 16.4864 240.66 17.8995C238.545 18.606 235.724 22.6097 234.549 26.849L232.434 34.1499L232.199 26.849C231.964 22.3742 233.844 17.8995 236.665 15.3088L241.365 11.0696L236.43 5.65274L231.494 0.47143L241.835 2.82657C247.241 4.00414 258.288 4.71068 266.044 4.00414C280.146 2.82657 280.146 2.82657 272.155 6.35928C266.514 8.71442 264.869 10.363 266.749 12.2471C268.629 14.1312 272.86 12.9537 282.027 8.47891C297.304 1.17797 298.949 0.942459 309.996 7.06582L318.692 11.7761L331.149 5.88825C345.956 -0.941654 358.883 -1.41268 378.861 4.47517ZM350.422 4.47517C351.127 5.41722 349.247 5.88825 346.191 5.41722C343.136 4.71068 337.495 5.88825 333.499 8.00788C325.273 12.2471 321.043 17.4284 327.624 14.8378C331.384 13.4247 331.384 13.6602 328.564 17.1929C326.918 19.3125 326.448 21.1967 327.859 21.1967C329.034 21.1967 331.384 19.5481 333.029 17.664C334.675 15.7798 337.025 14.1312 338.435 14.1312C339.61 14.1312 338.905 16.2509 336.555 18.8415C329.504 26.6135 334.205 26.6135 342.196 18.8415C348.542 12.2471 348.777 11.5406 344.076 12.9537C339.845 14.1312 339.61 13.8957 342.431 11.7761C345.251 9.42096 345.251 9.18545 341.256 10.5985C330.209 14.3668 329.739 14.3668 334.205 10.5985C337.025 8.47891 340.786 7.53685 343.606 8.24339C346.191 9.18545 352.537 10.5985 357.708 11.7761C362.879 12.9537 371.34 15.5443 376.276 17.664C384.972 21.4322 385.677 21.4322 390.143 16.9574C394.609 12.2471 394.609 12.2471 380.977 8.47891C373.221 6.12377 365.934 4.00414 364.759 3.53311C360.059 1.88451 349.247 2.35554 350.422 4.47517ZM287.432 12.2471C278.736 17.8995 276.856 21.1967 282.027 21.1967C283.907 21.1967 287.667 18.606 290.723 15.3088C297.069 8.47891 299.889 8.00788 306.235 12.9537C310.466 16.2509 310.231 16.2509 304.12 13.6602C298.244 11.3051 297.069 11.5406 289.548 18.8415C285.082 23.3163 281.792 27.32 282.497 28.0266C283.202 28.4976 286.257 26.849 289.078 24.0228C292.133 21.1967 295.424 19.5481 296.129 20.4901C297.069 21.1967 297.774 20.7256 297.774 18.8415C297.774 17.1929 301.064 18.3705 306.235 22.3742C312.111 26.849 315.402 28.0266 317.047 26.378C320.807 22.6097 317.752 17.1929 309.056 11.7761C299.184 5.88825 297.539 5.88825 287.432 12.2471ZM249.592 11.7761C250.297 12.9537 252.647 14.1312 254.527 14.1312C256.408 14.1312 257.348 12.9537 256.643 11.7761C255.938 10.363 253.587 9.42096 251.707 9.42096C249.827 9.42096 248.886 10.363 249.592 11.7761ZM347.602 21.1967C345.251 25.2004 345.251 25.9069 348.777 26.1425C352.772 26.378 352.772 26.6135 348.777 27.5555C344.076 28.7331 343.371 32.9724 347.837 32.9724C349.482 32.9724 356.768 31.0882 363.819 28.9686C370.87 26.849 377.216 25.2004 378.156 25.4359C383.092 26.6135 379.096 22.8453 372.28 20.0191C361.234 15.0733 351.127 15.5443 347.602 21.1967ZM282.732 37.4471C284.377 39.0957 295.424 26.6135 295.424 23.0808C295.424 21.4322 292.368 23.7873 288.373 28.2621C284.612 32.5013 282.027 36.7406 282.732 37.4471ZM321.278 25.9069C321.278 27.0845 321.983 28.2621 322.923 28.2621C324.098 28.2621 327.389 28.9686 330.679 29.6752L336.555 30.8527L330.679 27.32C323.628 23.0808 321.278 22.6097 321.278 25.9069ZM304.825 29.4397C307.881 32.7368 311.406 35.3275 312.816 35.3275C314.226 35.092 312.111 32.5013 308.351 29.4397C299.184 21.9032 297.774 21.9032 304.825 29.4397ZM258.523 24.9649C259.228 25.6714 261.343 25.9069 262.989 25.2004C264.869 24.4939 264.164 23.7873 261.578 23.7873C258.993 23.5518 257.583 24.2583 258.523 24.9649ZM277.326 36.9761C278.031 39.3312 278.501 37.9182 278.501 34.1499C278.501 30.1462 278.031 28.4976 277.326 29.9107C276.856 31.5593 276.856 34.8565 277.326 36.9761ZM258.288 34.621C259.228 43.335 267.219 45.2191 267.219 36.9761C267.219 31.5593 264.869 28.9686 259.463 28.4976C258.288 28.2621 257.818 31.0883 258.288 34.621ZM321.278 32.9724C323.158 34.1499 326.918 35.092 329.504 35.092H334.205L329.504 32.9724C326.918 31.7948 323.158 30.8527 321.278 30.8527C318.222 30.6172 318.222 30.8527 321.278 32.9724ZM303.65 36.5051C307.41 39.8023 311.641 42.3929 312.816 42.3929C315.637 42.3929 313.521 40.2733 305.53 35.092C296.129 29.2041 295.424 29.9107 303.65 36.5051ZM345.486 36.7406C346.191 37.4471 348.307 37.6826 349.952 36.9761C351.832 36.2696 351.127 35.563 348.542 35.563C345.956 35.3275 344.546 36.034 345.486 36.7406ZM284.847 46.3967C284.142 50.1649 281.086 55.5817 278.266 58.6434C275.21 61.9406 274.505 63.8247 276.386 63.1182C282.967 60.9985 294.248 40.0378 288.843 40.0378C287.432 40.0378 285.787 42.864 284.847 46.3967ZM256.173 48.5163C255.467 50.4004 256.173 53.4621 257.583 54.8752C259.933 56.9948 261.343 56.7593 263.694 53.2266C265.574 50.8714 266.514 47.8097 265.809 46.8677C263.694 43.335 257.818 44.5125 256.173 48.5163ZM235.724 60.5275C233.374 66.1798 236.194 67.3574 240.19 62.1761C242.07 59.821 243.716 56.9948 243.716 56.0527C243.716 52.9911 237.135 56.7593 235.724 60.5275ZM243.011 67.1219L238.78 73.0098L245.361 70.1836C254.057 66.4154 253.822 66.6509 251.942 63.8247C249.827 60.0565 247.711 60.763 243.011 67.1219ZM251.942 88.5537L250.767 97.7387L254.057 90.6733C258.288 82.1948 258.993 73.2453 255.467 76.778C254.057 78.1911 252.412 83.3724 251.942 88.5537Z" fill="url(#paint0_linear_190_78)"/>
<path d="M217.391 11.3047L222.327 16.2505C225.148 19.0766 227.263 23.5514 227.028 26.3776C227.028 29.9103 226.558 30.6168 225.618 28.2617C223.737 23.0804 217.626 16.486 214.806 16.486C213.396 16.486 214.571 18.6056 217.391 21.1963C222.797 26.3776 224.207 33.914 220.212 36.5047C218.802 37.2112 217.861 36.0336 217.861 33.6785C217.861 29.2037 213.631 23.5514 210.575 23.5514C207.99 23.5514 206.345 33.2075 207.755 40.2729C208.695 45.2187 210.81 47.3383 215.746 48.2804C224.442 50.1645 227.968 56.5234 224.913 64.5308C223.502 68.5346 223.502 73.0093 225.383 77.7196C228.203 85.9626 225.853 90.6729 222.327 84.0785C220.917 81.9589 218.567 80.7813 217.156 81.4878C215.511 82.4299 215.041 82.4299 215.981 81.2523C218.331 78.8972 213.631 73.0093 209.4 73.0093C207.05 73.0093 207.05 74.8934 208.695 80.5458C209.87 84.785 210.81 91.6149 210.81 95.6187C210.81 99.8579 213.866 109.278 217.861 116.579C221.622 123.88 224.913 132.359 224.677 135.185C224.677 138.247 224.207 138.953 223.502 136.598C222.797 134.714 219.977 128.12 217.391 121.761C212.456 111.163 210.105 108.572 207.755 112.34C207.285 113.518 207.285 112.811 207.755 111.163C208.695 107.394 201.174 93.9701 199.059 95.3832C198.118 95.8542 197.648 94.4411 197.648 92.3215C197.648 90.2019 197.178 84.0785 196.708 78.8972C196.003 69.7121 196.003 69.4766 194.358 76.5421C192.948 82.1944 192.713 81.7234 193.418 73.4804C194.123 65.7084 192.948 61.7047 189.187 56.5234C186.367 52.7551 183.076 50.4 181.901 51.1065C180.491 52.0486 180.021 51.1065 180.726 48.9869C181.666 47.1028 180.961 45.4542 179.08 45.4542C176.73 45.4542 176.495 46.8673 178.61 51.1065C180.491 55.3458 181.666 55.8168 183.311 53.6972C184.721 51.3421 185.191 51.5776 184.251 54.4037C183.546 56.5234 184.251 59.8206 185.661 61.4692C187.307 63.3533 185.426 62.1757 181.901 58.8785C178.14 55.5813 173.675 49.6935 172.029 45.9252C169.209 39.8019 168.974 39.5664 168.739 44.0411C168.504 46.8673 172.029 53.2262 176.025 57.9364C182.136 64.7663 182.606 66.1794 178.61 64.0598C171.324 60.0561 166.153 52.0486 164.743 41.9215L163.333 33.2075L155.342 39.3308C146.645 45.9252 128.548 48.0449 110.92 44.7477C102.224 43.0991 102.929 42.8635 116.796 42.628C129.018 42.3925 134.424 40.9794 144.295 35.3271C156.047 28.4972 161.688 23.5514 157.222 23.5514C156.047 23.5514 153.697 24.9645 152.286 26.8486C146.88 33.2075 131.838 38.6243 115.151 39.8019C105.984 40.7439 98.9331 40.5084 99.4032 39.5664C100.108 38.3888 99.1682 37.6822 97.2879 37.6822C95.4076 37.6822 88.8266 35.0916 82.7156 31.5589C72.374 26.1421 70.4937 25.9065 59.9171 28.0262C42.2894 32.0299 26.542 31.0879 12.2048 25.671C-4.7178 19.3121 -3.77765 17.6635 13.38 23.5514C20.4311 26.1421 30.7726 28.0262 36.4135 28.2617C47.6953 28.2617 67.4383 23.7869 67.4383 21.1963C67.4383 16.486 58.0368 11.7757 48.6354 11.7757C34.7682 11.7757 37.8237 9.65607 52.396 9.18505C58.7419 9.18505 71.904 6.82991 81.5405 4.23925C101.989 -1.41308 117.031 -0.471028 130.663 7.06542L139.594 12.2467L147.586 7.30093C157.927 0.942056 160.513 1.17757 176.495 8.4785C183.781 11.7757 190.597 13.6598 192.007 12.9533C195.533 10.8336 192.478 7.06542 187.307 7.06542C184.956 7.06542 182.371 6.35888 181.901 5.18131C181.196 4.23925 187.777 3.53271 196.238 3.53271C204.934 3.53271 215.511 2.82617 219.977 1.6486L228.203 0L217.391 11.3047ZM74.7244 8.94953C62.5025 13.1888 62.5025 13.1888 67.2032 17.428C71.904 21.6673 72.374 21.6673 84.1259 16.7215C101.754 9.42056 110.45 10.8336 119.616 22.1383C121.967 24.729 123.847 25.9065 123.847 24.2579C123.847 22.6093 120.792 19.0766 116.796 16.2505C109.745 10.8336 109.51 7.06542 116.326 7.06542C118.911 7.06542 119.381 7.77196 117.501 8.94953C115.856 10.1271 117.736 12.4822 123.377 16.2505C131.603 21.4318 131.838 21.6673 127.608 16.7215C122.907 11.5402 125.492 9.65607 130.428 14.6019C131.838 16.015 133.719 16.7215 134.659 16.015C136.069 14.3664 124.317 7.53645 114.446 4.47477C106.689 1.88411 89.7667 3.76822 74.7244 8.94953ZM146.646 12.9533C137.479 19.3121 136.774 20.4897 140.064 25.671C142.415 29.2037 148.996 26.6131 154.402 20.2542C158.162 15.5439 161.453 15.5439 161.453 19.7832C161.453 24.0224 173.205 38.3888 175.085 36.5047C175.79 35.7981 173.44 32.2654 169.914 28.4972C166.153 24.729 164.038 20.4897 164.743 19.3121C165.448 18.1346 164.508 15.5439 162.393 13.8953C159.337 11.3047 157.457 11.5402 151.111 14.8374L143.825 18.8411L149.466 14.1308C155.577 8.71402 162.628 8.00748 165.448 12.2467C168.269 16.7215 173.675 20.4897 180.256 22.3738C184.251 23.3159 182.136 21.1963 174.38 15.5439C167.799 11.0692 160.983 7.30093 159.102 7.30093C156.987 7.06542 151.581 9.65607 146.646 12.9533ZM201.409 11.7757C201.409 12.9533 203.054 14.1308 204.934 14.1308C206.815 14.1308 208.46 12.9533 208.46 11.7757C208.46 10.3626 206.815 9.42056 204.934 9.42056C203.054 9.42056 201.409 10.3626 201.409 11.7757ZM87.4164 19.3121C81.3054 22.1383 79.6602 26.8486 84.3609 29.6748C86.0061 30.6168 86.2412 30.3813 85.3011 28.7327C83.4207 25.4355 84.3609 25.2 89.5317 27.3196C91.647 28.0262 92.8222 29.4393 92.3521 30.3813C91.882 31.0878 96.5828 32.0299 102.929 32.2654C109.275 32.5009 114.446 31.5589 114.446 30.3813C114.446 29.2037 112.565 28.2617 110.215 28.2617C106.924 28.2617 106.924 27.7907 109.51 26.1421C112.33 24.2579 112.33 23.3159 109.98 20.2542C106.219 15.7794 95.8777 15.3084 87.4164 19.3121ZM169.444 24.9645C172.029 26.6131 174.615 27.7907 175.32 27.0841C175.79 26.3776 174.38 24.2579 171.794 22.6093C169.444 20.7252 166.859 19.7832 166.154 20.4897C165.448 20.9607 167.094 23.0804 169.444 24.9645ZM195.063 24.9645C195.768 25.671 197.883 25.9065 199.529 25.2C201.409 24.4935 200.704 23.7869 198.118 23.7869C195.533 23.5514 194.123 24.2579 195.063 24.9645ZM122.437 29.9103C124.317 31.7944 135.599 28.4972 135.599 25.9065C135.599 24.729 132.543 24.729 128.313 26.3776C124.552 27.7907 121.732 29.4393 122.437 29.9103ZM189.657 36.7402C189.657 40.7439 191.067 42.3925 194.358 42.3925C197.883 42.3925 199.059 40.7439 199.059 35.5626C199.059 29.9103 198.353 28.9682 194.358 29.9103C191.302 30.6168 189.657 33.2075 189.657 36.7402ZM177.905 34.1495C177.905 37.4467 178.375 40.0374 178.845 40.0374C179.315 40.0374 180.256 37.4467 180.726 34.1495C181.431 30.8523 180.961 28.2617 180.021 28.2617C178.845 28.2617 177.905 30.8523 177.905 34.1495ZM145 41.686C145 43.5701 153.932 37.6822 156.987 33.914C159.102 31.3234 157.457 31.7944 152.521 35.3271C148.526 38.3888 145 41.215 145 41.686ZM124.082 34.385C121.732 36.5047 132.308 35.0916 135.599 32.972C138.184 31.0879 137.244 30.8523 132.073 32.0299C128.078 32.972 124.552 33.914 124.082 34.385ZM193.183 47.1028C192.478 48.2804 193.888 51.3421 196.473 53.9327C199.059 56.5234 200.234 59.3495 199.529 60.2916C198.588 61.2336 199.059 61.2336 200.469 60.5271C201.879 59.8206 202.819 56.7589 202.349 53.6972C202.114 50.6355 201.644 47.5738 201.644 46.3963C201.409 44.0411 194.828 44.2766 193.183 47.1028ZM215.511 58.643C219.037 65.4729 222.562 66.886 222.562 61.4692C222.562 57.4654 219.977 54.8748 214.806 54.4037C213.866 54.1682 214.101 56.2878 215.511 58.643ZM204.464 65.2374C203.994 66.6505 205.405 68.2991 207.755 69.0056C210.105 69.4766 214.101 70.8897 216.686 71.8318C220.917 73.4804 220.682 73.0093 215.746 67.357C209.87 61.2336 206.11 60.2916 204.464 65.2374ZM204.699 93.4991C208.93 101.507 209.4 96.5607 205.64 83.6075C203.054 74.8934 202.819 74.6579 201.879 80.5458C201.409 84.0785 202.819 89.9663 204.699 93.4991Z" fill="url(#paint1_linear_190_78)"/>
<defs>
<linearGradient id="paint0_linear_190_78" x1="233" y1="-12" x2="233" y2="138" gradientUnits="userSpaceOnUse">
<stop stop-color="#001425"/>
<stop offset="1" stop-color="#176A6C"/>
</linearGradient>
<linearGradient id="paint1_linear_190_78" x1="233" y1="-12" x2="233" y2="138" gradientUnits="userSpaceOnUse">
<stop stop-color="#001425"/>
<stop offset="1" stop-color="#176A6C"/>
</linearGradient>
</defs>
</svg>
